<svg width="374" height="339" viewBox="0 0 374 339" fill="none" xmlns="http://www.w3.org/2000/svg">
<rect x="41.1758" y="71.0215" width="278.412" height="162.628" rx="16" fill="url(#paint0_linear_106_6071)"/>
<path d="M54.9758 183.421C54.9758 182.813 55.0878 182.168 55.3118 181.485C55.5464 180.803 55.9091 180.179 56.3998 179.613C56.8904 179.037 57.5144 178.563 58.2718 178.189C59.0291 177.816 59.9358 177.629 60.9918 177.629C62.0584 177.629 62.9811 177.821 63.7598 178.205C64.5491 178.579 65.1998 179.053 65.7118 179.629C66.2238 180.205 66.6024 180.835 66.8478 181.517C67.0931 182.189 67.2158 182.824 67.2158 183.421C67.2158 183.816 67.1571 184.232 67.0398 184.669C66.9331 185.107 66.7678 185.544 66.5438 185.981C66.3304 186.408 66.0531 186.819 65.7118 187.213C65.3704 187.597 64.9651 187.939 64.4958 188.237C64.0371 188.536 63.5144 188.776 62.9278 188.957C62.3518 189.128 61.7064 189.213 60.9918 189.213C59.9358 189.213 59.0291 189.027 58.2718 188.653C57.5144 188.269 56.8904 187.789 56.3998 187.213C55.9091 186.637 55.5464 186.013 55.3118 185.341C55.0878 184.659 54.9758 184.019 54.9758 183.421ZM56.5438 183.421C56.5438 184.168 56.6558 184.856 56.8798 185.485C57.1144 186.104 57.4291 186.637 57.8238 187.085C58.2291 187.533 58.7038 187.885 59.2478 188.141C59.7918 188.387 60.3838 188.509 61.0238 188.509C61.6531 188.509 62.2451 188.387 62.7998 188.141C63.3651 187.885 63.8558 187.533 64.2718 187.085C64.6984 186.637 65.0344 186.104 65.2798 185.485C65.5251 184.856 65.6478 184.168 65.6478 183.421C65.6478 182.675 65.5251 181.992 65.2798 181.373C65.0344 180.744 64.6984 180.205 64.2718 179.757C63.8558 179.309 63.3651 178.963 62.7998 178.717C62.2451 178.461 61.6531 178.333 61.0238 178.333C60.3838 178.333 59.7918 178.461 59.2478 178.717C58.7038 178.963 58.2291 179.309 57.8238 179.757C57.4291 180.205 57.1144 180.744 56.8798 181.373C56.6558 181.992 56.5438 182.675 56.5438 183.421ZM69.9395 189.021V177.821H71.3955V188.141H77.1715V189.021H69.9395ZM80.2045 177.821H81.6605V189.021H80.2045V177.821ZM84.7027 177.821H86.4307L90.2707 187.037H90.3347L94.0627 177.821H94.8947L90.3507 189.021H89.3907L84.7027 177.821ZM97.9389 177.821H99.3949V189.021H97.9389V177.821ZM110.101 185.725H104.581L103.173 189.021H102.437L107.173 177.821H107.973L113.189 189.021H111.637L110.101 185.725ZM109.765 185.005L107.253 179.613H107.189L104.885 185.005H109.765ZM121.19 177.821H124.822C125.536 177.821 126.128 177.923 126.598 178.125C127.067 178.317 127.435 178.563 127.702 178.861C127.979 179.149 128.171 179.464 128.278 179.805C128.395 180.147 128.454 180.461 128.454 180.749C128.454 181.069 128.4 181.4 128.294 181.741C128.187 182.072 128.016 182.381 127.782 182.669C127.547 182.957 127.243 183.197 126.87 183.389C126.507 183.581 126.07 183.693 125.558 183.725V183.789L125.718 183.869C125.846 183.933 125.952 184.013 126.038 184.109C126.134 184.205 126.251 184.36 126.39 184.573C126.539 184.787 126.736 185.091 126.982 185.485C127.227 185.869 127.574 186.387 128.022 187.037C128.171 187.261 128.315 187.464 128.454 187.645C128.592 187.816 128.736 187.965 128.886 188.093C129.035 188.211 129.195 188.301 129.366 188.365C129.536 188.429 129.734 188.461 129.958 188.461C130.011 188.461 130.064 188.461 130.118 188.461C130.171 188.451 130.224 188.44 130.278 188.429V189.021C130.128 189.107 129.979 189.16 129.83 189.181C129.68 189.203 129.488 189.213 129.254 189.213C128.934 189.213 128.656 189.171 128.422 189.085C128.198 189 127.995 188.888 127.814 188.749C127.632 188.6 127.462 188.424 127.302 188.221C127.152 188.019 126.998 187.795 126.838 187.549L125.574 185.677C125.382 185.379 125.216 185.128 125.078 184.925C124.939 184.723 124.79 184.557 124.63 184.429C124.47 184.301 124.288 184.211 124.086 184.157C123.894 184.104 123.648 184.077 123.35 184.077H122.646V189.021H121.19V177.821ZM122.646 178.525V183.357H124.294C124.72 183.357 125.094 183.283 125.414 183.133C125.744 182.984 126.022 182.792 126.246 182.557C126.47 182.312 126.635 182.045 126.742 181.757C126.859 181.459 126.918 181.165 126.918 180.877C126.918 180.536 126.854 180.221 126.726 179.933C126.608 179.645 126.432 179.4 126.198 179.197C125.963 178.984 125.68 178.819 125.35 178.701C125.03 178.584 124.667 178.525 124.262 178.525H122.646ZM134.13 183.453V189.021H132.674V177.821H134.13V182.717H140.834V177.821H142.29V189.021H140.834V183.453H134.13ZM144.687 177.821H146.335L149.599 183.725H149.663L153.087 177.821H153.951L150.015 184.637V189.021H148.559V184.781L144.687 177.821ZM156.346 177.821H163.578V178.701H157.802V182.717H162.762V183.453H157.802V188.141H163.578V189.021H156.346V177.821Z" fill="#FCFCFC"/>
<path d="M56.2398 216.853H58.1598V208.549L55.9518 209.845V208.501L58.6878 206.821H59.6318V216.853H61.5358V218.021H56.2398V216.853ZM67.9967 216.757C68.7647 216.203 69.5273 215.541 70.2847 214.773C71.0527 213.995 71.7033 213.168 72.2367 212.293C72.77 211.419 73.0367 210.592 73.0367 209.813C73.0367 209.216 72.866 208.747 72.5247 208.405C72.1833 208.053 71.7193 207.877 71.1327 207.877C70.5993 207.877 70.0927 208.005 69.6127 208.261C69.1433 208.517 68.77 208.859 68.4927 209.285L67.7087 208.405C68.0393 207.861 68.5087 207.435 69.1167 207.125C69.7353 206.816 70.4127 206.661 71.1487 206.661C72.194 206.661 73.0207 206.944 73.6287 207.509C74.2367 208.064 74.5407 208.816 74.5407 209.765C74.5407 210.896 74.0927 212.075 73.1967 213.301C72.3113 214.528 71.2233 215.712 69.9327 216.853H75.0367V218.021H67.9967V216.757ZM84.0575 218.181C83.2682 218.181 82.5589 218.037 81.9295 217.749C81.3109 217.451 80.8522 217.045 80.5535 216.533L81.2895 215.669C81.5669 216.064 81.9509 216.379 82.4415 216.613C82.9429 216.848 83.4655 216.965 84.0095 216.965C84.7135 216.965 85.2735 216.773 85.6895 216.389C86.1162 216.005 86.3295 215.509 86.3295 214.901C86.3295 214.229 86.0629 213.701 85.5295 213.317C85.0069 212.933 84.2869 212.741 83.3695 212.741H82.7935V211.573H83.3535C84.1322 211.573 84.7562 211.381 85.2255 210.997C85.6949 210.603 85.9295 210.096 85.9295 209.477C85.9295 208.965 85.7642 208.571 85.4335 208.293C85.1029 208.016 84.6389 207.877 84.0415 207.877C83.4975 207.877 82.9909 207.995 82.5215 208.229C82.0522 208.453 81.6735 208.768 81.3855 209.173L80.6655 208.309C81.0069 207.797 81.4869 207.397 82.1055 207.109C82.7349 206.811 83.4229 206.661 84.1695 206.661C85.1402 206.661 85.9189 206.907 86.5055 207.397C87.1029 207.877 87.4015 208.517 87.4015 209.317C87.4015 209.947 87.2095 210.512 86.8255 211.013C86.4522 211.504 85.9295 211.867 85.2575 212.101C86.0789 212.283 86.7082 212.624 87.1455 213.125C87.5935 213.616 87.8175 214.229 87.8175 214.965C87.8175 215.595 87.6629 216.155 87.3535 216.645C87.0442 217.125 86.6015 217.504 86.0255 217.781C85.4602 218.048 84.8042 218.181 84.0575 218.181ZM98.1664 216.101H93.0304V214.853L97.8464 206.821H99.6384V214.885H100.902V216.101H99.6384V218.021H98.1664V216.101ZM98.1664 214.885V208.533L94.3744 214.885H98.1664ZM115.318 216.853H117.238V208.549L115.03 209.845V208.501L117.766 206.821H118.71V216.853H120.614V218.021H115.318V216.853ZM127.075 216.757C127.843 216.203 128.605 215.541 129.363 214.773C130.131 213.995 130.781 213.168 131.315 212.293C131.848 211.419 132.115 210.592 132.115 209.813C132.115 209.216 131.944 208.747 131.603 208.405C131.261 208.053 130.797 207.877 130.211 207.877C129.677 207.877 129.171 208.005 128.691 208.261C128.221 208.517 127.848 208.859 127.571 209.285L126.787 208.405C127.117 207.861 127.587 207.435 128.195 207.125C128.813 206.816 129.491 206.661 130.227 206.661C131.272 206.661 132.099 206.944 132.707 207.509C133.315 208.064 133.619 208.816 133.619 209.765C133.619 210.896 133.171 212.075 132.275 213.301C131.389 214.528 130.301 215.712 129.011 216.853H134.115V218.021H127.075V216.757ZM143.136 218.181C142.346 218.181 141.637 218.037 141.008 217.749C140.389 217.451 139.93 217.045 139.632 216.533L140.368 215.669C140.645 216.064 141.029 216.379 141.52 216.613C142.021 216.848 142.544 216.965 143.088 216.965C143.792 216.965 144.352 216.773 144.768 216.389C145.194 216.005 145.408 215.509 145.408 214.901C145.408 214.229 145.141 213.701 144.608 213.317C144.085 212.933 143.365 212.741 142.448 212.741H141.872V211.573H142.432C143.21 211.573 143.834 211.381 144.304 210.997C144.773 210.603 145.008 210.096 145.008 209.477C145.008 208.965 144.842 208.571 144.512 208.293C144.181 208.016 143.717 207.877 143.12 207.877C142.576 207.877 142.069 207.995 141.6 208.229C141.13 208.453 140.752 208.768 140.464 209.173L139.744 208.309C140.085 207.797 140.565 207.397 141.184 207.109C141.813 206.811 142.501 206.661 143.248 206.661C144.218 206.661 144.997 206.907 145.584 207.397C146.181 207.877 146.48 208.517 146.48 209.317C146.48 209.947 146.288 210.512 145.904 211.013C145.53 211.504 145.008 211.867 144.336 212.101C145.157 212.283 145.786 212.624 146.224 213.125C146.672 213.616 146.896 214.229 146.896 214.965C146.896 215.595 146.741 216.155 146.432 216.645C146.122 217.125 145.68 217.504 145.104 217.781C144.538 218.048 143.882 218.181 143.136 218.181ZM157.245 216.101H152.109V214.853L156.925 206.821H158.717V214.885H159.981V216.101H158.717V218.021H157.245V216.101ZM157.245 214.885V208.533L153.453 214.885H157.245ZM174.396 216.853H176.316V208.549L174.108 209.845V208.501L176.844 206.821H177.788V216.853H179.692V218.021H174.396V216.853ZM186.153 216.757C186.921 216.203 187.684 215.541 188.441 214.773C189.209 213.995 189.86 213.168 190.393 212.293C190.926 211.419 191.193 210.592 191.193 209.813C191.193 209.216 191.022 208.747 190.681 208.405C190.34 208.053 189.876 207.877 189.289 207.877C188.756 207.877 188.249 208.005 187.769 208.261C187.3 208.517 186.926 208.859 186.649 209.285L185.865 208.405C186.196 207.861 186.665 207.435 187.273 207.125C187.892 206.816 188.569 206.661 189.305 206.661C190.35 206.661 191.177 206.944 191.785 207.509C192.393 208.064 192.697 208.816 192.697 209.765C192.697 210.896 192.249 212.075 191.353 213.301C190.468 214.528 189.38 215.712 188.089 216.853H193.193V218.021H186.153V216.757ZM202.214 218.181C201.424 218.181 200.715 218.037 200.086 217.749C199.467 217.451 199.008 217.045 198.71 216.533L199.446 215.669C199.723 216.064 200.107 216.379 200.598 216.613C201.099 216.848 201.622 216.965 202.166 216.965C202.87 216.965 203.43 216.773 203.846 216.389C204.272 216.005 204.486 215.509 204.486 214.901C204.486 214.229 204.219 213.701 203.686 213.317C203.163 212.933 202.443 212.741 201.526 212.741H200.95V211.573H201.51C202.288 211.573 202.912 211.381 203.382 210.997C203.851 210.603 204.086 210.096 204.086 209.477C204.086 208.965 203.92 208.571 203.59 208.293C203.259 208.016 202.795 207.877 202.198 207.877C201.654 207.877 201.147 207.995 200.678 208.229C200.208 208.453 199.83 208.768 199.542 209.173L198.822 208.309C199.163 207.797 199.643 207.397 200.262 207.109C200.891 206.811 201.579 206.661 202.326 206.661C203.296 206.661 204.075 206.907 204.662 207.397C205.259 207.877 205.558 208.517 205.558 209.317C205.558 209.947 205.366 210.512 204.982 211.013C204.608 211.504 204.086 211.867 203.414 212.101C204.235 212.283 204.864 212.624 205.302 213.125C205.75 213.616 205.974 214.229 205.974 214.965C205.974 215.595 205.819 216.155 205.51 216.645C205.2 217.125 204.758 217.504 204.182 217.781C203.616 218.048 202.96 218.181 202.214 218.181ZM216.323 216.101H211.187V214.853L216.003 206.821H217.795V214.885H219.059V216.101H217.795V218.021H216.323V216.101ZM216.323 214.885V208.533L212.531 214.885H216.323ZM233.474 216.853H235.394V208.549L233.186 209.845V208.501L235.922 206.821H236.866V216.853H238.77V218.021H233.474V216.853ZM245.231 216.757C245.999 216.203 246.762 215.541 247.519 214.773C248.287 213.995 248.938 213.168 249.471 212.293C250.004 211.419 250.271 210.592 250.271 209.813C250.271 209.216 250.1 208.747 249.759 208.405C249.418 208.053 248.954 207.877 248.367 207.877C247.834 207.877 247.327 208.005 246.847 208.261C246.378 208.517 246.004 208.859 245.727 209.285L244.943 208.405C245.274 207.861 245.743 207.435 246.351 207.125C246.97 206.816 247.647 206.661 248.383 206.661C249.428 206.661 250.255 206.944 250.863 207.509C251.471 208.064 251.775 208.816 251.775 209.765C251.775 210.896 251.327 212.075 250.431 213.301C249.546 214.528 248.458 215.712 247.167 216.853H252.271V218.021H245.231V216.757ZM261.292 218.181C260.503 218.181 259.793 218.037 259.164 217.749C258.545 217.451 258.087 217.045 257.788 216.533L258.524 215.669C258.801 216.064 259.185 216.379 259.676 216.613C260.177 216.848 260.7 216.965 261.244 216.965C261.948 216.965 262.508 216.773 262.924 216.389C263.351 216.005 263.564 215.509 263.564 214.901C263.564 214.229 263.297 213.701 262.764 213.317C262.241 212.933 261.521 212.741 260.604 212.741H260.028V211.573H260.588C261.367 211.573 261.991 211.381 262.46 210.997C262.929 210.603 263.164 210.096 263.164 209.477C263.164 208.965 262.999 208.571 262.668 208.293C262.337 208.016 261.873 207.877 261.276 207.877C260.732 207.877 260.225 207.995 259.756 208.229C259.287 208.453 258.908 208.768 258.62 209.173L257.9 208.309C258.241 207.797 258.721 207.397 259.34 207.109C259.969 206.811 260.657 206.661 261.404 206.661C262.375 206.661 263.153 206.907 263.74 207.397C264.337 207.877 264.636 208.517 264.636 209.317C264.636 209.947 264.444 210.512 264.06 211.013C263.687 211.504 263.164 211.867 262.492 212.101C263.313 212.283 263.943 212.624 264.38 213.125C264.828 213.616 265.052 214.229 265.052 214.965C265.052 215.595 264.897 216.155 264.588 216.645C264.279 217.125 263.836 217.504 263.26 217.781C262.695 218.048 262.039 218.181 261.292 218.181ZM275.401 216.101H270.265V214.853L275.081 206.821H276.873V214.885H278.137V216.101H276.873V218.021H275.401V216.101ZM275.401 214.885V208.533L271.609 214.885H275.401Z" fill="#FCFCFC"/>
<path d="M263.34 183.453C263.34 183.144 263.361 182.787 263.404 182.381C263.457 181.965 263.537 181.544 263.644 181.117C263.761 180.68 263.911 180.253 264.092 179.837C264.284 179.421 264.519 179.053 264.796 178.733C265.073 178.403 265.404 178.136 265.788 177.933C266.172 177.731 266.62 177.629 267.132 177.629C267.644 177.629 268.092 177.731 268.476 177.933C268.871 178.136 269.207 178.403 269.484 178.733C269.772 179.053 270.012 179.421 270.204 179.837C270.396 180.253 270.545 180.68 270.652 181.117C270.769 181.544 270.849 181.965 270.892 182.381C270.945 182.787 270.972 183.144 270.972 183.453C270.972 184.125 270.897 184.803 270.748 185.485C270.599 186.157 270.364 186.771 270.044 187.325C269.735 187.88 269.335 188.333 268.844 188.685C268.364 189.027 267.793 189.197 267.132 189.197C266.471 189.197 265.9 189.027 265.42 188.685C264.951 188.333 264.561 187.88 264.252 187.325C263.943 186.771 263.713 186.157 263.564 185.485C263.415 184.803 263.34 184.125 263.34 183.453ZM264.94 183.453C264.94 183.997 264.961 184.568 265.004 185.165C265.047 185.763 265.143 186.307 265.292 186.797C265.452 187.288 265.676 187.693 265.964 188.013C266.252 188.333 266.641 188.493 267.132 188.493C267.633 188.493 268.033 188.333 268.332 188.013C268.631 187.693 268.855 187.288 269.004 186.797C269.164 186.307 269.265 185.763 269.308 185.165C269.351 184.568 269.372 183.997 269.372 183.453C269.372 182.899 269.351 182.317 269.308 181.709C269.265 181.101 269.164 180.552 269.004 180.061C268.855 179.56 268.631 179.149 268.332 178.829C268.033 178.499 267.633 178.333 267.132 178.333C266.641 178.333 266.252 178.499 265.964 178.829C265.676 179.149 265.452 179.56 265.292 180.061C265.143 180.552 265.047 181.101 265.004 181.709C264.961 182.317 264.94 182.899 264.94 183.453ZM275.783 182.717C276.007 182.717 276.263 182.696 276.551 182.653C276.849 182.6 277.127 182.499 277.383 182.349C277.649 182.189 277.868 181.965 278.039 181.677C278.22 181.389 278.311 181.011 278.311 180.541C278.311 180.253 278.268 179.981 278.183 179.725C278.108 179.459 277.985 179.224 277.815 179.021C277.655 178.808 277.447 178.643 277.191 178.525C276.935 178.397 276.631 178.333 276.279 178.333C276.055 178.333 275.841 178.36 275.639 178.413C275.436 178.467 275.255 178.568 275.095 178.717C274.935 178.856 274.801 179.053 274.695 179.309C274.588 179.565 274.513 179.891 274.471 180.285H273.047C273.057 179.997 273.116 179.699 273.223 179.389C273.34 179.069 273.527 178.781 273.783 178.525C274.039 178.259 274.375 178.045 274.791 177.885C275.207 177.715 275.729 177.629 276.359 177.629C276.935 177.629 277.431 177.715 277.847 177.885C278.273 178.045 278.62 178.264 278.887 178.541C279.164 178.808 279.367 179.123 279.495 179.485C279.623 179.848 279.687 180.227 279.687 180.621C279.687 181.176 279.537 181.629 279.239 181.981C278.94 182.323 278.487 182.621 277.879 182.877L277.703 182.941V183.053L277.879 183.085C278.231 183.139 278.545 183.256 278.823 183.437C279.1 183.608 279.335 183.821 279.527 184.077C279.729 184.323 279.884 184.6 279.991 184.909C280.097 185.208 280.151 185.507 280.151 185.805C280.151 186.232 280.065 186.648 279.895 187.053C279.735 187.459 279.489 187.821 279.159 188.141C278.828 188.451 278.412 188.701 277.911 188.893C277.42 189.085 276.844 189.181 276.183 189.181C275.713 189.192 275.271 189.128 274.855 188.989C274.439 188.851 274.071 188.659 273.751 188.413C273.441 188.157 273.191 187.864 272.999 187.533C272.817 187.203 272.727 186.856 272.727 186.493H274.327C274.337 186.749 274.391 187 274.487 187.245C274.593 187.491 274.732 187.704 274.903 187.885C275.084 188.067 275.297 188.216 275.543 188.333C275.788 188.44 276.065 188.493 276.375 188.493C277.015 188.493 277.532 188.28 277.927 187.853C278.332 187.427 278.535 186.765 278.535 185.869C278.535 185.677 278.513 185.443 278.471 185.165C278.428 184.888 278.316 184.621 278.135 184.365C277.964 184.099 277.692 183.875 277.319 183.693C276.945 183.512 276.433 183.421 275.783 183.421V182.717ZM288.89 177.629L282.698 189.213H281.594L287.754 177.629H288.89ZM293.22 182.717C293.444 182.717 293.7 182.696 293.988 182.653C294.287 182.6 294.564 182.499 294.82 182.349C295.087 182.189 295.306 181.965 295.476 181.677C295.658 181.389 295.748 181.011 295.748 180.541C295.748 180.253 295.706 179.981 295.62 179.725C295.546 179.459 295.423 179.224 295.252 179.021C295.092 178.808 294.884 178.643 294.628 178.525C294.372 178.397 294.068 178.333 293.716 178.333C293.492 178.333 293.279 178.36 293.076 178.413C292.874 178.467 292.692 178.568 292.532 178.717C292.372 178.856 292.239 179.053 292.132 179.309C292.026 179.565 291.951 179.891 291.908 180.285H290.484C290.495 179.997 290.554 179.699 290.66 179.389C290.778 179.069 290.964 178.781 291.22 178.525C291.476 178.259 291.812 178.045 292.228 177.885C292.644 177.715 293.167 177.629 293.796 177.629C294.372 177.629 294.868 177.715 295.284 177.885C295.711 178.045 296.058 178.264 296.324 178.541C296.602 178.808 296.804 179.123 296.932 179.485C297.06 179.848 297.124 180.227 297.124 180.621C297.124 181.176 296.975 181.629 296.676 181.981C296.378 182.323 295.924 182.621 295.316 182.877L295.14 182.941V183.053L295.316 183.085C295.668 183.139 295.983 183.256 296.26 183.437C296.538 183.608 296.772 183.821 296.964 184.077C297.167 184.323 297.322 184.6 297.428 184.909C297.535 185.208 297.588 185.507 297.588 185.805C297.588 186.232 297.503 186.648 297.332 187.053C297.172 187.459 296.927 187.821 296.596 188.141C296.266 188.451 295.85 188.701 295.348 188.893C294.858 189.085 294.282 189.181 293.62 189.181C293.151 189.192 292.708 189.128 292.292 188.989C291.876 188.851 291.508 188.659 291.188 188.413C290.879 188.157 290.628 187.864 290.436 187.533C290.255 187.203 290.164 186.856 290.164 186.493H291.764C291.775 186.749 291.828 187 291.924 187.245C292.031 187.491 292.17 187.704 292.34 187.885C292.522 188.067 292.735 188.216 292.98 188.333C293.226 188.44 293.503 188.493 293.812 188.493C294.452 188.493 294.97 188.28 295.364 187.853C295.77 187.427 295.972 186.765 295.972 185.869C295.972 185.677 295.951 185.443 295.908 185.165C295.866 184.888 295.754 184.621 295.572 184.365C295.402 184.099 295.13 183.875 294.756 183.693C294.383 183.512 293.871 183.421 293.22 183.421V182.717ZM299.512 183.453C299.512 183.144 299.533 182.787 299.576 182.381C299.629 181.965 299.709 181.544 299.816 181.117C299.933 180.68 300.082 180.253 300.264 179.837C300.456 179.421 300.69 179.053 300.968 178.733C301.245 178.403 301.576 178.136 301.96 177.933C302.344 177.731 302.792 177.629 303.304 177.629C303.816 177.629 304.264 177.731 304.648 177.933C305.042 178.136 305.378 178.403 305.656 178.733C305.944 179.053 306.184 179.421 306.376 179.837C306.568 180.253 306.717 180.68 306.824 181.117C306.941 181.544 307.021 181.965 307.064 182.381C307.117 182.787 307.144 183.144 307.144 183.453C307.144 184.125 307.069 184.803 306.92 185.485C306.77 186.157 306.536 186.771 306.216 187.325C305.906 187.88 305.506 188.333 305.016 188.685C304.536 189.027 303.965 189.197 303.304 189.197C302.642 189.197 302.072 189.027 301.592 188.685C301.122 188.333 300.733 187.88 300.424 187.325C300.114 186.771 299.885 186.157 299.736 185.485C299.586 184.803 299.512 184.125 299.512 183.453ZM301.112 183.453C301.112 183.997 301.133 184.568 301.176 185.165C301.218 185.763 301.314 186.307 301.464 186.797C301.624 187.288 301.848 187.693 302.136 188.013C302.424 188.333 302.813 188.493 303.304 188.493C303.805 188.493 304.205 188.333 304.504 188.013C304.802 187.693 305.026 187.288 305.176 186.797C305.336 186.307 305.437 185.763 305.48 185.165C305.522 184.568 305.544 183.997 305.544 183.453C305.544 182.899 305.522 182.317 305.48 181.709C305.437 181.101 305.336 180.552 305.176 180.061C305.026 179.56 304.802 179.149 304.504 178.829C304.205 178.499 303.805 178.333 303.304 178.333C302.813 178.333 302.424 178.499 302.136 178.829C301.848 179.149 301.624 179.56 301.464 180.061C301.314 180.552 301.218 181.101 301.176 181.709C301.133 182.317 301.112 182.899 301.112 183.453Z" fill="#FCFCFC"/>
<path fill-rule="evenodd" clip-rule="evenodd" d="M282.156 111.199C279.394 113.583 275.811 115.021 271.896 115.021C263.161 115.021 256.08 107.858 256.08 99.0215C256.08 90.1849 263.161 83.0215 271.896 83.0215C275.811 83.0215 279.394 84.4603 282.156 86.8436C284.918 84.4603 288.5 83.0215 292.415 83.0215C301.15 83.0215 308.231 90.1849 308.231 99.0215C308.231 107.858 301.15 115.021 292.415 115.021C288.5 115.021 284.918 113.583 282.156 111.199Z" fill="#ED0006"/>
<path fill-rule="evenodd" clip-rule="evenodd" d="M282.155 111.199C285.556 108.265 287.712 103.898 287.712 99.0215C287.712 94.1452 285.556 89.7783 282.155 86.8436C284.917 84.4603 288.5 83.0215 292.415 83.0215C301.15 83.0215 308.231 90.1849 308.231 99.0215C308.231 107.858 301.15 115.021 292.415 115.021C288.5 115.021 284.917 113.583 282.155 111.199Z" fill="#F9A000"/>
<path fill-rule="evenodd" clip-rule="evenodd" d="M282.156 111.199C285.556 108.265 287.713 103.898 287.713 99.0215C287.713 94.1452 285.556 89.7784 282.156 86.8438C278.755 89.7784 276.599 94.1452 276.599 99.0215C276.599 103.898 278.755 108.265 282.156 111.199Z" fill="#FF5E00"/>
<g clip-path="url(#clip0_106_6071)">
<path d="M60.4261 96.4375C59.2803 96.4375 58.3428 97.375 58.3428 98.5208C58.3428 99.6667 59.2803 100.604 60.4261 100.604C61.5719 100.604 62.5094 99.6667 62.5094 98.5208C62.5094 97.375 61.5719 96.4375 60.4261 96.4375ZM72.9261 96.4375C71.7803 96.4375 70.8428 97.375 70.8428 98.5208C70.8428 99.6667 71.7803 100.604 72.9261 100.604C74.0719 100.604 75.0094 99.6667 75.0094 98.5208C75.0094 97.375 74.0719 96.4375 72.9261 96.4375ZM66.6761 96.4375C65.5303 96.4375 64.5928 97.375 64.5928 98.5208C64.5928 99.6667 65.5303 100.604 66.6761 100.604C67.8219 100.604 68.7594 99.6667 68.7594 98.5208C68.7594 97.375 67.8219 96.4375 66.6761 96.4375Z" fill="#FCFCFC"/>
</g>
<g filter="url(#filter0_bd_106_6071)">
<g clip-path="url(#clip1_106_6071)">
<rect x="34.1709" y="178.326" width="275.467" height="165.629" rx="17.4346" transform="rotate(-30 34.1709 178.326)" fill="url(#paint1_linear_106_6071)"/>
<g filter="url(#filter1_f_106_6071)">
<path opacity="0.3" d="M49.9875 233.618C30.7297 200.263 42.1581 157.611 75.5136 138.353V138.353L110.383 198.749L49.9875 233.618V233.618Z" fill="#EE46BC"/>
<path opacity="0.3" d="M75.5137 138.354V138.354C108.869 119.096 151.521 130.524 170.778 163.88V163.88L110.383 198.749L75.5137 138.354Z" fill="#EF6820"/>
<path opacity="0.3" d="M49.9883 233.617L110.384 198.748L145.253 259.143V259.143C111.898 278.401 69.2461 266.973 49.9883 233.617V233.617Z" fill="#2E90FA"/>
<path opacity="0.3" d="M110.383 198.748L170.778 163.879V163.879C190.036 197.234 178.608 239.886 145.252 259.143V259.143L110.383 198.748Z" fill="#12B76A"/>
</g>
<path d="M122.363 297.731L118.144 290.423L117.083 292.364L116.27 290.957L117.342 289.034L118.629 288.291L123.65 296.988L122.363 297.731ZM127.51 294.751L126.868 293.624L128.695 288.044C128.845 287.597 128.904 287.22 128.87 286.911C128.841 286.601 128.756 286.323 128.614 286.077C128.435 285.767 128.206 285.529 127.928 285.362C127.647 285.191 127.343 285.103 127.018 285.098C126.693 285.092 126.373 285.18 126.059 285.362C125.737 285.548 125.493 285.79 125.328 286.09C125.164 286.383 125.084 286.695 125.087 287.026C125.091 287.357 125.178 287.666 125.349 287.954L124.057 288.7C123.731 288.136 123.574 287.57 123.583 287.001C123.594 286.425 123.755 285.89 124.065 285.394C124.372 284.894 124.814 284.478 125.389 284.146C125.937 283.83 126.5 283.671 127.079 283.67C127.656 283.664 128.193 283.805 128.692 284.091C129.194 284.376 129.605 284.794 129.923 285.345C130.153 285.744 130.296 286.112 130.352 286.451C130.408 286.789 130.399 287.137 130.327 287.496C130.255 287.854 130.142 288.263 129.988 288.722L128.572 293.019L128.223 292.737L132.699 290.153L133.393 291.355L127.51 294.751ZM139.185 288.236C138.754 288.485 138.303 288.638 137.831 288.696C137.357 288.749 136.894 288.705 136.442 288.563C135.994 288.419 135.589 288.178 135.227 287.84L136.252 286.797C136.585 287.104 136.954 287.274 137.36 287.308C137.764 287.338 138.142 287.249 138.494 287.04C138.81 286.853 139.047 286.617 139.205 286.332C139.362 286.048 139.439 285.743 139.434 285.419C139.427 285.09 139.33 284.765 139.144 284.442C138.865 283.959 138.484 283.648 138.001 283.508C137.522 283.366 137.04 283.435 136.557 283.714C136.42 283.793 136.291 283.894 136.169 284.018C136.052 284.14 135.949 284.269 135.861 284.405L134.694 283.75L136.197 279.267L136.539 279.553L132.311 281.994L131.617 280.792L136.847 277.772L137.541 278.974L136.408 282.898L136.159 282.494C136.707 282.178 137.253 282.026 137.797 282.039C138.339 282.049 138.84 282.2 139.299 282.493C139.76 282.78 140.139 283.181 140.437 283.696C140.758 284.252 140.911 284.821 140.898 285.403C140.89 285.982 140.737 286.522 140.439 287.021C140.146 287.517 139.728 287.922 139.185 288.236ZM149.065 282.314L148.19 280.798L144.264 283.065L143.574 281.869L142.945 274.252L144.388 273.419L145.017 281.036L147.499 279.603L146.139 277.247L147.42 276.508L148.78 278.863L149.643 278.365L150.334 279.561L149.47 280.059L150.345 281.575L149.065 282.314ZM160.217 275.876L155.998 268.568L154.936 270.51L154.124 269.102L155.196 267.179L156.482 266.436L161.503 275.133L160.217 275.876ZM165.363 272.896L164.721 271.77L166.548 266.189C166.698 265.743 166.757 265.365 166.724 265.057C166.695 264.746 166.609 264.468 166.467 264.222C166.288 263.912 166.06 263.674 165.781 263.507C165.5 263.337 165.197 263.249 164.872 263.243C164.546 263.238 164.227 263.326 163.913 263.507C163.59 263.693 163.347 263.936 163.181 264.235C163.018 264.528 162.938 264.84 162.941 265.171C162.944 265.502 163.031 265.812 163.203 266.099L161.91 266.845C161.585 266.282 161.427 265.715 161.436 265.146C161.448 264.571 161.608 264.035 161.918 263.539C162.225 263.04 162.667 262.624 163.243 262.291C163.79 261.975 164.354 261.816 164.933 261.815C165.509 261.809 166.047 261.95 166.545 262.237C167.048 262.521 167.458 262.939 167.776 263.491C168.007 263.889 168.15 264.258 168.205 264.596C168.261 264.934 168.253 265.283 168.18 265.641C168.108 266 167.995 266.408 167.842 266.867L166.425 271.164L166.077 270.882L170.552 268.298L171.246 269.5L165.363 272.896ZM177.038 266.382C176.607 266.63 176.156 266.783 175.684 266.841C175.211 266.894 174.748 266.85 174.295 266.709C173.847 266.565 173.442 266.324 173.08 265.985L174.105 264.942C174.438 265.249 174.808 265.42 175.214 265.454C175.618 265.484 175.995 265.394 176.347 265.186C176.663 264.998 176.9 264.762 177.058 264.478C177.216 264.193 177.292 263.889 177.287 263.564C177.28 263.235 177.184 262.91 176.998 262.588C176.719 262.105 176.337 261.793 175.854 261.654C175.375 261.512 174.894 261.58 174.411 261.859C174.274 261.938 174.144 262.039 174.023 262.163C173.905 262.285 173.802 262.414 173.715 262.551L172.547 261.896L174.05 257.413L174.392 257.698L170.164 260.139L169.47 258.937L174.701 255.918L175.395 257.12L174.262 261.043L174.012 260.639C174.56 260.323 175.106 260.172 175.65 260.185C176.193 260.194 176.693 260.345 177.152 260.638C177.613 260.925 177.992 261.326 178.29 261.842C178.611 262.397 178.765 262.966 178.752 263.548C178.743 264.128 178.59 264.667 178.293 265.166C178 265.663 177.581 266.068 177.038 266.382ZM186.918 260.46L186.043 258.944L182.117 261.21L181.427 260.015L180.798 252.397L182.241 251.564L182.87 259.181L185.353 257.748L183.993 255.393L185.273 254.653L186.633 257.009L187.497 256.51L188.187 257.706L187.323 258.205L188.199 259.721L186.918 260.46ZM198.07 254.021L193.851 246.713L192.789 248.655L191.977 247.248L193.049 245.324L194.335 244.582L199.356 253.279L198.07 254.021ZM203.217 251.042L202.574 249.915L204.401 244.334C204.552 243.888 204.61 243.511 204.577 243.202C204.548 242.892 204.463 242.613 204.321 242.368C204.142 242.058 203.913 241.819 203.634 241.653C203.353 241.482 203.05 241.394 202.725 241.389C202.4 241.383 202.08 241.471 201.766 241.653C201.444 241.838 201.2 242.081 201.035 242.381C200.871 242.674 200.791 242.986 200.794 243.317C200.797 243.648 200.885 243.957 201.056 244.245L199.763 244.991C199.438 244.427 199.28 243.861 199.29 243.291C199.301 242.716 199.461 242.18 199.771 241.685C200.079 241.185 200.52 240.769 201.096 240.437C201.644 240.121 202.207 239.962 202.786 239.96C203.363 239.955 203.9 240.096 204.398 240.382C204.901 240.667 205.311 241.085 205.63 241.636C205.86 242.035 206.003 242.403 206.059 242.741C206.114 243.08 206.106 243.428 206.034 243.787C205.962 244.145 205.849 244.554 205.695 245.013L204.278 249.31L203.93 249.027L208.405 246.444L209.099 247.646L203.217 251.042ZM214.891 244.527C214.46 244.776 214.009 244.929 213.538 244.986C213.064 245.04 212.601 244.996 212.149 244.854C211.701 244.71 211.296 244.469 210.934 244.13L211.958 243.088C212.291 243.395 212.661 243.565 213.067 243.599C213.471 243.629 213.849 243.54 214.201 243.331C214.516 243.144 214.753 242.907 214.911 242.623C215.069 242.339 215.146 242.034 215.141 241.709C215.133 241.381 215.037 241.055 214.851 240.733C214.572 240.25 214.191 239.939 213.707 239.799C213.228 239.657 212.747 239.725 212.264 240.004C212.127 240.083 211.998 240.185 211.876 240.309C211.758 240.43 211.656 240.56 211.568 240.696L210.401 240.041L211.903 235.558L212.245 235.844L208.018 238.285L207.324 237.083L212.554 234.063L213.248 235.265L212.115 239.188L211.866 238.785C212.413 238.469 212.959 238.317 213.504 238.33C214.046 238.339 214.546 238.491 215.006 238.784C215.467 239.071 215.846 239.472 216.143 239.987C216.464 240.543 216.618 241.112 216.605 241.693C216.596 242.273 216.443 242.812 216.146 243.311C215.853 243.808 215.435 244.213 214.891 244.527ZM224.771 238.605L223.896 237.089L219.971 239.356L219.28 238.16L218.651 230.543L220.095 229.71L220.724 237.327L223.206 235.893L221.846 233.538L223.126 232.799L224.486 235.154L225.35 234.656L226.04 235.851L225.177 236.35L226.052 237.866L224.771 238.605ZM235.923 232.167L231.704 224.859L230.643 226.8L229.83 225.393L230.902 223.47L232.189 222.727L237.21 231.424L235.923 232.167ZM241.07 229.187L240.427 228.06L242.255 222.48C242.405 222.033 242.463 221.656 242.43 221.348C242.401 221.037 242.316 220.759 242.174 220.513C241.995 220.203 241.766 219.965 241.488 219.798C241.206 219.628 240.903 219.54 240.578 219.534C240.253 219.529 239.933 219.617 239.619 219.798C239.297 219.984 239.053 220.227 238.888 220.526C238.724 220.819 238.644 221.131 238.647 221.462C238.651 221.793 238.738 222.102 238.909 222.39L237.617 223.136C237.291 222.573 237.133 222.006 237.143 221.437C237.154 220.861 237.315 220.326 237.625 219.83C237.932 219.331 238.374 218.915 238.949 218.582C239.497 218.266 240.06 218.107 240.639 218.106C241.216 218.1 241.753 218.241 242.252 218.528C242.754 218.812 243.165 219.23 243.483 219.782C243.713 220.18 243.856 220.549 243.912 220.887C243.967 221.225 243.959 221.573 243.887 221.932C243.815 222.29 243.702 222.699 243.548 223.158L242.131 227.455L241.783 227.173L246.259 224.589L246.953 225.791L241.07 229.187ZM252.744 222.672C252.314 222.921 251.862 223.074 251.391 223.132C250.917 223.185 250.454 223.141 250.002 223C249.554 222.856 249.149 222.614 248.787 222.276L249.812 221.233C250.145 221.54 250.514 221.711 250.92 221.745C251.324 221.775 251.702 221.685 252.054 221.477C252.37 221.289 252.607 221.053 252.764 220.768C252.922 220.484 252.999 220.18 252.994 219.855C252.987 219.526 252.89 219.201 252.704 218.879C252.425 218.396 252.044 218.084 251.561 217.944C251.081 217.802 250.6 217.871 250.117 218.15C249.98 218.229 249.851 218.33 249.729 218.454C249.612 218.576 249.509 218.705 249.421 218.841L248.254 218.187L249.757 213.703L250.099 213.989L245.871 216.43L245.177 215.228L250.407 212.208L251.101 213.41L249.968 217.334L249.719 216.93C250.267 216.614 250.813 216.462 251.357 216.476C251.899 216.485 252.4 216.636 252.859 216.929C253.32 217.216 253.699 217.617 253.997 218.132C254.317 218.688 254.471 219.257 254.458 219.839C254.449 220.418 254.296 220.958 253.999 221.457C253.706 221.953 253.288 222.359 252.744 222.672ZM262.625 216.751L261.75 215.235L257.824 217.501L257.133 216.305L256.504 208.688L257.948 207.855L258.577 215.472L261.059 214.039L259.699 211.683L260.98 210.944L262.339 213.3L263.203 212.801L263.894 213.997L263.03 214.495L263.905 216.011L262.625 216.751Z" fill="white"/>
<path d="M110.976 275.709C110.324 276.085 109.686 276.264 109.063 276.245C108.439 276.223 107.857 276.028 107.317 275.659C106.781 275.288 106.319 274.766 105.93 274.092C105.541 273.419 105.32 272.757 105.267 272.108C105.217 271.456 105.34 270.856 105.635 270.307C105.928 269.755 106.401 269.291 107.053 268.914C107.702 268.539 108.339 268.363 108.964 268.385C109.59 268.402 110.171 268.596 110.707 268.967C111.243 269.338 111.706 269.86 112.095 270.533C112.484 271.207 112.704 271.868 112.757 272.518C112.811 273.168 112.689 273.769 112.393 274.323C112.097 274.872 111.625 275.334 110.976 275.709ZM110.456 274.807C110.921 274.547 111.246 274.224 111.431 273.84C111.617 273.45 111.679 273.024 111.617 272.561C111.553 272.094 111.377 271.612 111.089 271.114C110.801 270.615 110.473 270.225 110.105 269.943C109.735 269.657 109.335 269.499 108.907 269.468C108.482 269.436 108.037 269.552 107.574 269.816C107.108 270.076 106.781 270.4 106.594 270.786C106.409 271.17 106.349 271.596 106.413 272.062C106.476 272.529 106.651 273.012 106.935 273.512C107.22 274.012 107.548 274.405 107.918 274.69C108.286 274.973 108.685 275.129 109.113 275.16C109.544 275.188 109.992 275.071 110.456 274.807ZM115.425 272.959L111.659 266.436L112.606 265.89L115.856 271.52L118.81 269.815L119.325 270.707L115.425 272.959ZM120.637 269.949L116.871 263.427L117.818 262.88L121.584 269.403L120.637 269.949ZM124.928 267.472L119.043 262.173L120.025 261.606L125.047 266.129L123.663 259.506L124.646 258.938L126.292 266.685L124.928 267.472ZM129.638 264.753L125.872 258.23L126.819 257.684L130.585 264.206L129.638 264.753ZM131.945 263.421L130.299 255.674L131.663 254.887L137.548 260.186L136.565 260.753L131.177 255.929L131.421 255.787L132.928 262.853L131.945 263.421ZM132.196 261.313L131.683 260.425L135.09 258.459L135.602 259.347L132.196 261.313ZM141.081 258.147L137.315 251.624L139.951 250.102C140.014 250.065 140.095 250.023 140.192 249.975C140.287 249.924 140.381 249.881 140.475 249.848C140.87 249.696 141.244 249.645 141.595 249.696C141.95 249.745 142.271 249.88 142.559 250.1C142.847 250.32 143.092 250.605 143.295 250.956C143.594 251.475 143.721 252 143.673 252.531C143.623 253.059 143.36 253.523 142.882 253.924L142.523 254.191L140.675 255.258L142.027 257.6L141.081 258.147ZM144.895 255.945L142.076 254.033L142.89 253.236L145.977 255.32L144.895 255.945ZM140.157 254.361L141.811 253.407C141.871 253.372 141.936 253.33 142.005 253.283C142.077 253.233 142.142 253.181 142.199 253.128C142.367 252.971 142.474 252.798 142.522 252.609C142.568 252.418 142.571 252.227 142.53 252.037C142.489 251.848 142.422 251.673 142.33 251.513C142.237 251.353 142.12 251.209 141.978 251.081C141.834 250.951 141.669 250.859 141.481 250.807C141.292 250.751 141.088 250.756 140.868 250.822C140.791 250.843 140.713 250.872 140.634 250.909C140.559 250.945 140.49 250.98 140.43 251.015L138.777 251.97L140.157 254.361ZM147.426 254.483L143.66 247.961L144.606 247.414L146.231 250.227L149.492 248.344L147.868 245.531L148.819 244.982L152.585 251.505L151.634 252.054L150.007 249.236L146.746 251.119L148.372 253.937L147.426 254.483ZM155.882 249.601L154.326 246.906L149.91 244.352L151.016 243.714L154.179 245.541L154.177 241.888L155.283 241.25L155.286 246.351L156.842 249.046L155.882 249.601ZM160.133 247.146L156.368 240.624L160.535 238.218L161.05 239.11L157.829 240.969L158.886 242.799L161.563 241.254L162.078 242.146L159.401 243.692L160.565 245.707L163.786 243.848L164.301 244.74L160.133 247.146Z" fill="white"/>
<path d="M280.337 177.929C279.893 178.186 279.444 178.316 278.991 178.319C278.537 178.32 278.113 178.206 277.72 177.978C277.329 177.749 277.006 177.412 276.75 176.968L275.453 174.721C275.196 174.278 275.066 173.829 275.063 173.376C275.062 172.922 275.176 172.499 275.406 172.109C275.634 171.716 275.97 171.391 276.414 171.135C276.858 170.878 277.307 170.75 277.761 170.749C278.214 170.745 278.636 170.858 279.026 171.088C279.419 171.316 279.744 171.652 280 172.096L281.298 174.342C281.554 174.786 281.682 175.236 281.683 175.69C281.687 176.143 281.575 176.566 281.347 176.959C281.117 177.35 280.78 177.673 280.337 177.929ZM279.814 177.023C280.055 176.884 280.241 176.7 280.371 176.472C280.502 176.239 280.57 175.991 280.575 175.726C280.577 175.459 280.508 175.203 280.367 174.958L278.996 172.585C278.857 172.343 278.672 172.158 278.441 172.03C278.208 171.899 277.959 171.833 277.693 171.834C277.429 171.829 277.176 171.897 276.934 172.036C276.693 172.176 276.506 172.362 276.375 172.595C276.245 172.823 276.178 173.07 276.176 173.338C276.171 173.602 276.239 173.855 276.378 174.096L277.749 176.47C277.89 176.715 278.077 176.903 278.31 177.034C278.541 177.162 278.789 177.229 279.053 177.233C279.318 177.233 279.572 177.163 279.814 177.023ZM286.57 174.33C286.148 174.574 285.709 174.694 285.256 174.69C284.801 174.683 284.373 174.562 283.971 174.327C283.573 174.09 283.245 173.748 282.986 173.301L281.786 171.222C281.512 170.748 281.37 170.274 281.359 169.802C281.351 169.327 281.464 168.889 281.699 168.488C281.938 168.084 282.286 167.75 282.745 167.485C283.089 167.287 283.45 167.165 283.827 167.12C284.204 167.076 284.577 167.118 284.945 167.248L284.626 168.296C284.41 168.207 284.181 168.17 283.94 168.185C283.7 168.194 283.474 168.26 283.263 168.382C282.991 168.539 282.79 168.742 282.66 168.99C282.528 169.236 282.463 169.496 282.465 169.773C282.471 170.047 282.543 170.304 282.68 170.543L283.371 171.738L283.065 171.637C283.111 171.285 283.232 170.957 283.428 170.655C283.623 170.352 283.88 170.11 284.197 169.927C284.602 169.693 285.017 169.58 285.444 169.587C285.873 169.589 286.27 169.7 286.638 169.918C287.009 170.135 287.311 170.446 287.545 170.85C287.78 171.258 287.891 171.687 287.877 172.138C287.865 172.584 287.745 173.004 287.517 173.397C287.291 173.785 286.975 174.097 286.57 174.33ZM286.045 173.42C286.28 173.284 286.461 173.103 286.588 172.876C286.715 172.65 286.781 172.407 286.784 172.147C286.787 171.888 286.72 171.64 286.584 171.405C286.449 171.169 286.267 170.988 286.041 170.861C285.818 170.732 285.576 170.666 285.317 170.663C285.057 170.66 284.81 170.726 284.574 170.862C284.339 170.998 284.156 171.18 284.026 171.408C283.899 171.635 283.834 171.878 283.831 172.137C283.827 172.397 283.894 172.644 284.03 172.88C284.164 173.112 284.344 173.292 284.571 173.419C284.797 173.546 285.041 173.613 285.302 173.619C285.562 173.622 285.809 173.556 286.045 173.42ZM288.212 164.504L289.168 163.952L291.194 171.479L290.239 172.031L288.212 164.504ZM294.385 169.631L293.903 168.786L295.273 164.601C295.386 164.266 295.43 163.983 295.405 163.751C295.383 163.518 295.319 163.31 295.213 163.126C295.079 162.893 294.907 162.714 294.698 162.589C294.487 162.461 294.26 162.395 294.016 162.391C293.772 162.387 293.532 162.453 293.297 162.589C293.055 162.729 292.872 162.911 292.748 163.135C292.626 163.355 292.566 163.589 292.568 163.837C292.57 164.086 292.636 164.318 292.764 164.533L291.795 165.093C291.551 164.67 291.432 164.245 291.44 163.818C291.448 163.387 291.569 162.985 291.801 162.613C292.031 162.239 292.363 161.927 292.794 161.677C293.205 161.44 293.628 161.321 294.062 161.32C294.494 161.316 294.897 161.421 295.271 161.636C295.648 161.85 295.956 162.163 296.195 162.577C296.367 162.876 296.475 163.152 296.516 163.406C296.558 163.66 296.552 163.921 296.498 164.19C296.444 164.459 296.359 164.765 296.244 165.109L295.181 168.332L294.92 168.12L298.276 166.183L298.797 167.084L294.385 169.631ZM302.925 164.707L302.268 163.57L299.324 165.27L298.806 164.373L298.335 158.66L299.417 158.035L299.889 163.748L301.751 162.673L300.731 160.906L301.691 160.352L302.711 162.118L303.359 161.744L303.877 162.641L303.229 163.015L303.885 164.152L302.925 164.707Z" fill="white"/>
<path d="M61.4351 185.005C60.4428 185.578 60.0996 186.859 60.6725 187.851C61.2454 188.843 62.5261 189.187 63.5184 188.614C64.5107 188.041 64.8539 186.76 64.281 185.768C63.708 184.775 62.4274 184.432 61.4351 185.005ZM72.2604 178.755C71.2681 179.328 70.9249 180.609 71.4978 181.601C72.0708 182.593 73.3514 182.937 74.3437 182.364C75.3361 181.791 75.6792 180.51 75.1063 179.518C74.5334 178.525 73.2527 178.182 72.2604 178.755ZM66.8477 181.88C65.8554 182.453 65.5123 183.734 66.0852 184.726C66.6581 185.718 67.9388 186.062 68.9311 185.489C69.9234 184.916 70.2665 183.635 69.6936 182.643C69.1207 181.65 67.8401 181.307 66.8477 181.88Z" fill="#FCFCFC"/>
<rect x="200.771" y="81.7031" width="63.7425" height="44.9947" rx="3.48693" transform="rotate(-30 200.771 81.7031)" fill="white" fill-opacity="0.1"/>
<path opacity="0.5" fill-rule="evenodd" clip-rule="evenodd" d="M244.438 92.9223C243.451 95.652 241.522 98.0694 238.798 99.6423C232.718 103.153 224.977 101.128 221.508 95.1203C218.039 89.1125 220.157 81.3964 226.237 77.886C228.962 76.3126 232.021 75.8512 234.879 76.3619C235.866 73.6322 237.795 71.2148 240.519 69.6418C246.599 66.1314 254.34 68.156 257.809 74.1638C261.277 80.1717 259.16 87.8877 253.08 91.3981C250.355 92.9715 247.296 93.433 244.438 92.9223Z" fill="white"/>
<path opacity="0.5" fill-rule="evenodd" clip-rule="evenodd" d="M253.08 91.3965C259.16 87.8861 261.277 80.17 257.809 74.1622C254.34 68.1543 246.599 66.1298 240.519 69.6402C237.794 71.2137 235.865 73.6322 234.878 76.3632C238.397 76.9916 241.613 79.094 243.527 82.4097C245.441 85.7245 245.654 89.5594 244.44 92.9209C247.297 93.4311 250.356 92.9695 253.08 91.3965Z" fill="white"/>
<path fill-rule="evenodd" clip-rule="evenodd" d="M244.439 92.9238C245.655 89.5616 245.442 85.7257 243.527 82.41C241.613 79.0951 238.399 76.9929 234.881 76.364C233.665 79.7261 233.878 83.5621 235.792 86.8778C237.706 90.1927 240.921 92.2949 244.439 92.9238Z" fill="white"/>
</g>
<rect x="34.7663" y="178.486" width="274.596" height="164.757" rx="16.9988" transform="rotate(-30 34.7663 178.486)" stroke="url(#paint2_linear_106_6071)" stroke-width="0.871732"/>
</g>
<defs>
<filter id="filter0_bd_106_6071" x="23.7101" y="30.131" width="352.758" height="314.3" filterUnits="userSpaceOnUse" color-interpolation-filters="sRGB">
<feFlood flood-opacity="0" result="BackgroundImageFix"/>
<feGaussianBlur in="BackgroundImageFix" stdDeviation="5.23039"/>
<feComposite in2="SourceAlpha" operator="in" result="effect1_backgroundBlur_106_6071"/>
<feColorMatrix in="SourceAlpha" type="matrix" values="0 0 0 0 0 0 0 0 0 0 0 0 0 0 0 0 0 0 127 0" result="hardAlpha"/>
<feOffset dx="6.97386" dy="8.71732"/>
<feGaussianBlur stdDeviation="6.97386"/>
<feColorMatrix type="matrix" values="0 0 0 0 0 0 0 0 0 0 0 0 0 0 0 0 0 0 0.05 0"/>
<feBlend mode="normal" in2="effect1_backgroundBlur_106_6071" result="effect2_dropShadow_106_6071"/>
<feBlend mode="normal" in="SourceGraphic" in2="effect2_dropShadow_106_6071" result="shape"/>
</filter>
<filter id="filter1_f_106_6071" x="-96.4636" y="-8.09933" width="413.693" height="413.693" filterUnits="userSpaceOnUse" color-interpolation-filters="sRGB">
<feFlood flood-opacity="0" result="BackgroundImageFix"/>
<feBlend mode="normal" in="SourceGraphic" in2="BackgroundImageFix" result="shape"/>
<feGaussianBlur stdDeviation="55.7909" result="effect1_foregroundBlur_106_6071"/>
</filter>
<linearGradient id="paint0_linear_106_6071" x1="41.1758" y1="152.336" x2="319.588" y2="152.336" gradientUnits="userSpaceOnUse">
<stop stop-color="#EA742F"/>
<stop offset="0.12" stop-color="#EC7D33"/>
<stop offset="0.265" stop-color="#EE8537"/>
<stop offset="0.415" stop-color="#F2973F"/>
<stop offset="0.58" stop-color="#F5A244"/>
<stop offset="0.73" stop-color="#F7AE49"/>
<stop offset="0.87" stop-color="#FABA4F"/>
<stop offset="0.995" stop-color="#FFD159"/>
</linearGradient>
<linearGradient id="paint1_linear_106_6071" x1="47.9332" y1="178.326" x2="331.728" y2="377.799" gradientUnits="userSpaceOnUse">
<stop stop-color="white" stop-opacity="0.51"/>
<stop offset="1" stop-color="white" stop-opacity="0"/>
</linearGradient>
<linearGradient id="paint2_linear_106_6071" x1="34.1709" y1="185.32" x2="303.346" y2="353.996" gradientUnits="userSpaceOnUse">
<stop stop-color="white"/>
<stop offset="1" stop-color="white" stop-opacity="0.2"/>
</linearGradient>
<clipPath id="clip0_106_6071">
<rect width="25" height="25" fill="white" transform="translate(54.1758 86.0215)"/>
</clipPath>
<clipPath id="clip1_106_6071">
<rect x="34.1709" y="178.326" width="275.467" height="165.629" rx="17.4346" transform="rotate(-30 34.1709 178.326)" fill="white"/>
</clipPath>
</defs>
</svg>
