<svg width="25" height="24" viewBox="0 0 25 24" fill="none" xmlns="http://www.w3.org/2000/svg">
<path d="M11.6 22.75H7.4C3.49 22.75 1.75 21.01 1.75 17.1V12.9C1.75 8.99 3.49 7.25 7.4 7.25H11.6C15.51 7.25 17.25 8.99 17.25 12.9V17.1C17.25 21.01 15.51 22.75 11.6 22.75ZM7.4 8.75C4.3 8.75 3.25 9.8 3.25 12.9V17.1C3.25 20.2 4.3 21.25 7.4 21.25H11.6C14.7 21.25 15.75 20.2 15.75 17.1V12.9C15.75 9.8 14.7 8.75 11.6 8.75H7.4V8.75Z" fill="#4ED7D9"/>
<path d="M17.6 16.75H16.5C16.09 16.75 15.75 16.41 15.75 16V12.9C15.75 9.8 14.7 8.75 11.6 8.75H8.5C8.09 8.75 7.75 8.41 7.75 8V6.9C7.75 2.99 9.49 1.25 13.4 1.25H17.6C21.51 1.25 23.25 2.99 23.25 6.9V11.1C23.25 15.01 21.51 16.75 17.6 16.75ZM17.25 15.25H17.6C20.7 15.25 21.75 14.2 21.75 11.1V6.9C21.75 3.8 20.7 2.75 17.6 2.75H13.4C10.3 2.75 9.25 3.8 9.25 6.9V7.25H11.6C15.51 7.25 17.25 8.99 17.25 12.9V15.25Z" fill="#4ED7D9"/>
</svg>
