<svg width="32" height="32" viewBox="0 0 32 32" fill="none" xmlns="http://www.w3.org/2000/svg">
<path d="M7.31665 18.9556L6.25087 22.9388L2.35548 23.0212C1.19133 20.8596 0.531006 18.3864 0.531006 15.7582C0.531006 13.2168 1.14839 10.8201 2.24276 8.70984H2.24359L5.71159 9.34635L7.23078 12.7974C6.91281 13.7254 6.73951 14.7216 6.73951 15.7582C6.73963 16.8832 6.94319 17.9612 7.31665 18.9556Z" fill="#FBBB00"/>
<path d="M30.8818 12.8945C31.0576 13.8216 31.1493 14.7791 31.1493 15.7577C31.1493 16.8549 31.0341 17.9252 30.8145 18.9576C30.0693 22.4709 28.122 25.5386 25.4244 27.7096L25.4236 27.7087L21.0555 27.4856L20.4372 23.622C22.2272 22.5711 23.6261 20.9265 24.363 18.9576H16.1768V12.8945H24.4824H30.8818Z" fill="#518EF8"/>
<path d="M25.4234 27.7088L25.4243 27.7096C22.8007 29.8207 19.468 31.0839 15.8401 31.0839C10.01 31.0839 4.94121 27.8216 2.35547 23.0208L7.31664 18.9552C8.60948 22.4095 11.938 24.8684 15.8401 24.8684C17.5173 24.8684 19.0887 24.4145 20.437 23.6221L25.4234 27.7088Z" fill="#28B446"/>
<path d="M25.612 3.95989L20.6526 8.02468C19.2571 7.15145 17.6075 6.647 15.8403 6.647C11.8498 6.647 8.45908 9.21874 7.231 12.7969L2.24376 8.70933H2.24292C4.79081 3.79148 9.92355 0.431519 15.8403 0.431519C19.5548 0.431519 22.9607 1.75615 25.612 3.95989Z" fill="#F14336"/>
</svg>
