<svg width="41" height="41" viewBox="0 0 41 41" fill="none" xmlns="http://www.w3.org/2000/svg">
<rect x="0.833496" y="0.5" width="40" height="40" rx="8" fill="#F9FBFB"/>
<g clip-path="url(#clip0_557_17295)">
<path d="M30.8102 21.9357C30.193 19.3341 28.4196 17.3732 26.2594 16.7365C27.8805 15.9044 28.5211 13.9122 27.6852 12.2872C26.8531 10.6661 24.861 10.0294 23.2399 10.8615C21.6188 11.6935 20.9781 13.6857 21.8141 15.3107C22.1305 15.924 22.6266 16.424 23.2399 16.7365C21.8688 17.1388 20.6539 18.0763 19.7906 19.3732C19.3649 19.1115 18.9039 18.9083 18.4235 18.7677C20.0446 17.9357 20.6852 15.9435 19.8531 14.3224C19.0211 12.7013 17.0289 12.0607 15.4078 12.8927C13.7867 13.7247 13.1461 15.7169 13.9781 17.338C14.2946 17.9513 14.7946 18.4513 15.4078 18.7677C13.2477 19.4005 11.4742 21.3615 10.8571 23.9669C10.7906 24.2365 10.8531 24.5216 11.025 24.7443C12.4274 26.5802 14.6071 27.6583 16.9156 27.6505C17.3141 27.6505 17.7086 27.6193 18.1031 27.5568C19.2789 30.0997 22.2906 31.2091 24.8336 30.0333C26.6266 29.2052 27.7789 27.4083 27.7789 25.4318C27.7789 25.2833 27.7711 25.1349 27.7594 24.9904C28.8961 24.4865 29.8883 23.7052 30.6422 22.7169C30.7672 22.5568 30.8336 22.3575 30.8336 22.1544C30.8336 22.0763 30.8258 22.006 30.8102 21.9357ZM22.0367 13.799C22.0367 12.299 23.2516 11.0841 24.7516 11.0841C26.2516 11.0841 27.4664 12.299 27.4664 13.799C27.4664 15.299 26.2516 16.5138 24.7516 16.5138C23.2516 16.5138 22.0367 15.299 22.0367 13.799ZM14.2047 15.8302C14.2047 14.3302 15.4196 13.1154 16.9196 13.1154C18.4196 13.1154 19.6344 14.3302 19.6344 15.8302C19.6344 17.3302 18.4196 18.545 16.9196 18.545C15.4196 18.545 14.2047 17.3302 14.2047 15.8302ZM16.9156 27.0607C14.7867 27.0685 12.7789 26.0763 11.4899 24.3849C11.4274 24.3029 11.4039 24.2013 11.4274 24.1036C12.1227 21.1779 14.3805 19.1388 16.9156 19.1388C17.8297 19.1388 18.7047 19.4005 19.486 19.8771C19.6539 19.9786 19.818 20.0919 19.9742 20.213C20.1031 20.3107 20.2321 20.4161 20.3531 20.5255C20.4508 20.6154 20.5446 20.7052 20.6383 20.799C18.2711 21.8575 17.0836 24.5255 17.8844 26.9943C17.5641 27.0372 17.2399 27.0607 16.9156 27.0607ZM27.1891 25.4279C27.1891 27.9044 25.1852 29.9122 22.7086 29.9122C21.0094 29.9122 19.4586 28.9552 18.7008 27.4357C18.611 27.256 18.5328 27.0724 18.4703 26.8849C17.6969 24.6232 18.8297 22.1544 21.0485 21.2638C21.2438 21.1857 21.4391 21.1232 21.6422 21.0724C24.0485 20.4865 26.4742 21.9591 27.0641 24.3654C27.0836 24.4474 27.1031 24.5294 27.1188 24.6115C27.1539 24.8107 27.1774 25.0099 27.1891 25.213V25.4279ZM30.1774 22.3575C29.5133 23.2208 28.6539 23.9161 27.6696 24.381C27.1852 22.0841 25.1461 20.3575 22.7086 20.3575C22.2086 20.3575 21.7125 20.4318 21.236 20.5763C20.9469 20.256 20.6266 19.963 20.2828 19.7052C21.3414 18.1075 22.9821 17.1075 24.7555 17.1075C27.2946 17.1075 29.5485 19.1505 30.2438 22.0724C30.2594 22.17 30.2399 22.2755 30.1774 22.3575Z" fill="black"/>
<path d="M24.9468 23.3628L21.4585 26.8511L20.1655 25.5581C20.0483 25.4409 19.853 25.4409 19.7358 25.5581C19.6187 25.6753 19.6187 25.8706 19.7358 25.9878L21.2437 27.4956C21.3608 27.6128 21.5562 27.6128 21.6733 27.4956L25.3765 23.7925C25.4937 23.6753 25.4937 23.48 25.3765 23.3628C25.2593 23.2456 25.064 23.2417 24.9468 23.3628Z" fill="black"/>
</g>
<defs>
<clipPath id="clip0_557_17295">
<rect width="20" height="20" fill="white" transform="translate(10.8335 10.5)"/>
</clipPath>
</defs>
</svg>
