<svg width="18" height="18" viewBox="0 0 18 18" fill="none" xmlns="http://www.w3.org/2000/svg">
<path d="M15.6506 1.85138V1.43625C15.6498 1.11775 15.5229 0.812539 15.2977 0.587325C15.0725 0.362112 14.7672 0.235216 14.4487 0.234375C14.1301 0.234722 13.8246 0.36146 13.5993 0.58678C13.374 0.8121 13.2472 1.1176 13.2469 1.43625V1.83188H12.0169V1.43625C12.0169 1.11782 11.8905 0.8124 11.6655 0.587058C11.4405 0.361717 11.1353 0.234872 10.8169 0.234375C10.4982 0.234772 10.1928 0.361525 9.96746 0.586834C9.74215 0.812144 9.6154 1.11761 9.615 1.43625V1.83188H8.385V1.43625C8.385 1.27854 8.35394 1.12238 8.29358 0.976671C8.23323 0.830967 8.14477 0.698576 8.03325 0.587059C7.92174 0.475542 7.78935 0.387081 7.64364 0.326728C7.49794 0.266376 7.34177 0.235312 7.18406 0.235312C7.02635 0.235312 6.87019 0.266376 6.72448 0.326728C6.57878 0.387081 6.44639 0.475542 6.33487 0.587059C6.22335 0.698576 6.13489 0.830967 6.07454 0.976671C6.01419 1.12238 5.98312 1.27854 5.98312 1.43625V1.83188H4.75312V1.43625C4.75228 1.11775 4.62539 0.812539 4.40017 0.587325C4.17496 0.362112 3.86975 0.235216 3.55125 0.234375C3.23261 0.234772 2.92714 0.361525 2.70183 0.586834C2.47653 0.812144 2.34977 1.11761 2.34938 1.43625V1.85138C1.76637 1.92327 1.2297 2.20562 0.840227 2.64536C0.450756 3.0851 0.235307 3.65196 0.234375 4.23938V15.3581C0.235119 15.9964 0.489005 16.6083 0.940337 17.0597C1.39167 17.511 2.00359 17.7649 2.64188 17.7656H15.3581C15.9964 17.7649 16.6083 17.511 17.0597 17.0597C17.511 16.6083 17.7649 15.9964 17.7656 15.3581V4.23938C17.7647 3.65196 17.5492 3.0851 17.1598 2.64536C16.7703 2.20562 16.2336 1.92327 15.6506 1.85138ZM13.9031 1.43625C13.9033 1.2916 13.9609 1.15294 14.0632 1.05065C14.1654 0.948373 14.3041 0.890823 14.4487 0.890625C14.5932 0.89151 14.7315 0.94928 14.8336 1.05141C14.9357 1.15355 14.9935 1.29181 14.9944 1.43625V2.88375C14.9944 3.02846 14.9369 3.16724 14.8346 3.26956C14.7322 3.37189 14.5935 3.42938 14.4487 3.42938C14.304 3.42938 14.1653 3.37189 14.0629 3.26956C13.9606 3.16724 13.9031 3.02846 13.9031 2.88375V1.43625ZM10.2712 1.43625C10.2714 1.29159 10.3289 1.15289 10.4312 1.0506C10.5335 0.948307 10.6722 0.890774 10.8169 0.890625C10.9613 0.891072 11.0996 0.94876 11.2015 1.05104C11.3035 1.15332 11.3607 1.29185 11.3606 1.43625V2.88375C11.3606 3.02821 11.3032 3.16675 11.2011 3.2689C11.0989 3.37105 10.9604 3.42844 10.8159 3.42844C10.6715 3.42844 10.5329 3.37105 10.4308 3.2689C10.3286 3.16675 10.2712 3.02821 10.2712 2.88375V1.43625ZM6.63937 1.43625C6.63937 1.29179 6.69676 1.15325 6.79891 1.0511C6.90106 0.948949 7.0396 0.891562 7.18406 0.891562C7.32852 0.891562 7.46707 0.948949 7.56921 1.0511C7.67136 1.15325 7.72875 1.29179 7.72875 1.43625V2.88375C7.72875 3.02821 7.67136 3.16675 7.56921 3.2689C7.46707 3.37105 7.32852 3.42844 7.18406 3.42844C7.0396 3.42844 6.90106 3.37105 6.79891 3.2689C6.69676 3.16675 6.63937 3.02821 6.63937 2.88375V1.43625ZM3.00562 1.43625C3.00577 1.29159 3.06331 1.15289 3.1656 1.0506C3.26789 0.948307 3.40659 0.890774 3.55125 0.890625C3.69569 0.89151 3.83395 0.94928 3.93609 1.05141C4.03822 1.15355 4.09599 1.29181 4.09687 1.43625V2.88375C4.09687 3.02846 4.03939 3.16724 3.93707 3.26956C3.83474 3.37189 3.69596 3.42938 3.55125 3.42938C3.40654 3.42938 3.26776 3.37189 3.16544 3.26956C3.06311 3.16724 3.00562 3.02846 3.00562 2.88375V1.43625ZM2.34938 2.51456V2.88375C2.34938 3.20251 2.476 3.50821 2.7014 3.7336C2.92679 3.959 3.23249 4.08563 3.55125 4.08563C3.87001 4.08563 4.17571 3.959 4.4011 3.7336C4.6265 3.50821 4.75312 3.20251 4.75312 2.88375V2.48813H5.98312V2.88375C5.98312 3.20226 6.10965 3.50772 6.33487 3.73294C6.56009 3.95816 6.86555 4.08469 7.18406 4.08469C7.50257 4.08469 7.80803 3.95816 8.03325 3.73294C8.25847 3.50772 8.385 3.20226 8.385 2.88375V2.48813H9.615V2.88375C9.615 3.20226 9.74153 3.50772 9.96675 3.73294C10.192 3.95816 10.4974 4.08469 10.8159 4.08469C11.1344 4.08469 11.4399 3.95816 11.6651 3.73294C11.8903 3.50772 12.0169 3.20226 12.0169 2.88375V2.48813H13.2469V2.88375C13.2469 3.20251 13.3735 3.50821 13.5989 3.7336C13.8243 3.959 14.13 4.08563 14.4487 4.08563C14.7675 4.08563 15.0732 3.959 15.2986 3.7336C15.524 3.50821 15.6506 3.20251 15.6506 2.88375V2.51456C16.0582 2.5839 16.4281 2.79505 16.695 3.1107C16.9619 3.42634 17.1087 3.82618 17.1094 4.23956V5.22712H0.890625V4.23938C0.891357 3.82603 1.03815 3.42623 1.30508 3.11062C1.572 2.79501 1.94188 2.5839 2.34938 2.51456ZM15.3581 17.1094H2.64188C2.17758 17.1088 1.73246 16.9241 1.40416 16.5958C1.07585 16.2675 0.891171 15.8224 0.890625 15.3581V5.88375H17.1094V15.3581C17.1088 15.8224 16.9241 16.2675 16.5958 16.5958C16.2675 16.9241 15.8224 17.1088 15.3581 17.1094Z" fill="black"/>
<path d="M4.81597 7.52539H3.49109C3.26045 7.52569 3.03933 7.61744 2.87624 7.78054C2.71315 7.94363 2.62139 8.16474 2.62109 8.39539V9.72027C2.62139 9.95091 2.71315 10.172 2.87624 10.3351C3.03933 10.4982 3.26045 10.59 3.49109 10.5903H4.81597C5.04662 10.59 5.26773 10.4982 5.43082 10.3351C5.59391 10.172 5.68567 9.95091 5.68597 9.72027V8.39539C5.68567 8.16474 5.59391 7.94363 5.43082 7.78054C5.26773 7.61744 5.04662 7.52569 4.81597 7.52539ZM5.02972 9.72027C5.02967 9.77694 5.00713 9.83128 4.96706 9.87136C4.92698 9.91143 4.87264 9.93397 4.81597 9.93402H3.49109C3.43442 9.93397 3.38008 9.91143 3.34 9.87136C3.29993 9.83128 3.27739 9.77694 3.27734 9.72027V8.39539C3.27739 8.33872 3.29993 8.28438 3.34 8.2443C3.38008 8.20423 3.43442 8.18169 3.49109 8.18164H4.81597C4.87264 8.18169 4.92698 8.20423 4.96706 8.2443C5.00713 8.28438 5.02967 8.33872 5.02972 8.39539V9.72027ZM9.66266 7.52539H8.33778C8.10713 7.52569 7.88602 7.61744 7.72293 7.78054C7.55983 7.94363 7.46808 8.16474 7.46778 8.39539V9.72027C7.46808 9.95091 7.55983 10.172 7.72293 10.3351C7.88602 10.4982 8.10713 10.59 8.33778 10.5903H9.66266C9.8933 10.59 10.1144 10.4982 10.2775 10.3351C10.4406 10.172 10.5324 9.95091 10.5327 9.72027V8.39539C10.5324 8.16474 10.4406 7.94363 10.2775 7.78054C10.1144 7.61744 9.8933 7.52569 9.66266 7.52539ZM9.87641 9.72027C9.87636 9.77694 9.85382 9.83128 9.81374 9.87136C9.77367 9.91143 9.71933 9.93397 9.66266 9.93402H8.33778C8.28111 9.93397 8.22677 9.91143 8.18669 9.87136C8.14662 9.83128 8.12408 9.77694 8.12403 9.72027V8.39539C8.12408 8.33872 8.14662 8.28438 8.18669 8.2443C8.22677 8.20423 8.28111 8.18169 8.33778 8.18164H9.66266C9.71933 8.18169 9.77367 8.20423 9.81374 8.2443C9.85382 8.28438 9.87636 8.33872 9.87641 8.39539V9.72027ZM14.9346 7.97427L13.4627 9.44539L12.7585 8.74114C12.6966 8.68138 12.6137 8.64833 12.5276 8.64909C12.4416 8.64986 12.3593 8.68438 12.2985 8.74523C12.2377 8.80608 12.2032 8.88839 12.2024 8.97442C12.2017 9.06045 12.2348 9.14333 12.2946 9.2052L13.2308 10.1414C13.2612 10.1719 13.2974 10.1961 13.3372 10.2126C13.377 10.2291 13.4197 10.2376 13.4628 10.2376C13.5059 10.2376 13.5486 10.2291 13.5884 10.2126C13.6282 10.1961 13.6644 10.1719 13.6948 10.1414L15.3987 8.43758C15.4291 8.40711 15.4533 8.37093 15.4698 8.33112C15.4863 8.29131 15.4948 8.24864 15.4948 8.20555C15.4948 8.16246 15.4863 8.11978 15.4698 8.07997C15.4533 8.04016 15.4291 8.00399 15.3987 7.97352C15.3682 7.94305 15.332 7.91887 15.2922 7.90238C15.2524 7.88589 15.2097 7.87741 15.1666 7.87741C15.1235 7.87741 15.0809 7.88589 15.0411 7.90238C15.0012 7.91887 14.9651 7.94305 14.9346 7.97352V7.97427ZM4.81597 12.0453H3.49109C3.26045 12.0456 3.03933 12.1373 2.87624 12.3004C2.71315 12.4635 2.62139 12.6846 2.62109 12.9153V14.2401C2.62139 14.4708 2.71315 14.6919 2.87624 14.855C3.03933 15.0181 3.26045 15.1098 3.49109 15.1101H4.81597C5.04662 15.1098 5.26773 15.0181 5.43082 14.855C5.59391 14.6919 5.68567 14.4708 5.68597 14.2401V12.9153C5.68567 12.6846 5.59391 12.4635 5.43082 12.3004C5.26773 12.1373 5.04662 12.0456 4.81597 12.0453ZM5.02972 14.2401C5.02967 14.2968 5.00713 14.3512 4.96706 14.3912C4.92698 14.4313 4.87264 14.4538 4.81597 14.4539H3.49109C3.43442 14.4538 3.38008 14.4313 3.34 14.3912C3.29993 14.3512 3.27739 14.2968 3.27734 14.2401V12.9153C3.27739 12.8586 3.29993 12.8043 3.34 12.7642C3.38008 12.7241 3.43442 12.7016 3.49109 12.7015H4.81597C4.87264 12.7016 4.92698 12.7241 4.96706 12.7642C5.00713 12.8043 5.02967 12.8586 5.02972 12.9153V14.2401ZM9.66266 12.0453H8.33778C8.10713 12.0456 7.88602 12.1373 7.72293 12.3004C7.55983 12.4635 7.46808 12.6846 7.46778 12.9153V14.2401C7.46808 14.4708 7.55983 14.6919 7.72293 14.855C7.88602 15.0181 8.10713 15.1098 8.33778 15.1101H9.66266C9.8933 15.1098 10.1144 15.0181 10.2775 14.855C10.4406 14.6919 10.5324 14.4708 10.5327 14.2401V12.9153C10.5324 12.6846 10.4406 12.4635 10.2775 12.3004C10.1144 12.1373 9.8933 12.0456 9.66266 12.0453ZM9.87641 14.2401C9.87636 14.2968 9.85382 14.3512 9.81374 14.3912C9.77367 14.4313 9.71933 14.4538 9.66266 14.4539H8.33778C8.28111 14.4538 8.22677 14.4313 8.18669 14.3912C8.14662 14.3512 8.12408 14.2968 8.12403 14.2401V12.9153C8.12408 12.8586 8.14662 12.8043 8.18669 12.7642C8.22677 12.7241 8.28111 12.7016 8.33778 12.7015H9.66266C9.71933 12.7016 9.77367 12.7241 9.81374 12.7642C9.85382 12.8043 9.87636 12.8586 9.87641 12.9153V14.2401ZM14.5093 12.0453H13.1845C12.9538 12.0456 12.7327 12.1373 12.5696 12.3004C12.4065 12.4635 12.3148 12.6846 12.3145 12.9153V14.2401C12.3148 14.4708 12.4065 14.6919 12.5696 14.855C12.7327 15.0181 12.9538 15.1098 13.1845 15.1101H14.5093C14.74 15.1098 14.9611 15.0181 15.1242 14.855C15.2873 14.6919 15.379 14.4708 15.3793 14.2401V12.9153C15.379 12.6846 15.2873 12.4635 15.1242 12.3004C14.9611 12.1373 14.74 12.0456 14.5093 12.0453ZM14.7231 14.2401C14.723 14.2968 14.7005 14.3512 14.6604 14.3912C14.6204 14.4313 14.566 14.4538 14.5093 14.4539H13.1845C13.1278 14.4538 13.0735 14.4313 13.0334 14.3912C12.9933 14.3512 12.9708 14.2968 12.9707 14.2401V12.9153C12.9708 12.8586 12.9933 12.8043 13.0334 12.7642C13.0735 12.7241 13.1278 12.7016 13.1845 12.7015H14.5093C14.566 12.7016 14.6204 12.7241 14.6604 12.7642C14.7005 12.8043 14.723 12.8586 14.7231 12.9153V14.2401Z" fill="black"/>
</svg>
