<svg width="20" height="20" viewBox="0 0 20 20" fill="none" xmlns="http://www.w3.org/2000/svg">
<path d="M9.99935 18.9584C5.05768 18.9584 1.04102 14.9417 1.04102 10C1.04102 5.05835 5.05768 1.04169 9.99935 1.04169C14.941 1.04169 18.9577 5.05835 18.9577 10C18.9577 14.9417 14.941 18.9584 9.99935 18.9584ZM9.99935 2.29169C5.74935 2.29169 2.29102 5.75002 2.29102 10C2.29102 14.25 5.74935 17.7084 9.99935 17.7084C14.2493 17.7084 17.7077 14.25 17.7077 10C17.7077 5.75002 14.2493 2.29169 9.99935 2.29169Z" fill="#252525"/>
<path d="M10.0007 12.2916C8.73398 12.2916 7.70898 11.2666 7.70898 9.99998C7.70898 8.73331 8.73398 7.70831 10.0007 7.70831C11.2673 7.70831 12.2923 8.73331 12.2923 9.99998C12.2923 11.2666 11.2673 12.2916 10.0007 12.2916ZM10.0007 8.95831C9.42565 8.95831 8.95898 9.42498 8.95898 9.99998C8.95898 10.575 9.42565 11.0416 10.0007 11.0416C10.5757 11.0416 11.0423 10.575 11.0423 9.99998C11.0423 9.42498 10.5757 8.95831 10.0007 8.95831Z" fill="#252525"/>
</svg>
