<svg width="24" height="24" viewBox="0 0 24 24" fill="none" xmlns="http://www.w3.org/2000/svg">
<path d="M3.99961 10.1867H9.19961C9.3057 10.1867 9.40744 10.1446 9.48245 10.0696C9.55747 9.99455 9.59961 9.89281 9.59961 9.78672C9.59961 9.68063 9.55747 9.57889 9.48245 9.50388C9.40744 9.42886 9.3057 9.38672 9.19961 9.38672H3.99961C3.89352 9.38672 3.79178 9.42886 3.71677 9.50388C3.64175 9.57889 3.59961 9.68063 3.59961 9.78672C3.59961 9.89281 3.64175 9.99455 3.71677 10.0696C3.79178 10.1446 3.89352 10.1867 3.99961 10.1867ZM14.3996 11.7867H3.99961C3.89352 11.7867 3.79178 11.8289 3.71677 11.9039C3.64175 11.9789 3.59961 12.0806 3.59961 12.1867C3.59961 12.2928 3.64175 12.3945 3.71677 12.4696C3.79178 12.5446 3.89352 12.5867 3.99961 12.5867H14.3996C14.5057 12.5867 14.6074 12.5446 14.6825 12.4696C14.7575 12.3945 14.7996 12.2928 14.7996 12.1867C14.7996 12.0806 14.7575 11.9789 14.6825 11.9039C14.6074 11.8289 14.5057 11.7867 14.3996 11.7867ZM14.3996 14.1867H3.99961C3.89352 14.1867 3.79178 14.2289 3.71677 14.3039C3.64175 14.3789 3.59961 14.4806 3.59961 14.5867C3.59961 14.6928 3.64175 14.7945 3.71677 14.8696C3.79178 14.9446 3.89352 14.9867 3.99961 14.9867H14.3996C14.5057 14.9867 14.6074 14.9446 14.6825 14.8696C14.7575 14.7945 14.7996 14.6928 14.7996 14.5867C14.7996 14.4806 14.7575 14.3789 14.6825 14.3039C14.6074 14.2289 14.5057 14.1867 14.3996 14.1867Z" fill="black"/>
<path d="M21.6288 1.01433L7.972 0.986328C6.664 0.986328 5.6 2.05033 5.6 3.35833V5.40793L2.372 5.41473C1.064 5.41473 0 6.47873 0 7.78673V16.2431C0 17.5511 1.064 18.6147 2.372 18.6147H4.8V22.6147C4.79997 22.6955 4.82438 22.7743 4.87002 22.841C4.91566 22.9076 4.98039 22.9588 5.0557 22.988C5.13102 23.0171 5.21338 23.0227 5.29197 23.0042C5.37056 22.9856 5.44169 22.9437 5.496 22.8839L9.3776 18.6139L16.028 18.5867C17.336 18.5867 18.4 17.5227 18.4 16.2151V16.1699L20.504 18.4843C20.5585 18.5437 20.6296 18.5852 20.7081 18.6035C20.7865 18.6218 20.8687 18.6161 20.9438 18.587C21.0189 18.558 21.0836 18.5069 21.1293 18.4406C21.175 18.3743 21.1996 18.2957 21.2 18.2151V14.2151H21.628C22.936 14.2151 24 13.1511 24 11.8435V3.38633C23.9993 2.7576 23.7492 2.15482 23.3047 1.71017C22.8602 1.26552 22.2575 1.01528 21.6288 1.01433ZM17.6 16.2147C17.5995 16.6317 17.4334 17.0315 17.1384 17.3261C16.8433 17.6208 16.4434 17.7863 16.0264 17.7863L9.1984 17.8143C9.14294 17.8145 9.08813 17.8263 9.03745 17.8488C8.98677 17.8713 8.94132 17.9041 8.904 17.9451L5.6 21.5799V18.2143C5.6 18.1082 5.55786 18.0065 5.48284 17.9315C5.40783 17.8565 5.30609 17.8143 5.2 17.8143H2.372C1.95528 17.8139 1.55574 17.6482 1.26104 17.3536C0.966333 17.0589 0.800529 16.6594 0.8 16.2427V7.78633C0.80053 7.36943 0.96643 6.96977 1.2613 6.67506C1.55616 6.38034 1.9559 6.21465 2.3728 6.21433L6 6.20673H6.0008L16.028 6.18593C16.4448 6.18635 16.8444 6.35211 17.1391 6.64682C17.4338 6.94154 17.5996 7.34114 17.6 7.75793V16.2147ZM23.2 11.8427C23.1995 12.2594 23.0337 12.6589 22.739 12.9536C22.4443 13.2482 22.0447 13.4139 21.628 13.4143H20.8C20.6939 13.4143 20.5922 13.4565 20.5172 13.5315C20.4421 13.6065 20.4 13.7082 20.4 13.8143V17.1799L18.4 14.9799V7.75833C18.4 6.45033 17.336 5.38633 16.0272 5.38633L6.4 5.40593V3.35793C6.40042 2.94128 6.56607 2.5418 6.86061 2.24711C7.15516 1.95241 7.55455 1.78656 7.9712 1.78593L21.6276 1.81393H21.6284C22.0452 1.81435 22.4448 1.98011 22.7395 2.27482C23.0342 2.56954 23.2 2.96914 23.2004 3.38593L23.2 11.8427Z" fill="black"/>
</svg>
