<svg width="24" height="24" viewBox="0 0 24 24" fill="none" xmlns="http://www.w3.org/2000/svg">
<path d="M8 5.75C7.59 5.75 7.25 5.41 7.25 5V2C7.25 1.59 7.59 1.25 8 1.25C8.41 1.25 8.75 1.59 8.75 2V5C8.75 5.41 8.41 5.75 8 5.75Z" fill="#252525"/>
<path d="M16 5.75C15.59 5.75 15.25 5.41 15.25 5V2C15.25 1.59 15.59 1.25 16 1.25C16.41 1.25 16.75 1.59 16.75 2V5C16.75 5.41 16.41 5.75 16 5.75Z" fill="#252525"/>
<path d="M15 22.75H9C3.38 22.75 2.25 20.1 2.25 15.82V9.65C2.25 4.91 3.85 2.98 7.96 2.75H16C16.01 2.75 16.03 2.75 16.04 2.75C20.15 2.98 21.75 4.91 21.75 9.65V15.82C21.75 20.1 20.62 22.75 15 22.75ZM8 4.25C5.2 4.41 3.75 5.29 3.75 9.65V15.82C3.75 19.65 4.48 21.25 9 21.25H15C19.52 21.25 20.25 19.65 20.25 15.82V9.65C20.25 5.3 18.81 4.41 15.98 4.25H8Z" fill="#252525"/>
<path d="M20.75 18.35H3.25C2.84 18.35 2.5 18.01 2.5 17.6C2.5 17.19 2.84 16.85 3.25 16.85H20.75C21.16 16.85 21.5 17.19 21.5 17.6C21.5 18.01 21.16 18.35 20.75 18.35Z" fill="#252525"/>
<path d="M14.991 14.0006V9.33481L13.9633 9.6V8.82928L15.3888 8.19945H16.0103V14.0006H14.991Z" fill="#252525"/>
<path d="M10.8205 14.1C10.2956 14.1 9.84532 13.9757 9.46963 13.727C9.09393 13.4729 8.80388 13.1221 8.59946 12.6746C8.40056 12.2215 8.30112 11.6967 8.30112 11.1C8.30112 10.5033 8.40056 9.98119 8.59946 9.53368C8.80388 9.08064 9.09393 8.72981 9.46963 8.48119C9.84532 8.22705 10.2956 8.09998 10.8205 8.09998C11.3398 8.09998 11.7845 8.22705 12.1547 8.48119C12.5304 8.72981 12.8177 9.08064 13.0166 9.53368C13.221 9.98119 13.3232 10.5033 13.3232 11.1C13.3232 11.6967 13.221 12.2215 13.0166 12.6746C12.8177 13.1221 12.5304 13.4729 12.1547 13.727C11.7845 13.9757 11.3398 14.1 10.8205 14.1ZM10.8122 13.2049C11.105 13.2049 11.3647 13.1221 11.5912 12.9563C11.8177 12.7851 11.9917 12.542 12.1133 12.227C12.2403 11.9121 12.3039 11.5364 12.3039 11.1C12.3039 10.6635 12.2403 10.2878 12.1133 9.9729C11.9917 9.65799 11.8177 9.41766 11.5912 9.25191C11.3647 9.08064 11.105 8.995 10.8122 8.995C10.5193 8.995 10.2597 9.08064 10.0332 9.25191C9.80664 9.41766 9.62985 9.65799 9.50277 9.9729C9.38123 10.2878 9.32045 10.6635 9.32045 11.1C9.32045 11.5364 9.38123 11.9121 9.50277 12.227C9.62985 12.542 9.80664 12.7851 10.0332 12.9563C10.2597 13.1221 10.5193 13.2049 10.8122 13.2049Z" fill="#252525"/>
</svg>
