<svg width="24" height="24" viewBox="0 0 24 24" fill="none" xmlns="http://www.w3.org/2000/svg">
<mask id="path-1-inside-1_714_6703" fill="white">
<path d="M9.5 8H1.5C0.673 8 0 7.327 0 6.5V1.5C0 0.673 0.673 0 1.5 0H9.5C10.327 0 11 0.673 11 1.5V6.5C11 7.327 10.327 8 9.5 8ZM1.5 1C1.36739 1 1.24021 1.05268 1.14645 1.14645C1.05268 1.24021 1 1.36739 1 1.5V6.5C1 6.63261 1.05268 6.75979 1.14645 6.85355C1.24021 6.94732 1.36739 7 1.5 7H9.5C9.63261 7 9.75979 6.94732 9.85355 6.85355C9.94732 6.75979 10 6.63261 10 6.5V1.5C10 1.36739 9.94732 1.24021 9.85355 1.14645C9.75979 1.05268 9.63261 1 9.5 1H1.5ZM9.5 24H1.5C0.673 24 0 23.327 0 22.5V11.5C0 10.673 0.673 10 1.5 10H9.5C10.327 10 11 10.673 11 11.5V22.5C11 23.327 10.327 24 9.5 24ZM1.5 11C1.36739 11 1.24021 11.0527 1.14645 11.1464C1.05268 11.2402 1 11.3674 1 11.5V22.5C1 22.6326 1.05268 22.7598 1.14645 22.8536C1.24021 22.9473 1.36739 23 1.5 23H9.5C9.63261 23 9.75979 22.9473 9.85355 22.8536C9.94732 22.7598 10 22.6326 10 22.5V11.5C10 11.3674 9.94732 11.2402 9.85355 11.1464C9.75979 11.0527 9.63261 11 9.5 11H1.5ZM22.5 24H14.5C13.673 24 13 23.327 13 22.5V17.5C13 16.673 13.673 16 14.5 16H22.5C23.327 16 24 16.673 24 17.5V22.5C24 23.327 23.327 24 22.5 24ZM14.5 17C14.3674 17 14.2402 17.0527 14.1464 17.1464C14.0527 17.2402 14 17.3674 14 17.5V22.5C14 22.6326 14.0527 22.7598 14.1464 22.8536C14.2402 22.9473 14.3674 23 14.5 23H22.5C22.6326 23 22.7598 22.9473 22.8536 22.8536C22.9473 22.7598 23 22.6326 23 22.5V17.5C23 17.3674 22.9473 17.2402 22.8536 17.1464C22.7598 17.0527 22.6326 17 22.5 17H14.5ZM22.5 14H14.5C13.673 14 13 13.327 13 12.5V1.5C13 0.673 13.673 0 14.5 0H22.5C23.327 0 24 0.673 24 1.5V12.5C24 13.327 23.327 14 22.5 14ZM14.5 1C14.3674 1 14.2402 1.05268 14.1464 1.14645C14.0527 1.24021 14 1.36739 14 1.5V12.5C14 12.6326 14.0527 12.7598 14.1464 12.8536C14.2402 12.9473 14.3674 13 14.5 13H22.5C22.6326 13 22.7598 12.9473 22.8536 12.8536C22.9473 12.7598 23 12.6326 23 12.5V1.5C23 1.36739 22.9473 1.24021 22.8536 1.14645C22.7598 1.05268 22.6326 1 22.5 1H14.5Z"/>
</mask>
<path d="M9.5 8H1.5C0.673 8 0 7.327 0 6.5V1.5C0 0.673 0.673 0 1.5 0H9.5C10.327 0 11 0.673 11 1.5V6.5C11 7.327 10.327 8 9.5 8ZM1.5 1C1.36739 1 1.24021 1.05268 1.14645 1.14645C1.05268 1.24021 1 1.36739 1 1.5V6.5C1 6.63261 1.05268 6.75979 1.14645 6.85355C1.24021 6.94732 1.36739 7 1.5 7H9.5C9.63261 7 9.75979 6.94732 9.85355 6.85355C9.94732 6.75979 10 6.63261 10 6.5V1.5C10 1.36739 9.94732 1.24021 9.85355 1.14645C9.75979 1.05268 9.63261 1 9.5 1H1.5ZM9.5 24H1.5C0.673 24 0 23.327 0 22.5V11.5C0 10.673 0.673 10 1.5 10H9.5C10.327 10 11 10.673 11 11.5V22.5C11 23.327 10.327 24 9.5 24ZM1.5 11C1.36739 11 1.24021 11.0527 1.14645 11.1464C1.05268 11.2402 1 11.3674 1 11.5V22.5C1 22.6326 1.05268 22.7598 1.14645 22.8536C1.24021 22.9473 1.36739 23 1.5 23H9.5C9.63261 23 9.75979 22.9473 9.85355 22.8536C9.94732 22.7598 10 22.6326 10 22.5V11.5C10 11.3674 9.94732 11.2402 9.85355 11.1464C9.75979 11.0527 9.63261 11 9.5 11H1.5ZM22.5 24H14.5C13.673 24 13 23.327 13 22.5V17.5C13 16.673 13.673 16 14.5 16H22.5C23.327 16 24 16.673 24 17.5V22.5C24 23.327 23.327 24 22.5 24ZM14.5 17C14.3674 17 14.2402 17.0527 14.1464 17.1464C14.0527 17.2402 14 17.3674 14 17.5V22.5C14 22.6326 14.0527 22.7598 14.1464 22.8536C14.2402 22.9473 14.3674 23 14.5 23H22.5C22.6326 23 22.7598 22.9473 22.8536 22.8536C22.9473 22.7598 23 22.6326 23 22.5V17.5C23 17.3674 22.9473 17.2402 22.8536 17.1464C22.7598 17.0527 22.6326 17 22.5 17H14.5ZM22.5 14H14.5C13.673 14 13 13.327 13 12.5V1.5C13 0.673 13.673 0 14.5 0H22.5C23.327 0 24 0.673 24 1.5V12.5C24 13.327 23.327 14 22.5 14ZM14.5 1C14.3674 1 14.2402 1.05268 14.1464 1.14645C14.0527 1.24021 14 1.36739 14 1.5V12.5C14 12.6326 14.0527 12.7598 14.1464 12.8536C14.2402 12.9473 14.3674 13 14.5 13H22.5C22.6326 13 22.7598 12.9473 22.8536 12.8536C22.9473 12.7598 23 12.6326 23 12.5V1.5C23 1.36739 22.9473 1.24021 22.8536 1.14645C22.7598 1.05268 22.6326 1 22.5 1H14.5Z" fill="#030303"/>
<path d="M1.5 1V-20.3333V1ZM1 1.5H-20.3333H1ZM1 6.5H-20.3333H1ZM9.5 1V-20.3333V1ZM1 11.5H-20.3333H1ZM1 22.5H-20.3333H1ZM14.5 1V-20.3333V1ZM22.5 1V-20.3333V1ZM9.5 -13.3333H1.5V29.3333H9.5V-13.3333ZM1.5 -13.3333C12.4551 -13.3333 21.3333 -4.45507 21.3333 6.5H-21.3333C-21.3333 19.1091 -11.1091 29.3333 1.5 29.3333V-13.3333ZM21.3333 6.5V1.5H-21.3333V6.5H21.3333ZM21.3333 1.5C21.3333 12.4551 12.4551 21.3333 1.5 21.3333V-21.3333C-11.1091 -21.3333 -21.3333 -11.1091 -21.3333 1.5H21.3333ZM1.5 21.3333H9.5V-21.3333H1.5V21.3333ZM9.5 21.3333C-1.45508 21.3333 -10.3333 12.4551 -10.3333 1.5H32.3333C32.3333 -11.1091 22.1091 -21.3333 9.5 -21.3333V21.3333ZM-10.3333 1.5V6.5H32.3333V1.5H-10.3333ZM-10.3333 6.5C-10.3333 -4.45507 -1.45508 -13.3333 9.5 -13.3333V29.3333C22.1091 29.3333 32.3333 19.1091 32.3333 6.5H-10.3333ZM1.5 -20.3333C-4.29056 -20.3333 -9.84395 -18.033 -13.9385 -13.9385L16.2314 16.2314C12.3244 20.1384 7.02534 22.3333 1.5 22.3333V-20.3333ZM-13.9385 -13.9385C-18.033 -9.84395 -20.3333 -4.29056 -20.3333 1.5H22.3333C22.3333 7.02534 20.1384 12.3244 16.2314 16.2314L-13.9385 -13.9385ZM-20.3333 1.5V6.5H22.3333V1.5H-20.3333ZM-20.3333 6.5C-20.3333 12.2906 -18.033 17.844 -13.9385 21.9385L16.2314 -8.23139C20.1384 -4.32439 22.3333 0.974654 22.3333 6.5H-20.3333ZM-13.9385 21.9385C-9.84396 26.033 -4.29057 28.3333 1.5 28.3333V-14.3333C7.02535 -14.3333 12.3244 -12.1384 16.2314 -8.23139L-13.9385 21.9385ZM1.5 28.3333H9.5V-14.3333H1.5V28.3333ZM9.5 28.3333C15.2906 28.3333 20.844 26.033 24.9385 21.9385L-5.23139 -8.23139C-1.32438 -12.1384 3.97466 -14.3333 9.5 -14.3333V28.3333ZM24.9385 21.9385C29.0331 17.8439 31.3333 12.2905 31.3333 6.5H-11.3333C-11.3333 0.974693 -9.13843 -4.32436 -5.23139 -8.23139L24.9385 21.9385ZM31.3333 6.5V1.5H-11.3333V6.5H31.3333ZM31.3333 1.5C31.3333 -4.29052 29.0331 -9.84392 24.9385 -13.9385L-5.23139 16.2314C-9.13843 12.3244 -11.3333 7.0253 -11.3333 1.5H31.3333ZM24.9385 -13.9385C20.8439 -18.0331 15.2905 -20.3333 9.5 -20.3333V22.3333C3.97468 22.3333 -1.32437 20.1384 -5.23139 16.2314L24.9385 -13.9385ZM9.5 -20.3333H1.5V22.3333H9.5V-20.3333ZM9.5 2.66667H1.5V45.3333H9.5V2.66667ZM1.5 2.66667C12.4551 2.66667 21.3333 11.5449 21.3333 22.5H-21.3333C-21.3333 35.1091 -11.1091 45.3333 1.5 45.3333V2.66667ZM21.3333 22.5V11.5H-21.3333V22.5H21.3333ZM21.3333 11.5C21.3333 22.4551 12.4551 31.3333 1.5 31.3333V-11.3333C-11.1091 -11.3333 -21.3333 -1.10908 -21.3333 11.5H21.3333ZM1.5 31.3333H9.5V-11.3333H1.5V31.3333ZM9.5 31.3333C-1.45508 31.3333 -10.3333 22.4551 -10.3333 11.5H32.3333C32.3333 -1.10908 22.1091 -11.3333 9.5 -11.3333V31.3333ZM-10.3333 11.5V22.5H32.3333V11.5H-10.3333ZM-10.3333 22.5C-10.3333 11.5449 -1.45508 2.66667 9.5 2.66667V45.3333C22.1091 45.3333 32.3333 35.1091 32.3333 22.5H-10.3333ZM1.5 -10.3333C-4.29052 -10.3333 -9.84392 -8.03307 -13.9385 -3.9385L16.2314 26.2314C12.3244 30.1384 7.0253 32.3333 1.5 32.3333V-10.3333ZM-13.9385 -3.9385C-18.0331 0.156059 -20.3333 5.70946 -20.3333 11.5H22.3333C22.3333 17.0253 20.1384 22.3244 16.2314 26.2314L-13.9385 -3.9385ZM-20.3333 11.5V22.5H22.3333V11.5H-20.3333ZM-20.3333 22.5C-20.3333 28.2905 -18.0331 33.8439 -13.9385 37.9385L16.2314 7.76861C20.1384 11.6756 22.3333 16.9747 22.3333 22.5H-20.3333ZM-13.9385 37.9385C-9.84392 42.0331 -4.29052 44.3333 1.5 44.3333V1.66667C7.0253 1.66667 12.3244 3.86157 16.2314 7.76861L-13.9385 37.9385ZM1.5 44.3333H9.5V1.66667H1.5V44.3333ZM9.5 44.3333C15.2905 44.3333 20.8439 42.0331 24.9385 37.9385L-5.23139 7.76861C-1.32434 3.86156 3.97471 1.66667 9.5 1.66667V44.3333ZM24.9385 37.9385C29.0331 33.8439 31.3333 28.2905 31.3333 22.5H-11.3333C-11.3333 16.9747 -9.13844 11.6757 -5.23139 7.76861L24.9385 37.9385ZM31.3333 22.5V11.5H-11.3333V22.5H31.3333ZM31.3333 11.5C31.3333 5.7095 29.0331 0.156087 24.9385 -3.9385L-5.23139 26.2314C-9.13844 22.3243 -11.3333 17.0253 -11.3333 11.5H31.3333ZM24.9385 -3.9385C20.8439 -8.03308 15.2905 -10.3333 9.5 -10.3333V32.3333C3.97471 32.3333 -1.32434 30.1384 -5.23139 26.2314L24.9385 -3.9385ZM9.5 -10.3333H1.5V32.3333H9.5V-10.3333ZM22.5 2.66667H14.5V45.3333H22.5V2.66667ZM14.5 2.66667C25.4551 2.66667 34.3333 11.5449 34.3333 22.5H-8.33333C-8.33333 35.1091 1.89092 45.3333 14.5 45.3333V2.66667ZM34.3333 22.5V17.5H-8.33333V22.5H34.3333ZM34.3333 17.5C34.3333 28.4551 25.4551 37.3333 14.5 37.3333V-5.33333C1.89092 -5.33333 -8.33333 4.89092 -8.33333 17.5H34.3333ZM14.5 37.3333H22.5V-5.33333H14.5V37.3333ZM22.5 37.3333C11.5449 37.3333 2.66667 28.4551 2.66667 17.5H45.3333C45.3333 4.89092 35.1091 -5.33333 22.5 -5.33333V37.3333ZM2.66667 17.5V22.5H45.3333V17.5H2.66667ZM2.66667 22.5C2.66667 11.5449 11.5449 2.66667 22.5 2.66667V45.3333C35.1091 45.3333 45.3333 35.1091 45.3333 22.5H2.66667ZM14.5 -4.33333C8.7095 -4.33333 3.15609 -2.03308 -0.938499 2.0615L29.2314 32.2314C25.3243 36.1384 20.0253 38.3333 14.5 38.3333V-4.33333ZM-0.938499 2.0615C-5.03308 6.15609 -7.33333 11.7095 -7.33333 17.5H35.3333C35.3333 23.0253 33.1384 28.3243 29.2314 32.2314L-0.938499 2.0615ZM-7.33333 17.5V22.5H35.3333V17.5H-7.33333ZM-7.33333 22.5C-7.33333 28.2905 -5.03308 33.8439 -0.938499 37.9385L29.2314 7.76861C33.1384 11.6757 35.3333 16.9747 35.3333 22.5H-7.33333ZM-0.938499 37.9385C3.15609 42.0331 8.7095 44.3333 14.5 44.3333V1.66667C20.0253 1.66667 25.3243 3.86156 29.2314 7.76861L-0.938499 37.9385ZM14.5 44.3333H22.5V1.66667H14.5V44.3333ZM22.5 44.3333C28.2905 44.3333 33.8439 42.0331 37.9385 37.9385L7.76861 7.76861C11.6757 3.86156 16.9747 1.66667 22.5 1.66667V44.3333ZM37.9385 37.9385C42.0331 33.8439 44.3333 28.2905 44.3333 22.5H1.66667C1.66667 16.9747 3.86156 11.6757 7.76861 7.76861L37.9385 37.9385ZM44.3333 22.5V17.5H1.66667V22.5H44.3333ZM44.3333 17.5C44.3333 11.7095 42.0331 6.15609 37.9385 2.0615L7.76861 32.2314C3.86156 28.3243 1.66667 23.0253 1.66667 17.5H44.3333ZM37.9385 2.0615C33.8439 -2.03308 28.2905 -4.33333 22.5 -4.33333V38.3333C16.9747 38.3333 11.6757 36.1384 7.76861 32.2314L37.9385 2.0615ZM22.5 -4.33333H14.5V38.3333H22.5V-4.33333ZM22.5 -7.33333H14.5V35.3333H22.5V-7.33333ZM14.5 -7.33333C25.4551 -7.33333 34.3333 1.54492 34.3333 12.5H-8.33333C-8.33333 25.1091 1.89092 35.3333 14.5 35.3333V-7.33333ZM34.3333 12.5V1.5H-8.33333V12.5H34.3333ZM34.3333 1.5C34.3333 12.4551 25.4551 21.3333 14.5 21.3333V-21.3333C1.89092 -21.3333 -8.33333 -11.1091 -8.33333 1.5H34.3333ZM14.5 21.3333H22.5V-21.3333H14.5V21.3333ZM22.5 21.3333C11.5449 21.3333 2.66667 12.4551 2.66667 1.5H45.3333C45.3333 -11.1091 35.1091 -21.3333 22.5 -21.3333V21.3333ZM2.66667 1.5V12.5H45.3333V1.5H2.66667ZM2.66667 12.5C2.66667 1.54492 11.5449 -7.33333 22.5 -7.33333V35.3333C35.1091 35.3333 45.3333 25.1091 45.3333 12.5H2.66667ZM14.5 -20.3333C8.70946 -20.3333 3.15606 -18.0331 -0.938499 -13.9385L29.2314 16.2314C25.3244 20.1384 20.0253 22.3333 14.5 22.3333V-20.3333ZM-0.938499 -13.9385C-5.03307 -9.84392 -7.33333 -4.29052 -7.33333 1.5H35.3333C35.3333 7.0253 33.1384 12.3244 29.2314 16.2314L-0.938499 -13.9385ZM-7.33333 1.5V12.5H35.3333V1.5H-7.33333ZM-7.33333 12.5C-7.33333 18.2905 -5.03308 23.8439 -0.938499 27.9385L29.2314 -2.23139C33.1384 1.67566 35.3333 6.97472 35.3333 12.5H-7.33333ZM-0.938499 27.9385C3.15609 32.0331 8.7095 34.3333 14.5 34.3333V-8.33333C20.0253 -8.33333 25.3243 -6.13844 29.2314 -2.23139L-0.938499 27.9385ZM14.5 34.3333H22.5V-8.33333H14.5V34.3333ZM22.5 34.3333C28.2905 34.3333 33.8439 32.0331 37.9385 27.9385L7.76861 -2.23139C11.6757 -6.13844 16.9747 -8.33333 22.5 -8.33333V34.3333ZM37.9385 27.9385C42.0331 23.8439 44.3333 18.2905 44.3333 12.5H1.66667C1.66667 6.97472 3.86156 1.67566 7.76861 -2.23139L37.9385 27.9385ZM44.3333 12.5V1.5H1.66667V12.5H44.3333ZM44.3333 1.5C44.3333 -4.29052 42.0331 -9.84392 37.9385 -13.9385L7.76861 16.2314C3.86157 12.3244 1.66667 7.0253 1.66667 1.5H44.3333ZM37.9385 -13.9385C33.8439 -18.0331 28.2905 -20.3333 22.5 -20.3333V22.3333C16.9747 22.3333 11.6756 20.1384 7.76861 16.2314L37.9385 -13.9385ZM22.5 -20.3333H14.5V22.3333H22.5V-20.3333Z" fill="#030303" mask="url(#path-1-inside-1_714_6703)"/>
</svg>
