<svg width="17" height="18" viewBox="0 0 17 18" fill="none" xmlns="http://www.w3.org/2000/svg">
<path d="M15.5508 7.33335H0.550781M11.3841 0.666687V4.00002M4.71745 0.666687V4.00002M4.55078 17.3334H11.5508C12.9509 17.3334 13.651 17.3334 14.1858 17.0609C14.6562 16.8212 15.0386 16.4387 15.2783 15.9683C15.5508 15.4336 15.5508 14.7335 15.5508 13.3334V6.33335C15.5508 4.93322 15.5508 4.23316 15.2783 3.69838C15.0386 3.22797 14.6562 2.84552 14.1858 2.60584C13.651 2.33335 12.9509 2.33335 11.5508 2.33335H4.55078C3.15065 2.33335 2.45058 2.33335 1.9158 2.60584C1.4454 2.84552 1.06295 3.22797 0.823265 3.69838C0.550781 4.23316 0.550781 4.93322 0.550781 6.33335V13.3334C0.550781 14.7335 0.550781 15.4336 0.823265 15.9683C1.06295 16.4387 1.4454 16.8212 1.9158 17.0609C2.45058 17.3334 3.15065 17.3334 4.55078 17.3334Z" stroke="#667085" stroke-linecap="round" stroke-linejoin="round"/>
</svg>
