<svg width="7" height="14" viewBox="0 0 7 14" fill="none" xmlns="http://www.w3.org/2000/svg">
<path d="M2.736 13.312C2.672 13.312 2.61333 13.2853 2.56 13.232C2.50667 13.1787 2.48533 13.0987 2.496 12.992L2.64 11.856C2.65067 11.8027 2.64 11.7653 2.608 11.744C2.576 11.7227 2.54933 11.712 2.528 11.712C2.22933 11.6587 1.94667 11.5733 1.68 11.456C1.424 11.3387 1.18933 11.1947 0.976 11.024C0.944 10.9813 0.906667 10.9387 0.864 10.896C0.832 10.8427 0.805333 10.7893 0.784 10.736C0.730667 10.5333 0.698667 10.2827 0.688 9.984C0.677333 9.67467 0.661333 9.41867 0.64 9.216C0.64 9.088 0.736 9.024 0.928 9.024C0.981333 9.024 1.02933 9.03467 1.072 9.056C1.12533 9.07733 1.15733 9.12 1.168 9.184C1.31733 9.70667 1.51467 10.1173 1.76 10.416C2.00533 10.7147 2.27733 10.9227 2.576 11.04C2.608 11.0507 2.64 11.056 2.672 11.056C2.704 11.056 2.72 11.04 2.72 11.008L3.152 7.344C3.16267 7.30133 3.15733 7.25867 3.136 7.216C3.11467 7.17333 3.056 7.12533 2.96 7.072C2.61867 6.86933 2.288 6.65067 1.968 6.416C1.648 6.18133 1.38667 5.91467 1.184 5.616C0.992 5.30667 0.896 4.94933 0.896 4.544C0.896 4.08533 0.997333 3.664 1.2 3.28C1.41333 2.88533 1.728 2.56533 2.144 2.32C2.57067 2.064 3.09333 1.92 3.712 1.888C3.81867 1.888 3.872 1.856 3.872 1.792L3.984 0.879999C4.00533 0.773333 4.05867 0.704 4.144 0.672C4.24 0.629333 4.34133 0.608 4.448 0.608C4.50133 0.608 4.54933 0.634666 4.592 0.688C4.63467 0.741333 4.656 0.794666 4.656 0.848C4.656 0.901333 4.64533 0.997333 4.624 1.136C4.60267 1.264 4.58667 1.39733 4.576 1.536C4.56533 1.664 4.55467 1.75467 4.544 1.808C4.544 1.872 4.576 1.90933 4.64 1.92C4.85333 1.96267 5.04533 2.016 5.216 2.08C5.38667 2.13333 5.53067 2.18667 5.648 2.24C5.73333 2.26133 5.80267 2.30933 5.856 2.384C5.90933 2.448 5.94667 2.51733 5.968 2.592C6.02133 2.79467 6.08533 3.02933 6.16 3.296C6.23467 3.552 6.272 3.792 6.272 4.016C6.272 4.08 6.24533 4.12267 6.192 4.144C6.14933 4.16533 6.10133 4.176 6.048 4.176C5.952 4.176 5.86133 4.16 5.776 4.128C5.69067 4.08533 5.63733 4.03733 5.616 3.984C5.46667 3.62133 5.296 3.328 5.104 3.104C4.92267 2.86933 4.70933 2.69867 4.464 2.592C4.42133 2.592 4.4 2.61867 4.4 2.672L4.016 5.84C4.00533 5.904 4.00533 5.94667 4.016 5.968C4.03733 5.98933 4.10133 6.04267 4.208 6.128C4.56 6.33067 4.90133 6.55467 5.232 6.8C5.56267 7.04533 5.83467 7.33867 6.048 7.68C6.26133 8.01067 6.368 8.416 6.368 8.896C6.368 9.70667 6.10133 10.3733 5.568 10.896C5.03467 11.408 4.32 11.6907 3.424 11.744C3.33867 11.744 3.29067 11.7813 3.28 11.856L3.136 13.072C3.12533 13.1573 3.07733 13.216 2.992 13.248C2.90667 13.2907 2.82133 13.312 2.736 13.312ZM3.504 11.152C3.97333 11.12 4.35733 10.96 4.656 10.672C4.95467 10.3733 5.104 9.97333 5.104 9.472C5.104 8.98133 4.992 8.608 4.768 8.352C4.55467 8.096 4.26133 7.85067 3.888 7.616C3.81333 7.57333 3.776 7.6 3.776 7.696L3.376 10.992C3.376 11.0987 3.41867 11.152 3.504 11.152ZM3.248 5.536C3.344 5.57867 3.392 5.57333 3.392 5.52L3.744 2.608C3.744 2.52267 3.70667 2.48 3.632 2.48C3.216 2.512 2.864 2.64 2.576 2.864C2.288 3.088 2.144 3.48267 2.144 4.048C2.144 4.34667 2.24533 4.61333 2.448 4.848C2.65067 5.08267 2.91733 5.312 3.248 5.536Z" fill="#475467"/>
</svg>
