<svg width="21" height="21" viewBox="0 0 21 21" fill="none" xmlns="http://www.w3.org/2000/svg">
<path d="M7.55062 18.8334H12.5506C16.7173 18.8334 18.384 17.1667 18.384 13V8.00002C18.384 3.83335 16.7173 2.16669 12.5506 2.16669H7.55062C3.38395 2.16669 1.71729 3.83335 1.71729 8.00002V13C1.71729 17.1667 3.38395 18.8334 7.55062 18.8334Z" stroke="#566261" stroke-width="1.5" stroke-linecap="round" stroke-linejoin="round"/>
<path d="M7.55094 8.83333C8.47142 8.83333 9.21761 8.08714 9.21761 7.16667C9.21761 6.24619 8.47142 5.5 7.55094 5.5C6.63047 5.5 5.88428 6.24619 5.88428 7.16667C5.88428 8.08714 6.63047 8.83333 7.55094 8.83333Z" stroke="#566261" stroke-width="1.5" stroke-linecap="round" stroke-linejoin="round"/>
<path d="M2.27588 16.2917L6.38421 13.5333C7.04255 13.0917 7.99255 13.1417 8.58421 13.65L8.85921 13.8917C9.50921 14.45 10.5592 14.45 11.2092 13.8917L14.6759 10.9167C15.3259 10.3583 16.3759 10.3583 17.0259 10.9167L18.3842 12.0833" stroke="#566261" stroke-width="1.5" stroke-linecap="round" stroke-linejoin="round"/>
</svg>
