<svg width="20" height="20" viewBox="0 0 20 20" fill="none" xmlns="http://www.w3.org/2000/svg">
<path d="M9.99935 18.0417C9.74102 18.0417 9.49102 18.0083 9.28268 17.9333C6.09935 16.8417 1.04102 12.9667 1.04102 7.24168C1.04102 4.32501 3.39935 1.95834 6.29935 1.95834C7.70768 1.95834 9.02435 2.50834 9.99935 3.49168C10.9743 2.50834 12.291 1.95834 13.6993 1.95834C16.5993 1.95834 18.9577 4.33334 18.9577 7.24168C18.9577 12.975 13.8993 16.8417 10.716 17.9333C10.5077 18.0083 10.2577 18.0417 9.99935 18.0417ZM6.29935 3.20834C4.09102 3.20834 2.29102 5.01668 2.29102 7.24168C2.29102 12.9333 7.76602 16.1 9.69102 16.7583C9.84102 16.8083 10.166 16.8083 10.316 16.7583C12.2327 16.1 17.716 12.9417 17.716 7.24168C17.716 5.01668 15.916 3.20834 13.7077 3.20834C12.441 3.20834 11.266 3.80001 10.5077 4.82501C10.2743 5.14168 9.74102 5.14168 9.50768 4.82501C8.73268 3.79168 7.56602 3.20834 6.29935 3.20834Z" fill="#4ED7D9"/>
</svg>
