<svg width="24" height="24" viewBox="0 0 24 24" fill="none" xmlns="http://www.w3.org/2000/svg">
<path d="M23.1187 9.16836L14.5453 1.98711C13.0734 0.754297 10.9265 0.754297 9.45466 1.98711L0.881226 9.16836C-0.159399 10.0402 -0.295336 11.5918 0.576539 12.6277C1.00779 13.1434 1.63123 13.4574 2.29685 13.4996V20.484C2.29685 21.834 3.39373 22.9309 4.74841 22.9355H10.0172V16.8887C10.0172 15.7965 10.9031 14.9105 11.9953 14.9105C13.0875 14.9105 13.9734 15.7965 13.9734 16.8887V22.9402H19.2469C20.5969 22.9402 21.6937 21.8434 21.6984 20.4887V13.5043C23.0531 13.4152 24.0797 12.2434 23.9906 10.8887C23.9437 10.223 23.6297 9.59961 23.1187 9.16836ZM21.539 12.5715H20.7609V20.4887C20.7609 21.323 20.0859 22.0027 19.2469 22.0027H14.9109V16.8887C14.9109 15.2762 13.6031 13.973 11.9953 13.973C10.3828 13.973 9.07966 15.2809 9.07966 16.8887V22.0027H4.74841C3.91404 22.0027 3.23435 21.3277 3.23435 20.4934V12.5715H2.46091C1.0406 12.5715 0.398414 10.7996 1.48591 9.88555L10.0594 2.7043C11.1844 1.76211 12.8203 1.76211 13.9453 2.7043L22.514 9.89023C23.6015 10.7996 22.9594 12.5715 21.539 12.5715Z" fill="#2A2C37" stroke="#2A2C37" stroke-width="0.3"/>
</svg>
