<svg width="15" height="15" viewBox="0 0 15 15" fill="none" xmlns="http://www.w3.org/2000/svg">
<path d="M7.56694 10.4146C9.01914 10.4146 10.1964 9.241 10.1964 7.79326C10.1964 6.34551 9.01914 5.17188 7.56694 5.17188C6.11474 5.17188 4.9375 6.34551 4.9375 7.79326C4.9375 9.241 6.11474 10.4146 7.56694 10.4146Z" fill="#252525"/>
<path d="M10.4252 0.789062H4.66769C2.37827 0.789062 0.519531 2.64211 0.519531 4.92452V10.6192C0.519531 12.9468 2.37827 14.7999 4.66769 14.7999H10.3799C12.7147 14.7999 14.5734 12.9468 14.5734 10.6644V4.92452C14.5734 2.64211 12.7147 0.789062 10.4252 0.789062ZM7.56913 11.2294C5.64239 11.2294 4.12367 9.67012 4.12367 7.79448C4.12367 5.91884 5.66506 4.35957 7.56913 4.35957C9.45054 4.35957 10.9919 5.91884 10.9919 7.79448C10.9919 9.67012 9.47321 11.2294 7.56913 11.2294ZM12.3293 4.67594C12.1026 4.92452 11.7626 5.06011 11.3773 5.06011C11.0373 5.06011 10.6973 4.92452 10.4252 4.67594C10.1759 4.42736 10.0399 4.11099 10.0399 3.72682C10.0399 3.34265 10.1759 3.04887 10.4252 2.7777C10.6746 2.50652 10.9919 2.37093 11.3773 2.37093C11.7173 2.37093 12.08 2.50652 12.3293 2.7551C12.556 3.04887 12.7147 3.38785 12.7147 3.74942C12.692 4.11099 12.556 4.42736 12.3293 4.67594Z" fill="#252525"/>
<path d="M11.3995 3.18359C11.1048 3.18359 10.8555 3.43217 10.8555 3.72595C10.8555 4.01972 11.1048 4.2683 11.3995 4.2683C11.6942 4.2683 11.9435 4.01972 11.9435 3.72595C11.9435 3.43217 11.7168 3.18359 11.3995 3.18359Z" fill="#252525"/>
</svg>
