<svg width="20" height="20" viewBox="0 0 20 20" fill="none" xmlns="http://www.w3.org/2000/svg">
<g clip-path="url(#clip0_714_5020)">
<path d="M12.1624 15.7753H7.12803C6.95066 15.7753 6.78056 15.7048 6.65515 15.5794C6.52973 15.454 6.45928 15.2839 6.45928 15.1065V14.4003C6.46011 14.1226 6.40365 13.8477 6.29342 13.5928C6.18319 13.338 6.02157 13.1086 5.81865 12.919C5.24345 12.3822 4.78466 11.733 4.47073 11.0116C4.15679 10.2902 3.99441 9.51201 3.99365 8.72526C4.00095 7.79663 4.23702 6.88413 4.68099 6.06848C5.12496 5.25283 5.76313 4.55919 6.53904 4.04894C7.31494 3.53868 8.20466 3.22755 9.12946 3.14306C10.0543 3.05857 10.9856 3.20334 11.8411 3.56456C12.6967 3.92577 13.45 4.49229 14.0344 5.21399C14.6188 5.93569 15.0163 6.79031 15.1917 7.70224C15.3672 8.61417 15.3151 9.55528 15.0402 10.4423C14.7653 11.3293 14.276 12.1349 13.6155 12.7878C13.1055 13.2966 12.8169 13.9861 12.8124 14.7065V15.1065C12.8133 15.2809 12.7457 15.4487 12.6241 15.5737C12.5025 15.6988 12.3368 15.7712 12.1624 15.7753ZM9.64365 3.65963C8.30421 3.66624 7.02184 4.20275 6.07676 5.15193C5.13167 6.10112 4.60071 7.3858 4.5999 8.72526C4.60059 9.4287 4.74573 10.1245 5.02633 10.7696C5.30693 11.4146 5.717 11.9952 6.23115 12.4753C6.49557 12.7212 6.70621 13.0191 6.84981 13.3504C6.99341 13.6817 7.06685 14.0392 7.06553 14.4003V15.1065C7.06629 15.1228 7.07312 15.1383 7.08468 15.1499C7.09624 15.1614 7.1117 15.1682 7.12803 15.169H12.1624C12.1776 15.1668 12.1916 15.1594 12.2019 15.1479C12.2121 15.1365 12.2181 15.1219 12.2187 15.1065V14.7065C12.2172 13.8229 12.5654 12.9747 13.1874 12.3471C13.8981 11.6396 14.3838 10.7377 14.5832 9.7548C14.7826 8.77194 14.6869 7.75206 14.3081 6.82346C13.9293 5.89486 13.2844 5.09902 12.4544 4.53606C11.6244 3.9731 10.6465 3.66817 9.64365 3.65963Z" fill="black"/>
<path d="M10.6998 19.0438H8.58418C8.20777 19.0447 7.84343 18.911 7.55691 18.6669C7.27039 18.4228 7.08056 18.0843 7.02168 17.7125C7.00972 17.6287 7.00346 17.5441 7.00293 17.4594V15.4719C7.01986 15.4043 7.05889 15.3443 7.11381 15.3015C7.16873 15.2586 7.23639 15.2354 7.30605 15.2354C7.37572 15.2354 7.44338 15.2586 7.4983 15.3015C7.55322 15.3443 7.59224 15.4043 7.60918 15.4719V17.4594C7.60608 17.5156 7.60608 17.5719 7.60918 17.6281C7.64802 17.8574 7.76775 18.0651 7.94663 18.2136C8.12552 18.3621 8.35172 18.4415 8.58418 18.4375H10.6998C10.9316 18.4368 11.1556 18.3538 11.3319 18.2032C11.5082 18.0527 11.6253 17.8445 11.6623 17.6156C11.6682 17.5637 11.6682 17.5113 11.6623 17.4594V15.4719C11.6792 15.4043 11.7183 15.3443 11.7732 15.3015C11.8281 15.2586 11.8958 15.2354 11.9654 15.2354C12.0351 15.2354 12.1028 15.2586 12.1577 15.3015C12.2126 15.3443 12.2516 15.4043 12.2686 15.4719V17.4594C12.2691 17.5452 12.2628 17.6308 12.2498 17.7156C12.1883 18.0837 11.9993 18.4183 11.7159 18.6611C11.4326 18.9039 11.0729 19.0393 10.6998 19.0438Z" fill="black"/>
<path d="M9.85594 20.0001H9.39344C9.07956 19.9749 8.78461 19.8399 8.56053 19.6187C8.33644 19.3974 8.1976 19.1042 8.16844 18.7907C8.17442 18.7217 8.20318 18.6566 8.25019 18.6057C8.2972 18.5548 8.3598 18.5209 8.42814 18.5095C8.49648 18.498 8.56669 18.5096 8.62772 18.5424C8.68876 18.5752 8.73716 18.6274 8.76531 18.6907C8.83406 19.1001 9.09656 19.3938 9.39031 19.3938H9.85281C10.0273 19.3682 10.1879 19.284 10.3082 19.1551C10.4286 19.0262 10.5016 18.8603 10.5153 18.6845C10.5442 18.6206 10.5936 18.5683 10.6558 18.5359C10.7179 18.5036 10.7891 18.493 10.858 18.506C10.9268 18.519 10.9893 18.5547 11.0354 18.6075C11.0815 18.6603 11.1086 18.727 11.1122 18.797C10.9778 19.5063 10.4622 20.0001 9.85594 20.0001ZM11.9778 16.9407H7.30594C7.23837 16.9238 7.17839 16.8847 7.13554 16.8298C7.09269 16.7749 7.06941 16.7072 7.06941 16.6376C7.06941 16.5679 7.09269 16.5003 7.13554 16.4453C7.17839 16.3904 7.23837 16.3514 7.30594 16.3345H11.9934C12.061 16.3514 12.121 16.3904 12.1638 16.4453C12.2067 16.5003 12.23 16.5679 12.23 16.6376C12.23 16.7072 12.2067 16.7749 12.1638 16.8298C12.121 16.8847 12.061 16.9238 11.9934 16.9407H11.9778ZM11.9622 17.9657H7.32156C7.25399 17.9488 7.19402 17.9097 7.15116 17.8548C7.10831 17.7999 7.08503 17.7322 7.08503 17.6626C7.08503 17.5929 7.10831 17.5253 7.15116 17.4703C7.19402 17.4154 7.25399 17.3764 7.32156 17.3595H11.9622C12.0083 17.3479 12.0564 17.347 12.1029 17.3568C12.1493 17.3667 12.193 17.387 12.2304 17.4162C12.2679 17.4454 12.2982 17.4828 12.319 17.5255C12.3398 17.5682 12.3507 17.6151 12.3507 17.6626C12.3507 17.7101 12.3398 17.757 12.319 17.7997C12.2982 17.8423 12.2679 17.8797 12.2304 17.909C12.193 17.9382 12.1493 17.9585 12.1029 17.9683C12.0564 17.9781 12.0083 17.9773 11.9622 17.9657ZM3.55281 5.41258C3.50269 5.41165 3.45352 5.39867 3.40946 5.37474C3.36541 5.3508 3.32776 5.31662 3.29969 5.27508L2.52469 4.08446L1.23094 3.50321C1.18182 3.48011 1.13957 3.44463 1.10834 3.40024C1.0771 3.35586 1.05797 3.30411 1.05281 3.25008C1.04953 3.19576 1.06049 3.14153 1.08461 3.09275C1.10873 3.04397 1.14516 3.00233 1.19031 2.97196L2.38094 2.18758L2.96219 0.903205C2.98528 0.854091 3.02077 0.811837 3.06515 0.780603C3.10953 0.74937 3.16129 0.730234 3.21531 0.72508C3.26963 0.7218 3.32386 0.73276 3.37265 0.756877C3.42143 0.780993 3.46307 0.817429 3.49344 0.86258L4.26844 2.05321L5.56219 2.63446C5.6113 2.65755 5.65356 2.69303 5.68479 2.73742C5.71602 2.7818 5.73516 2.83355 5.74031 2.88758C5.7436 2.9419 5.73263 2.99613 5.70852 3.04491C5.6844 3.09369 5.64796 3.13533 5.60281 3.16571L4.41219 3.9407L3.83094 5.23446C3.80785 5.28357 3.77236 5.32582 3.72798 5.35706C3.68359 5.38829 3.63184 5.40743 3.57781 5.41258H3.55281ZM1.99031 3.17821L2.86219 3.56883C2.9145 3.59373 2.95886 3.63268 2.99031 3.68133L3.51219 4.48133L3.90281 3.60946C3.92771 3.55714 3.96666 3.51278 4.01531 3.48133L4.81531 2.95946L3.93719 2.56883C3.88488 2.54393 3.84052 2.50498 3.80906 2.45633L3.28719 1.65633L2.89656 2.52821C2.87167 2.58052 2.83272 2.62488 2.78406 2.65633L1.99031 3.17821ZM16.7591 16.922C16.7089 16.921 16.6598 16.908 16.6157 16.8841C16.5717 16.8602 16.534 16.826 16.5059 16.7845L15.7309 15.5938L14.4372 15.0001C14.3881 14.977 14.3458 14.9415 14.3146 14.8971C14.2834 14.8527 14.2642 14.801 14.2591 14.747C14.2558 14.6926 14.2667 14.6384 14.2909 14.5896C14.315 14.5408 14.3514 14.4992 14.3966 14.4688L15.5872 13.6938L16.1684 12.4001C16.1915 12.351 16.227 12.3087 16.2714 12.2775C16.3158 12.2462 16.3675 12.2271 16.4216 12.222C16.4759 12.2187 16.5301 12.2296 16.5789 12.2538C16.6277 12.2779 16.6693 12.3143 16.6997 12.3595L17.4747 13.5501L18.7684 14.1313C18.8176 14.1544 18.8598 14.1899 18.891 14.2343C18.9223 14.2787 18.9414 14.3304 18.9466 14.3845C18.9498 14.4388 18.9389 14.493 18.9148 14.5418C18.8907 14.5906 18.8542 14.6322 18.8091 14.6626L17.6184 15.4376L17.0372 16.7313C17.0141 16.7804 16.9786 16.8227 16.9342 16.8539C16.8898 16.8852 16.8381 16.9043 16.7841 16.9095L16.7591 16.922ZM15.1966 14.6876L16.0684 15.0782C16.1208 15.1031 16.1651 15.1421 16.1966 15.1907L16.7184 15.9907L17.1091 15.1188C17.134 15.0665 17.1729 15.0222 17.2216 14.9907L18.0216 14.4688L17.1497 14.0782C17.0974 14.0533 17.053 14.0144 17.0216 13.9657L16.4997 13.1657L16.1091 14.0376C16.0842 14.0899 16.0452 14.1343 15.9966 14.1657L15.1966 14.6876ZM15.6497 4.68758C15.599 4.68715 15.5492 4.67441 15.5046 4.65045C15.46 4.6265 15.4218 4.59205 15.3934 4.55008L14.6184 3.35946L13.3247 2.77821C13.2771 2.75382 13.2366 2.71764 13.207 2.67312C13.1774 2.62861 13.1597 2.57725 13.1557 2.52395C13.1516 2.47065 13.1613 2.4172 13.1837 2.36871C13.2062 2.32021 13.2408 2.27829 13.2841 2.24696L14.4747 1.47196L15.0559 0.178205C15.0793 0.128662 15.1153 0.0861277 15.1602 0.0548651C15.2052 0.0236025 15.2576 0.00470972 15.3122 8.00923e-05C15.3665 -0.00320021 15.4207 0.00776019 15.4695 0.0318766C15.5183 0.055993 15.5599 0.0924295 15.5903 0.13758L16.3653 1.32821L17.6559 1.90946C17.7051 1.93255 17.7473 1.96803 17.7785 2.01242C17.8098 2.0568 17.8289 2.10855 17.8341 2.16258C17.8373 2.2169 17.8264 2.27113 17.8023 2.31991C17.7782 2.36869 17.7417 2.41033 17.6966 2.44071L16.5091 3.2157L15.9372 4.50946C15.9141 4.55857 15.8786 4.60082 15.8342 4.63206C15.7898 4.66329 15.7381 4.68243 15.6841 4.68758H15.6497ZM14.0872 2.45321L14.9497 2.84383C15.002 2.86873 15.0464 2.90768 15.0778 2.95633L15.5997 3.75008L15.9934 2.87821C16.0164 2.82564 16.0545 2.78105 16.1028 2.75008L16.9028 2.22821L16.0341 1.84383C15.9806 1.81942 15.9351 1.78043 15.9028 1.73133L15.3809 0.93758L14.9997 1.80321C14.9748 1.85552 14.9358 1.89988 14.8872 1.93133L14.0872 2.45321Z" fill="black"/>
</g>
<defs>
<clipPath id="clip0_714_5020">
<rect width="20" height="20" fill="white"/>
</clipPath>
</defs>
</svg>
