<svg width="15" height="15" viewBox="0 0 15 15" fill="none" xmlns="http://www.w3.org/2000/svg">
<path d="M14.0039 0.789062H1.78547C1.20804 0.789062 0.746094 1.24747 0.746094 1.82047V13.9682C0.746094 14.5183 1.20804 14.9996 1.78547 14.9996H13.9577C14.5351 14.9996 14.9971 14.5412 14.9971 13.9682V1.79755C15.0433 1.24747 14.5813 0.789062 14.0039 0.789062ZM4.97289 12.868H2.87104V6.10655H4.97289V12.868ZM3.91041 5.16682C3.2175 5.16682 2.68626 4.61674 2.68626 3.95205C2.68626 3.28736 3.24059 2.73728 3.91041 2.73728C4.58023 2.73728 5.13457 3.28736 5.13457 3.95205C5.13457 4.61674 4.62643 5.16682 3.91041 5.16682ZM12.9414 12.868H10.8396V9.59042C10.8396 8.81113 10.8165 7.77973 9.73091 7.77973C8.62225 7.77973 8.46057 8.65069 8.46057 9.52166V12.868H6.35872V6.10655H8.41437V7.04628H8.43747C8.73773 6.49619 9.40755 5.94611 10.4469 5.94611C12.595 5.94611 12.9876 7.32132 12.9876 9.20078V12.868H12.9414Z" fill="#252525"/>
</svg>
