<svg width="24" height="20" viewBox="0 0 24 20" fill="none" xmlns="http://www.w3.org/2000/svg">
<path d="M22.8488 3.21638L5.65916 0.150182C4.90587 0.0146986 4.17406 0.541731 4.04342 1.29096L2.93632 7.64205H1.35484C0.607742 7.64205 0 8.24999 0 8.99689V18.5156C0 19.2625 0.607742 19.8704 1.35484 19.8704H18.8878C19.6349 19.8704 20.2426 19.2625 20.2426 18.5156V15.1686C20.7449 15.2582 21.2297 15.3639 21.6941 15.0861C22.0424 14.8777 22.2923 14.5182 22.3622 14.1178L23.9787 4.84373C24.1117 4.08096 23.6048 3.35089 22.8488 3.21638ZM4.80619 1.42392C4.86426 1.09121 5.1871 0.852183 5.52329 0.912183L22.7129 3.97838C23.0503 4.03857 23.2759 4.36702 23.2161 4.71057L22.9494 6.24154L4.53871 2.9578L4.80619 1.42392ZM19.4685 18.5156C19.4685 18.8357 19.2079 19.0962 18.8878 19.0962H1.35484C1.03471 19.0962 0.774194 18.8357 0.774194 18.5156V8.99689C0.774194 8.67676 1.03471 8.41625 1.35484 8.41625H18.8878C19.2079 8.41625 19.4685 8.67676 19.4685 8.99689V18.5156ZM21.5996 13.9848C21.4792 14.6733 20.7147 14.4664 20.2426 14.3822V8.99689C20.2426 8.24999 19.6349 7.64205 18.8878 7.64205H3.72232L4.40574 3.72038L5.52716 3.92031L22.8163 7.00412L21.5996 13.9848Z" fill="black"/>
<path d="M9.12018 17.5486H6.89437C6.79171 17.5486 6.69325 17.5079 6.62066 17.4353C6.54806 17.3627 6.50728 17.2642 6.50728 17.1616C6.50728 17.0589 6.54806 16.9604 6.62066 16.8878C6.69325 16.8152 6.79171 16.7745 6.89437 16.7745H9.12018C9.22285 16.7745 9.32131 16.8152 9.3939 16.8878C9.4665 16.9604 9.50728 17.0589 9.50728 17.1616C9.50728 17.2642 9.4665 17.3627 9.3939 17.4353C9.32131 17.5079 9.22285 17.5486 9.12018 17.5486ZM4.89154 17.5486H2.66573C2.56307 17.5486 2.46461 17.5079 2.39201 17.4353C2.31942 17.3627 2.27863 17.2642 2.27863 17.1616C2.27863 17.0589 2.31942 16.9604 2.39201 16.8878C2.46461 16.8152 2.56307 16.7745 2.66573 16.7745H4.89154C4.9942 16.7745 5.09266 16.8152 5.16526 16.8878C5.23785 16.9604 5.27863 17.0589 5.27863 17.1616C5.27863 17.2642 5.23785 17.3627 5.16526 17.4353C5.09266 17.5079 4.9942 17.5486 4.89154 17.5486ZM13.3488 17.5486H11.123C11.0204 17.5486 10.9219 17.5079 10.8493 17.4353C10.7767 17.3627 10.7359 17.2642 10.7359 17.1616C10.7359 17.0589 10.7767 16.9604 10.8493 16.8878C10.9219 16.8152 11.0204 16.7745 11.123 16.7745H13.3488C13.4515 16.7745 13.5499 16.8152 13.6225 16.8878C13.6951 16.9604 13.7359 17.0589 13.7359 17.1616C13.7359 17.2642 13.6951 17.3627 13.6225 17.4353C13.5499 17.5079 13.4515 17.5486 13.3488 17.5486ZM17.5777 17.5486H15.3519C15.2492 17.5486 15.1507 17.5079 15.0781 17.4353C15.0055 17.3627 14.9648 17.2642 14.9648 17.1616C14.9648 17.0589 15.0055 16.9604 15.0781 16.8878C15.1507 16.8152 15.2492 16.7745 15.3519 16.7745H17.5777C17.6803 16.7745 17.7788 16.8152 17.8514 16.8878C17.924 16.9604 17.9648 17.0589 17.9648 17.1616C17.9648 17.2642 17.924 17.3627 17.8514 17.4353C17.7788 17.5079 17.6803 17.5486 17.5777 17.5486ZM5.8916 15.5404H3.08786C2.55425 15.5404 2.12012 15.1063 2.12012 14.5726V13.4609C2.12012 12.9273 2.55425 12.4932 3.08786 12.4932H5.8916C6.42521 12.4932 6.85934 12.9273 6.85934 13.4609V14.5726C6.85934 15.1061 6.42502 15.5404 5.8916 15.5404ZM3.08786 13.2672C2.98121 13.2672 2.89431 13.3539 2.89431 13.4607V14.5725C2.89431 14.6793 2.98121 14.766 3.08786 14.766H5.8916C5.99825 14.766 6.08515 14.6793 6.08515 14.5725V13.4607C6.08515 13.3539 5.99825 13.2672 5.8916 13.2672H3.08786Z" fill="black"/>
</svg>
