<svg width="20" height="20" viewBox="0 0 20 20" fill="none" xmlns="http://www.w3.org/2000/svg">
<path d="M14.9999 5.96669C14.9499 5.95836 14.8916 5.95836 14.8416 5.96669C13.6916 5.92502 12.7749 4.98336 12.7749 3.81669C12.7749 2.62502 13.7332 1.66669 14.9249 1.66669C16.1166 1.66669 17.0749 2.63336 17.0749 3.81669C17.0666 4.98336 16.1499 5.92502 14.9999 5.96669Z" stroke="#292D32" stroke-width="1.25" stroke-linecap="round" stroke-linejoin="round"/>
<path d="M14.1417 12.0334C15.2834 12.225 16.5417 12.025 17.425 11.4334C18.6 10.65 18.6 9.3667 17.425 8.58337C16.5334 7.9917 15.2584 7.79169 14.1167 7.99169" stroke="#292D32" stroke-width="1.25" stroke-linecap="round" stroke-linejoin="round"/>
<path d="M4.9749 5.96663C5.0249 5.9583 5.08324 5.9583 5.13324 5.96663C6.28324 5.92496 7.1999 4.98329 7.1999 3.81663C7.1999 2.62496 6.24157 1.66663 5.0499 1.66663C3.85824 1.66663 2.8999 2.63329 2.8999 3.81663C2.90824 4.98329 3.8249 5.92496 4.9749 5.96663Z" stroke="#292D32" stroke-width="1.25" stroke-linecap="round" stroke-linejoin="round"/>
<path d="M5.83304 12.0333C4.69137 12.225 3.43304 12.025 2.54971 11.4333C1.37471 10.65 1.37471 9.36664 2.54971 8.58331C3.44137 7.99164 4.71637 7.79163 5.85804 7.99163" stroke="#292D32" stroke-width="1.25" stroke-linecap="round" stroke-linejoin="round"/>
<path d="M9.9999 12.1917C9.9499 12.1833 9.89157 12.1833 9.84157 12.1917C8.69157 12.15 7.7749 11.2083 7.7749 10.0417C7.7749 8.85 8.73323 7.89166 9.9249 7.89166C11.1166 7.89166 12.0749 8.85833 12.0749 10.0417C12.0666 11.2083 11.1499 12.1583 9.9999 12.1917Z" stroke="#292D32" stroke-width="1.25" stroke-linecap="round" stroke-linejoin="round"/>
<path d="M7.5751 14.8167C6.4001 15.6 6.4001 16.8833 7.5751 17.6667C8.90843 18.5583 11.0918 18.5583 12.4251 17.6667C13.6001 16.8833 13.6001 15.6 12.4251 14.8167C11.1001 13.9333 8.90843 13.9333 7.5751 14.8167Z" stroke="#292D32" stroke-width="1.25" stroke-linecap="round" stroke-linejoin="round"/>
</svg>
