<svg width="20" height="20" viewBox="0 0 20 20" fill="none" xmlns="http://www.w3.org/2000/svg">
<path d="M19 9.99987C19.0028 11.7866 18.4714 13.5334 17.474 15.0159C16.6514 16.2429 15.5391 17.2483 14.2356 17.9432C12.932 18.638 11.4772 19.001 10 18.9999C8.52277 19.001 7.06804 18.638 5.76444 17.9432C4.46085 17.2483 3.34858 16.2429 2.526 15.0159C1.74273 13.8483 1.2439 12.5134 1.06951 11.1183C0.895109 9.72319 1.05 8.30662 1.52175 6.98215C1.9935 5.65768 2.769 4.46216 3.78607 3.49142C4.80314 2.52068 6.0335 1.80173 7.37851 1.39221C8.72352 0.982677 10.1458 0.893962 11.5312 1.13317C12.9167 1.37238 14.2269 1.93286 15.3567 2.76969C16.4865 3.60651 17.4046 4.69639 18.0373 5.95197C18.67 7.20755 18.9997 8.59389 19 9.99987Z" stroke="#545454" stroke-width="1.5"/>
<path d="M11.2501 7C11.2501 7.69 10.6901 8.25 10.0001 8.25V9.75C10.7294 9.75 11.4289 9.46027 11.9446 8.94454C12.4603 8.42882 12.7501 7.72935 12.7501 7H11.2501ZM10.0001 8.25C9.31008 8.25 8.75008 7.69 8.75008 7H7.25008C7.25008 7.72935 7.53981 8.42882 8.05553 8.94454C8.57126 9.46027 9.27073 9.75 10.0001 9.75V8.25ZM8.75008 7C8.75008 6.31 9.31008 5.75 10.0001 5.75V4.25C9.27073 4.25 8.57126 4.53973 8.05553 5.05546C7.53981 5.57118 7.25008 6.27065 7.25008 7H8.75008ZM10.0001 5.75C10.6901 5.75 11.2501 6.31 11.2501 7H12.7501C12.7501 6.27065 12.4603 5.57118 11.9446 5.05546C11.4289 4.53973 10.7294 4.25 10.0001 4.25V5.75ZM3.16608 15.856L2.44708 15.642L2.33008 16.034L2.59708 16.344L3.16608 15.856ZM16.8341 15.856L17.4041 16.345L17.6701 16.035L17.5531 15.642L16.8341 15.856ZM7.00008 13.75H13.0001V12.25H7.00008V13.75ZM7.00008 12.25C5.9771 12.2497 4.98136 12.5797 4.16101 13.1909C3.34067 13.802 2.73954 14.6617 2.44708 15.642L3.88508 16.07C4.08533 15.3995 4.49665 14.8115 5.05789 14.3935C5.61912 13.9755 6.30029 13.7498 7.00008 13.75V12.25ZM10.0001 18.25C8.80949 18.2514 7.63279 17.9944 6.55116 17.4968C5.46954 16.9993 4.50874 16.273 3.73508 15.368L2.59708 16.344C3.51154 17.413 4.64692 18.272 5.92497 18.8598C7.20301 19.4476 8.59333 19.7513 10.0001 19.75V18.25ZM13.0001 13.75C14.4701 13.75 15.7151 14.728 16.1151 16.07L17.5531 15.642C17.2606 14.6617 16.6595 13.802 15.8391 13.1909C15.0188 12.5797 14.0231 12.2497 13.0001 12.25V13.75ZM16.2651 15.368C15.4914 16.273 14.5306 16.9993 13.449 17.4968C12.3674 17.9944 11.1907 18.2514 10.0001 18.25V19.75C11.4068 19.7513 12.7971 19.4476 14.0752 18.8598C15.3532 18.272 16.4896 17.414 17.4041 16.345L16.2651 15.368Z" fill="#545454"/>
</svg>
