<svg width="37" height="44" viewBox="0 0 37 44" fill="none" xmlns="http://www.w3.org/2000/svg">
<path d="M1.04492 1H36.0001V14.241C36.0001 20.3005 33.7594 33.1824 18.657 42.7429C18.657 42.7429 2.29972 35.8755 1.04492 14.241V1Z" fill="#A51C30"/>
<path d="M1 1H35.9552V14.241C35.9552 20.3005 33.7145 33.1375 18.612 42.7429C18.612 42.7429 2.2548 35.9204 1 14.241V1Z" stroke="black" stroke-width="0.915"/>
<path d="M27.5301 18.0113C27.5301 18.0113 27.2164 18.9988 25.8271 17.9665L21.0768 17.8318C21.0768 17.8318 20.4494 18.0113 20.3598 17.3829C20.3598 17.3829 20.4942 16.0813 20.4046 15.9466C20.4046 15.9466 20.4494 15.5876 19.822 15.5876C19.822 15.5876 18.8361 15.7222 18.8361 14.8694C18.8361 14.8694 18.6568 13.9717 20.0012 13.9717C20.0012 13.9717 20.4046 14.1512 20.4494 13.6126C20.4494 13.6126 20.4046 9.93207 20.4046 9.66276C20.4046 9.66276 20.539 9.30369 19.8668 9.2588C19.8668 9.2588 18.9257 9.43834 18.8361 8.85484C18.8361 8.85484 18.7913 7.91226 19.4187 7.86737C19.4187 7.86737 20.1805 7.91226 20.3149 7.73272C20.3149 7.73272 20.4942 7.82249 20.4494 7.14922L20.4942 5.98221C20.4942 5.98221 20.5838 5.66802 21.0768 5.7129C21.0768 5.7129 21.9731 5.75779 22.0627 5.66802C22.0627 5.66802 22.242 5.39871 22.3316 5.30894C22.3316 5.30894 22.7797 5.26405 22.8694 5.39871C22.8694 5.39871 23.5416 5.84756 26.1408 5.66802C26.1408 5.66802 26.5441 5.66802 26.6338 5.80267C26.6338 5.80267 27.1267 6.16175 27.3956 5.75779C27.3956 5.75779 27.7989 5.66802 29.0986 5.7129C29.0986 5.7129 30.4878 6.07198 31.4737 5.30894L31.7874 5.35382C31.7874 5.35382 32.1907 6.0271 32.4596 5.80267C32.4596 5.80267 33.3111 5.7129 33.4455 5.89244C33.4455 5.89244 33.7144 6.2964 33.58 7.41852C33.58 7.41852 33.4007 7.91226 34.2522 7.91226C34.2522 7.91226 35.1933 7.73272 35.0589 8.63041C35.0589 8.63041 35.3277 9.61788 33.7592 9.48322C33.7592 9.48322 33.58 9.75253 33.58 9.97696C33.58 9.97696 33.5352 13.2087 33.5352 13.5677C33.5352 13.5677 33.4904 14.0615 34.2074 14.0615C34.2074 14.0615 35.1037 14.0166 35.1485 14.8245C35.1485 14.8245 35.2829 15.9018 33.9385 15.7222C33.9385 15.7222 33.5352 15.7671 33.4904 16.0364L33.4455 17.4727C33.4455 17.4727 33.4904 18.1909 32.6837 18.0113C32.5493 18.0113 28.2471 18.1011 27.8886 17.9665C27.7541 17.9216 27.5749 17.8767 27.5301 18.0113Z" fill="white"/>
<path d="M18.3431 22.7685C18.3431 22.7685 18.5223 22.6787 18.612 22.5441C18.612 22.5441 19.1946 22.4992 19.2842 22.4094L21.1664 22.5441C21.1664 22.5441 23.0038 22.6787 23.8104 22.0952C23.8104 22.0952 24.0793 22.0952 24.3034 22.185C24.3034 22.185 24.7067 22.2748 24.7964 22.4543L25.8719 22.4094C25.8719 22.4094 26.4993 22.589 26.4545 22.9929V23.4867C26.4545 23.4867 26.32 24.519 26.6337 24.5639H27.4404C27.4404 24.5639 28.1126 24.8781 28.023 25.282C28.023 25.282 28.0678 25.8656 27.4404 25.9553C27.4404 25.9553 26.8578 26.1349 26.6337 26.09C26.6337 26.09 26.4545 26.3593 26.4097 26.6735L26.3649 30.3989C26.3649 30.3989 26.32 30.8029 26.9026 30.758C26.9026 30.758 27.7989 30.6682 28.023 31.162C28.023 31.162 28.2471 31.9699 27.7989 32.1045L27.4404 32.2841L26.7234 32.4187C26.7234 32.4187 26.4097 32.4636 26.3649 33.0022V33.9897C26.3649 33.9897 26.4097 34.663 25.8719 34.663L25.0652 34.7079C25.0652 34.7079 24.886 34.8874 24.4827 34.7527C24.4827 34.7527 19.6427 34.8425 19.5083 34.7976L18.9257 34.8874C18.9257 34.8874 18.2983 35.4709 17.8053 35.022L17.402 34.7079C17.402 34.7079 17.1331 34.7527 16.9987 34.7527C16.8642 34.7079 11.6658 34.7976 11.6658 34.7976C11.6658 34.7976 10.5454 34.9323 10.4558 34.5283C10.4558 34.5283 10.3213 33.092 10.3661 32.9125C10.3661 32.9125 10.3661 32.5085 10.0973 32.4636C10.0973 32.4636 8.97689 32.4187 8.97689 32.2841C8.97689 32.2841 8.39431 31.8801 8.57356 31.4313C8.57356 31.4313 8.75282 30.8478 9.38022 30.8029C9.38022 30.8029 10.2765 30.9375 10.2765 30.6682C10.2765 30.6682 10.3213 30.4887 10.3213 30.2194C10.3213 30.2194 10.3661 26.853 10.3661 26.6286C10.3661 26.6286 10.4558 26.1797 10.0973 26.1797C10.0973 26.1797 9.69392 26.3144 9.42504 26.1349C9.42504 26.1349 8.75282 26.1797 8.61838 25.6411C8.61838 25.6411 8.48394 25.282 8.66319 25.0127C8.66319 25.0127 8.97689 24.3844 9.87318 24.6088C9.87318 24.6088 10.3661 24.7434 10.4558 24.3844L10.411 23.0378C10.411 23.0378 10.2765 22.6787 10.9935 22.4543C10.9935 22.4543 11.8898 22.7236 12.2035 22.2748C12.2035 22.2748 12.5172 21.6464 12.7861 22.0952C12.7861 22.0952 13.3239 22.589 14.8028 22.5441C14.8028 22.5441 17.3572 22.3645 17.402 22.4543C17.402 22.4543 18.0294 22.5441 18.2086 22.7236L18.3431 22.7685Z" fill="white"/>
<path d="M10.635 18.0113C10.635 18.0113 10.3213 18.9988 8.93209 17.9664L4.18177 17.8766C4.18177 17.8766 3.55437 18.0562 3.46474 17.4278C3.46474 17.4278 3.59918 16.1261 3.50955 15.9915C3.50955 15.9915 3.55437 15.6324 2.92697 15.6324C2.92697 15.6324 1.98586 15.7671 1.94105 14.9142C1.94105 14.9142 1.76179 14.0166 3.10622 14.0166C3.10622 14.0166 3.50955 14.1961 3.55437 13.6575C3.55437 13.6575 3.50955 9.97692 3.50955 9.66273C3.50955 9.66273 3.644 9.30365 2.97178 9.25876C2.97178 9.25876 2.03068 9.4383 1.94105 8.80992C1.94105 8.80992 1.89624 7.86734 2.52364 7.82245C2.52364 7.82245 3.28548 7.86734 3.41992 7.6878C3.41992 7.6878 3.59918 7.77757 3.55437 7.10429L3.59918 5.93729C3.59918 5.93729 3.68881 5.6231 4.18177 5.66798C4.18177 5.66798 5.07805 5.71287 5.16768 5.6231C5.16768 5.6231 5.34694 5.35379 5.43657 5.26402C5.43657 5.26402 5.88471 5.21913 5.97434 5.35379C5.97434 5.35379 6.64656 5.80264 9.24579 5.6231C9.24579 5.6231 9.64912 5.6231 9.73875 5.75775C9.73875 5.75775 10.2317 6.11683 10.5006 5.71287C10.5006 5.71287 10.9039 5.6231 12.2035 5.66798C12.2035 5.66798 13.5928 6.02706 14.5339 5.26402L14.8476 5.3089C14.8476 5.3089 15.2509 5.98217 15.5198 5.75775C15.5198 5.75775 16.3713 5.66798 16.5057 5.84752C16.5057 5.84752 16.7746 6.25148 16.6402 7.3736C16.6402 7.3736 16.4609 7.86734 17.3124 7.86734C17.3124 7.86734 18.2535 7.6878 18.119 8.58549C18.119 8.58549 18.3879 9.57296 16.8194 9.4383C16.8194 9.4383 16.6402 9.70761 16.6402 9.93204C16.6402 9.93204 16.5953 13.1637 16.5953 13.5228C16.5953 13.5228 16.5505 14.0166 17.2676 14.0166C17.2676 14.0166 18.1638 13.9717 18.2087 14.7796C18.2087 14.7796 18.3431 15.8568 16.9987 15.6773C16.9987 15.6773 16.5953 15.7222 16.5505 15.9915L16.4609 17.4278C16.4609 17.4278 16.5057 18.146 15.6991 17.9664C15.5646 17.9664 11.2624 18.0562 10.9039 17.9215C10.9039 17.9215 10.7247 17.8766 10.635 18.0113Z" fill="white"/>
<path d="M27.5301 18.0113C27.5301 18.0113 27.2164 18.9988 25.8271 17.9665L21.0768 17.8318C21.0768 17.8318 20.4494 18.0113 20.3598 17.3829C20.3598 17.3829 20.4942 16.0813 20.4046 15.9466C20.4046 15.9466 20.4494 15.5876 19.822 15.5876C19.822 15.5876 18.8361 15.7222 18.8361 14.8694C18.8361 14.8694 18.6568 13.9717 20.0012 13.9717C20.0012 13.9717 20.4046 14.1512 20.4494 13.6126C20.4494 13.6126 20.4046 9.93207 20.4046 9.66276C20.4046 9.66276 20.539 9.30369 19.8668 9.2588C19.8668 9.2588 18.9257 9.43834 18.8361 8.85484C18.8361 8.85484 18.7913 7.91226 19.4187 7.86737C19.4187 7.86737 20.1805 7.91226 20.3149 7.73272C20.3149 7.73272 20.4942 7.82249 20.4494 7.14922L20.4942 5.98221C20.4942 5.98221 20.5838 5.66802 21.0768 5.7129C21.0768 5.7129 21.9731 5.75779 22.0627 5.66802C22.0627 5.66802 22.242 5.39871 22.3316 5.30894C22.3316 5.30894 22.7797 5.26405 22.8694 5.39871C22.8694 5.39871 23.5416 5.84756 26.1408 5.66802C26.1408 5.66802 26.5441 5.66802 26.6338 5.80267C26.6338 5.80267 27.1267 6.16175 27.3956 5.75779C27.3956 5.75779 27.7989 5.66802 29.0986 5.7129C29.0986 5.7129 30.4878 6.07198 31.4737 5.30894L31.7874 5.35382C31.7874 5.35382 32.1907 6.0271 32.4596 5.80267C32.4596 5.80267 33.3111 5.7129 33.4455 5.89244C33.4455 5.89244 33.7144 6.2964 33.58 7.41852C33.58 7.41852 33.4007 7.91226 34.2522 7.91226C34.2522 7.91226 35.1933 7.73272 35.0589 8.63041C35.0589 8.63041 35.3277 9.61788 33.7592 9.48322C33.7592 9.48322 33.58 9.75253 33.58 9.97696C33.58 9.97696 33.5352 13.2087 33.5352 13.5677C33.5352 13.5677 33.4904 14.0615 34.2074 14.0615C34.2074 14.0615 35.1037 14.0166 35.1485 14.8245C35.1485 14.8245 35.2829 15.9018 33.9385 15.7222C33.9385 15.7222 33.5352 15.7671 33.4904 16.0364L33.4455 17.4727C33.4455 17.4727 33.4904 18.1909 32.6837 18.0113C32.5493 18.0113 28.2471 18.1011 27.8886 17.9665C27.7541 17.9216 27.5749 17.8767 27.5301 18.0113Z" fill="#1E1E1E"/>
<path d="M27.5301 18.0113C27.5301 18.0113 27.2164 18.9988 25.8271 17.9665L21.0768 17.8318C21.0768 17.8318 20.4494 18.0113 20.3598 17.3829C20.3598 17.3829 20.4942 16.0813 20.4046 15.9466C20.4046 15.9466 20.4494 15.5876 19.822 15.5876C19.822 15.5876 18.8361 15.7222 18.8361 14.8694C18.8361 14.8694 18.6568 13.9717 20.0012 13.9717C20.0012 13.9717 20.4046 14.1512 20.4494 13.6126C20.4494 13.6126 20.4046 9.93207 20.4046 9.66276C20.4046 9.66276 20.539 9.30369 19.8668 9.2588C19.8668 9.2588 18.9257 9.43834 18.8361 8.85484C18.8361 8.85484 18.7913 7.91226 19.4187 7.86737C19.4187 7.86737 20.1805 7.91226 20.3149 7.73272C20.3149 7.73272 20.4942 7.82249 20.4494 7.14922L20.4942 5.98221C20.4942 5.98221 20.5838 5.66802 21.0768 5.7129C21.0768 5.7129 21.9731 5.75779 22.0627 5.66802C22.0627 5.66802 22.242 5.39871 22.3316 5.30894C22.3316 5.30894 22.7797 5.26405 22.8694 5.39871C22.8694 5.39871 23.5416 5.84756 26.1408 5.66802C26.1408 5.66802 26.5441 5.66802 26.6338 5.80267C26.6338 5.80267 27.1267 6.16175 27.3956 5.75779C27.3956 5.75779 27.7989 5.66802 29.0986 5.7129C29.0986 5.7129 30.4878 6.07198 31.4737 5.30894L31.7874 5.35382C31.7874 5.35382 32.1907 6.0271 32.4596 5.80267C32.4596 5.80267 33.3111 5.7129 33.4455 5.89244C33.4455 5.89244 33.7144 6.2964 33.58 7.41852C33.58 7.41852 33.4007 7.91226 34.2522 7.91226C34.2522 7.91226 35.1933 7.73272 35.0589 8.63041C35.0589 8.63041 35.3277 9.61788 33.7592 9.48322C33.7592 9.48322 33.58 9.75253 33.58 9.97696C33.58 9.97696 33.5352 13.2087 33.5352 13.5677C33.5352 13.5677 33.4904 14.0615 34.2074 14.0615C34.2074 14.0615 35.1037 14.0166 35.1485 14.8245C35.1485 14.8245 35.2829 15.9018 33.9385 15.7222C33.9385 15.7222 33.5352 15.7671 33.4904 16.0364L33.4455 17.4727C33.4455 17.4727 33.4904 18.1909 32.6837 18.0113C32.5493 18.0113 28.2471 18.1011 27.8886 17.9665C27.7541 17.9216 27.5749 17.8767 27.5301 18.0113Z" stroke="black" stroke-width="0.2189"/>
<path d="M22.1524 6.29634C22.1524 6.29634 22.1973 6.87985 22.1973 7.0145C22.1973 7.14915 22.1076 15.2284 22.1076 15.2284C22.1076 15.2284 22.1973 15.8568 21.6595 16.171C21.6595 16.171 21.525 16.2159 21.4802 15.8119L21.525 7.28381C21.5699 7.28381 21.6147 6.25146 22.1524 6.29634Z" fill="white"/>
<path d="M22.1524 6.29634C22.1524 6.29634 22.1973 6.87985 22.1973 7.0145C22.1973 7.14915 22.1076 15.2284 22.1076 15.2284C22.1076 15.2284 22.1973 15.8568 21.6595 16.171C21.6595 16.171 21.525 16.2159 21.4802 15.8119L21.525 7.28381C21.5699 7.28381 21.6147 6.25146 22.1524 6.29634Z" stroke="black" stroke-width="0.2305"/>
<path d="M21.2112 16.2601C21.2112 16.2601 21.256 8.27065 21.256 8.13599C21.2112 8.00134 21.3008 8.27065 21.3008 8.27065C21.3008 8.27065 21.2112 6.87922 21.5697 6.29572C21.5697 6.29572 21.4353 5.80198 20.8079 6.43037L20.763 7.50761C20.763 7.50761 20.763 8.18088 20.1805 8.13599C20.1805 8.13599 19.5082 8.09111 19.1945 8.4053C19.1945 8.4053 19.0153 9.03369 19.6875 8.89903C19.6875 8.89903 20.7182 8.89903 20.763 9.303L20.7182 13.6119C20.7182 13.6119 20.9423 14.3301 20.1356 14.3301C20.1356 14.3301 19.1497 14.2852 19.1945 14.8687C19.1945 14.8687 19.3738 15.3624 20.2253 15.2278C20.2253 15.2278 20.8079 15.3176 20.8079 15.9011V16.9783C20.8079 16.9783 20.763 17.4271 21.3008 17.4271H25.7374C25.7374 17.4271 25.9615 17.472 25.9615 17.1578C25.9615 17.1578 25.9167 16.9334 25.603 16.9334H21.8834C21.8834 16.9334 21.256 17.113 21.2112 16.2601Z" fill="white"/>
<path d="M22.0629 16.2155C22.0629 16.2155 21.9284 16.6194 22.3766 16.5297H25.2895L26.0961 16.7092C26.0961 16.7092 26.9028 16.5297 26.0961 16.0359C26.0961 16.0359 23.4969 16.0808 23.2728 15.9911C23.2728 15.9911 22.7351 15.8564 22.6006 15.8115C22.6006 15.8564 22.3317 15.7666 22.0629 16.2155Z" fill="white"/>
<path d="M22.0629 16.2155C22.0629 16.2155 21.9284 16.6194 22.3766 16.5297H25.2895L26.0961 16.7092C26.0961 16.7092 26.9028 16.5297 26.0961 16.0359C26.0961 16.0359 23.4969 16.0808 23.2728 15.9911C23.2728 15.9911 22.7351 15.8564 22.6006 15.8115C22.6006 15.8564 22.3317 15.7666 22.0629 16.2155Z" stroke="black" stroke-width="0.2305"/>
<path d="M26.9026 16.6201C26.9026 16.6201 26.3648 16.6201 26.4096 17.3382C26.4096 17.3382 26.4544 17.8769 27.037 17.8769C27.037 17.8769 27.53 17.7871 27.4852 17.2036C27.4852 17.2485 27.1715 16.5303 26.9026 16.6201Z" fill="white"/>
<path d="M27.3061 16.3501C27.3061 16.3501 27.575 16.0808 27.7094 16.0808C27.7094 16.0808 30.5327 16.3501 31.0257 15.9911C31.0257 15.9911 31.4738 15.9013 31.5635 15.9911C31.5635 15.9911 31.9668 16.3501 31.9668 16.5297C31.9668 16.5297 31.922 16.799 31.429 16.6195C31.429 16.6195 28.2472 16.6643 28.068 16.6643C28.1128 16.6643 27.2165 16.8439 27.3061 16.3501Z" fill="white"/>
<path d="M27.3061 16.3501C27.3061 16.3501 27.575 16.0808 27.7094 16.0808C27.7094 16.0808 30.5327 16.3501 31.0257 15.9911C31.0257 15.9911 31.4738 15.9013 31.5635 15.9911C31.5635 15.9911 31.9668 16.3501 31.9668 16.5297C31.9668 16.5297 31.922 16.799 31.429 16.6195C31.429 16.6195 28.2472 16.6643 28.068 16.6643C28.1128 16.6643 27.2165 16.8439 27.3061 16.3501Z" stroke="black" stroke-width="0.2305"/>
<path d="M27.6646 17.2481C27.6646 17.2481 27.6646 17.0237 28.0679 17.0237L32.0564 16.9788C32.0564 16.9788 32.4149 17.1583 32.4149 16.485C32.4149 16.485 32.5493 13.388 32.5941 9.97674C32.5941 8.94439 32.6389 7.91204 32.5941 6.92457C32.5941 6.92457 32.5045 6.52061 32.4149 6.43084C32.4149 6.43084 32.4149 5.98199 32.9078 6.16153C32.9078 6.16153 33.3112 6.20642 33.2215 6.8348L33.2663 7.82227C33.2663 7.82227 33.1767 8.27112 33.9386 8.13646C33.9386 8.13646 34.7004 8.27112 34.7452 8.54043C34.7452 8.54043 34.9693 9.12393 34.073 9.03416H33.4008C33.4008 9.03416 33.1319 9.2137 33.2215 9.52789L33.0423 13.7022C33.0423 13.7022 32.9975 14.4203 33.6697 14.3754C33.6697 14.3754 34.3867 14.3306 34.5211 14.555C34.5211 14.555 35.0141 15.2731 33.9386 15.2283C33.9386 15.2283 33.2663 15.1834 33.1319 15.318C33.1319 15.318 32.9975 15.4527 32.9526 16.7992C32.9526 16.7992 32.9975 17.6072 32.4149 17.5174C32.4149 17.5174 28.4712 17.5623 28.1127 17.4725C28.1127 17.4725 27.7542 17.5623 27.6646 17.2481Z" fill="white"/>
<path d="M22.6004 6.07204L22.5108 15.1837C22.5108 15.1837 22.466 15.5876 23.183 15.6774C23.183 15.6774 23.9897 15.7672 24.2138 15.6774C24.2138 15.6774 24.7515 15.6325 26.1408 15.7223C26.1408 15.7223 26.4993 16.0814 26.4993 15.6325C26.4993 15.6325 26.7234 8.2714 26.6337 6.70043C26.6337 6.70043 26.5889 6.02716 26.1408 6.02716C26.1408 6.02716 23.9897 6.2067 23.8104 6.02716L22.959 5.80273C22.8693 5.80273 22.5556 5.84762 22.6004 6.07204Z" fill="white"/>
<path d="M27.0371 6.52046C27.0371 6.52046 26.9474 10.7845 26.9922 10.9641L26.9474 14.5548L26.813 15.8116C26.813 15.8116 26.9922 16.0809 27.1267 15.9014C27.1267 15.9014 28.023 15.677 28.6056 15.7667C28.6056 15.7667 30.443 15.9463 30.8015 15.6321C30.8015 15.6321 31.0704 15.7667 31.16 15.3179C31.16 15.3179 31.2496 7.37327 31.2048 7.23862C31.2048 7.23862 31.2944 6.1165 31.2496 5.98184C31.2496 5.98184 31.2048 5.71254 30.7567 5.93696C30.7567 5.93696 30.8015 6.16138 28.1126 6.07161C28.1126 6.07161 27.1267 6.07161 27.0371 6.52046Z" fill="white"/>
<path d="M31.5634 6.3864L31.5186 15.3634C31.5186 15.3634 31.7426 16.1713 32.1011 16.0815C32.1011 16.0815 32.146 15.902 32.1908 15.6327L32.3252 7.10456C32.3252 7.05967 32.0563 5.71313 31.5634 6.3864Z" fill="white"/>
<path d="M31.5634 6.3864L31.5186 15.3634C31.5186 15.3634 31.7426 16.1713 32.1011 16.0815C32.1011 16.0815 32.146 15.902 32.1908 15.6327L32.3252 7.10456C32.3252 7.05967 32.0563 5.71313 31.5634 6.3864Z" stroke="black" stroke-width="0.2305"/>
<path d="M28.0678 9.07888C27.9782 8.85446 28.5608 8.80957 28.5608 8.80957L28.8297 8.85446C29.0089 8.80957 29.233 8.89934 29.233 8.89934C29.4123 9.21353 29.0986 9.39307 29.0986 9.39307L29.0089 9.79704C28.9641 10.1112 29.0089 12.8043 29.0089 12.8043C29.0538 12.939 29.2778 13.2083 29.2778 13.2083C29.2778 13.4776 28.9641 13.3878 28.9641 13.3878L28.1575 13.4327C27.8886 13.3878 27.9782 13.1185 27.9782 13.1185C28.2471 12.9839 28.3367 12.4452 28.3367 12.4452V9.6175L28.0678 9.07888Z" fill="#1E1E1E"/>
<path d="M24.2587 11.7272L24.2139 12.6249L24.4828 13.0288C24.662 13.2533 24.3483 13.4328 24.3483 13.4328L23.452 13.343C23.2728 13.2533 23.452 12.9839 23.452 12.9839C23.6761 12.8493 23.7209 12.4902 23.7209 12.4902L23.6761 10.8295L23.7209 9.61759C23.7209 9.48293 23.4968 9.21362 23.4968 9.21362C23.3176 9.16874 23.3624 8.94431 23.3624 8.94431C23.4072 8.80966 23.9002 8.89943 23.9002 8.89943H25.1102C26.2305 9.25851 26.0961 10.1113 26.0961 10.1113C26.1857 10.9192 25.2894 11.2783 25.2894 11.2783L25.2446 11.7272L26.0513 13.0288C26.1857 13.1635 26.1857 13.2533 26.1857 13.2533C26.0513 13.5674 25.6031 13.2533 25.6031 13.2533L24.5276 11.6374C24.4379 11.5027 24.2587 11.7272 24.2587 11.7272ZM24.3035 9.48293C24.3483 10.1113 24.3483 10.9641 24.3483 10.9641C24.8861 11.3681 25.1998 10.7846 25.1998 10.7846C25.9168 10.1113 25.1998 9.48293 25.0653 9.30339C24.9309 9.12385 24.3931 9.25851 24.3931 9.25851L24.3035 9.48293Z" fill="#1E1E1E"/>
<path d="M18.3431 22.7685C18.3431 22.7685 18.5223 22.6787 18.612 22.5441C18.612 22.5441 19.1946 22.4992 19.2842 22.4094L21.1664 22.5441C21.1664 22.5441 23.0038 22.6787 23.8104 22.0952C23.8104 22.0952 24.0793 22.0952 24.3034 22.185C24.3034 22.185 24.7067 22.2748 24.7964 22.4543L25.8719 22.4094C25.8719 22.4094 26.4993 22.589 26.4545 22.9929V23.4867C26.4545 23.4867 26.32 24.519 26.6337 24.5639H27.4404C27.4404 24.5639 28.1126 24.8781 28.023 25.282C28.023 25.282 28.0678 25.8656 27.4404 25.9553C27.4404 25.9553 26.8578 26.1349 26.6337 26.09C26.6337 26.09 26.4545 26.3593 26.4097 26.6735L26.3649 30.3989C26.3649 30.3989 26.32 30.8029 26.9026 30.758C26.9026 30.758 27.7989 30.6682 28.023 31.162C28.023 31.162 28.2471 31.9699 27.7989 32.1045L27.4404 32.2841L26.7234 32.4187C26.7234 32.4187 26.4097 32.4636 26.3649 33.0022V33.9897C26.3649 33.9897 26.4097 34.663 25.8719 34.663L25.0652 34.7079C25.0652 34.7079 24.886 34.8874 24.4827 34.7527C24.4827 34.7527 19.6427 34.8425 19.5083 34.7976L18.9257 34.8874C18.9257 34.8874 18.2983 35.4709 17.8053 35.022L17.402 34.7079C17.402 34.7079 17.1331 34.7527 16.9987 34.7527C16.8642 34.7079 11.6658 34.7976 11.6658 34.7976C11.6658 34.7976 10.5454 34.9323 10.4558 34.5283C10.4558 34.5283 10.3213 33.092 10.3661 32.9125C10.3661 32.9125 10.3661 32.5085 10.0973 32.4636C10.0973 32.4636 8.97689 32.4187 8.97689 32.2841C8.97689 32.2841 8.39431 31.8801 8.57356 31.4313C8.57356 31.4313 8.75282 30.8478 9.38022 30.8029C9.38022 30.8029 10.2765 30.9375 10.2765 30.6682C10.2765 30.6682 10.3213 30.4887 10.3213 30.2194C10.3213 30.2194 10.3661 26.853 10.3661 26.6286C10.3661 26.6286 10.4558 26.1797 10.0973 26.1797C10.0973 26.1797 9.69392 26.3144 9.42504 26.1349C9.42504 26.1349 8.75282 26.1797 8.61838 25.6411C8.61838 25.6411 8.48394 25.282 8.66319 25.0127C8.66319 25.0127 8.97689 24.3844 9.87318 24.6088C9.87318 24.6088 10.3661 24.7434 10.4558 24.3844L10.411 23.0378C10.411 23.0378 10.2765 22.6787 10.9935 22.4543C10.9935 22.4543 11.8898 22.7236 12.2035 22.2748C12.2035 22.2748 12.5172 21.6464 12.7861 22.0952C12.7861 22.0952 13.3239 22.589 14.8028 22.5441C14.8028 22.5441 17.3572 22.3645 17.402 22.4543C17.402 22.4543 18.0294 22.5441 18.2086 22.7236L18.3431 22.7685Z" fill="#1E1E1E"/>
<path d="M18.3431 22.7246C18.3431 22.7246 18.5223 22.6349 18.612 22.5002C18.612 22.5002 19.1946 22.4553 19.2842 22.3656L21.1664 22.5002C21.1664 22.5002 23.0038 22.6349 23.8104 22.0514C23.8104 22.0514 24.0793 22.0514 24.3034 22.1411C24.3034 22.1411 24.7067 22.2309 24.7964 22.4104L25.8719 22.3656C25.8719 22.3656 26.4993 22.5451 26.4545 22.9491V23.4428C26.4545 23.4428 26.32 24.4751 26.6337 24.52H27.4404C27.4404 24.52 28.1126 24.8342 28.023 25.2382C28.023 25.2382 28.0678 25.8217 27.4404 25.9114C27.4404 25.9114 26.8578 26.091 26.6337 26.0461C26.6337 26.0461 26.4545 26.3154 26.4097 26.6296L26.3649 30.3999C26.3649 30.3999 26.32 30.8039 26.9026 30.759C26.9026 30.759 27.7989 30.6692 28.023 31.163C28.023 31.163 28.2471 31.9709 27.7989 32.1056L27.4404 32.2851L26.7234 32.4197C26.7234 32.4197 26.4097 32.4646 26.3649 33.0032V33.9907C26.3649 33.9907 26.4097 34.664 25.8719 34.664L25.0652 34.7089C25.0652 34.7089 24.886 34.8884 24.4827 34.7538C24.4827 34.7538 19.6427 34.8435 19.5083 34.7986L18.9257 34.9333C18.9257 34.9333 18.2983 35.5168 17.8053 35.0679L17.402 34.7538C17.402 34.7538 17.1331 34.7986 16.9987 34.7986C16.8642 34.7538 11.6658 34.8435 11.6658 34.8435C11.6658 34.8435 10.5454 34.9782 10.4558 34.5742C10.4558 34.5742 10.3213 33.1379 10.3661 32.9584C10.3661 32.9584 10.3661 32.5544 10.0973 32.5095C10.0973 32.5095 8.97689 32.4646 8.97689 32.33C8.97689 32.33 8.39431 31.8811 8.57356 31.4772C8.57356 31.4772 8.75282 30.8937 9.38022 30.8488C9.38022 30.8488 10.2765 30.9834 10.2765 30.7141C10.2765 30.7141 10.3213 30.5346 10.3213 30.2653C10.3213 30.2653 10.3661 26.8989 10.3661 26.6745C10.3661 26.6745 10.4558 26.2256 10.0973 26.2256C10.0973 26.2256 9.69392 26.3603 9.42504 26.1808C9.42504 26.1808 8.75282 26.2256 8.61838 25.687C8.61838 25.687 8.48394 25.3279 8.66319 25.0586C8.66319 25.0586 8.97689 24.4303 9.87318 24.6547C9.87318 24.6547 10.3661 24.7893 10.4558 24.4303L10.411 23.0837C10.411 23.0837 10.2765 22.7246 10.9935 22.5002C10.9935 22.5002 11.8898 22.7695 12.2035 22.3207C12.2035 22.3207 12.5172 21.6923 12.7861 22.1411C12.7861 22.1411 13.3239 22.6349 14.8028 22.59C14.8028 22.59 17.3572 22.4104 17.402 22.5002C17.402 22.5002 18.0294 22.59 18.2086 22.7695L18.3431 22.7246Z" stroke="black" stroke-width="0.2189"/>
<path d="M19.105 33.9011C19.105 33.9011 19.4635 33.7216 19.6876 33.8114C19.9117 33.8563 23.2279 33.7665 23.2279 33.7665C23.2279 33.7665 24.662 33.9011 24.886 33.6767L25.2446 33.5421C25.2446 33.5421 25.379 33.3625 25.379 33.1381C25.379 32.9137 25.4238 32.1506 25.4238 32.1506L25.5134 31.8813C25.5134 31.8813 25.4686 31.612 25.5134 24.0265C25.5134 24.0265 25.6031 23.443 25.2446 23.0839C25.2446 23.0839 25.2446 22.8595 25.379 22.9044C25.5134 22.9493 25.4238 22.9493 25.4238 22.9493C25.4238 22.9493 25.9168 22.8146 26.0064 22.9941C26.0064 22.9941 26.2305 23.6674 26.0512 24.0714C26.0512 24.0714 26.0064 24.8793 26.4097 24.8793C26.4097 24.8793 26.589 25.0588 26.9027 24.9691C26.9027 24.9691 27.6197 25.0588 27.6197 25.2833C27.6197 25.2833 27.6197 25.777 27.1268 25.6872L26.4545 25.7321C26.4545 25.7321 26.0064 25.8219 26.0512 26.3605C26.096 26.8991 26.0064 30.7592 26.0064 30.7592C26.0064 30.7592 26.0064 31.2081 26.7234 31.2081C26.7234 31.2081 27.6197 31.1632 27.6197 31.4325C27.6197 31.4325 27.8438 32.016 27.2164 32.016C27.2164 32.016 26.0064 31.9711 26.096 32.3302C26.096 32.3302 26.0064 33.1381 25.9616 33.2728C25.9616 33.2728 26.096 33.946 25.9168 34.0358C25.9168 34.0358 25.8271 34.3949 25.0653 34.35C25.0653 34.35 20.1805 34.3051 19.4187 34.3949C19.4187 34.35 18.9706 34.3051 19.105 33.9011Z" fill="white"/>
<path d="M18.2088 33.3613C18.2088 33.3613 18.7018 33.4511 18.7018 33.8999C18.7018 34.3488 18.7466 34.6181 18.4329 34.663C18.164 34.7079 17.8503 34.6181 17.7607 34.259C17.671 33.8999 17.8055 33.4511 18.2088 33.3613Z" fill="white"/>
<path d="M18.7913 33.1374C18.7913 33.1374 19.2842 32.7783 19.5083 32.868C19.5083 32.868 22.1075 33.0476 22.8694 32.9129C23.676 32.7783 23.1831 32.868 23.1831 32.868C23.1831 32.868 23.8553 32.868 24.0794 32.5987C24.0794 32.5987 24.2586 32.5539 24.3931 32.7334L24.7964 33.1822C24.7964 33.1822 24.8412 33.4515 24.3482 33.4515C24.3482 33.4515 19.7324 33.4515 19.5979 33.4964C19.5531 33.4964 18.7016 33.6311 18.7913 33.1374Z" fill="white"/>
<path d="M18.7913 33.1374C18.7913 33.1374 19.2842 32.7783 19.5083 32.868C19.5083 32.868 22.1075 33.0476 22.8694 32.9129C23.676 32.7783 23.1831 32.868 23.1831 32.868C23.1831 32.868 23.8553 32.868 24.0794 32.5987C24.0794 32.5987 24.2586 32.5539 24.3931 32.7334L24.7964 33.1822C24.7964 33.1822 24.8412 33.4515 24.3482 33.4515C24.3482 33.4515 19.7324 33.4515 19.5979 33.4964C19.5531 33.4964 18.7016 33.6311 18.7913 33.1374Z" stroke="black" stroke-width="0.2305"/>
<path d="M12.069 23.083C12.069 23.083 12.2483 23.083 12.2483 23.4421L12.2035 32.0151C12.2035 32.0151 12.2931 32.5986 11.8001 32.9577C11.8001 32.9577 11.5312 33.2719 11.5312 32.7781L11.6657 24.0256C11.6209 23.9807 11.6657 23.3523 12.069 23.083Z" fill="white"/>
<path d="M12.069 23.083C12.069 23.083 12.2483 23.083 12.2483 23.4421L12.2035 32.0151C12.2035 32.0151 12.2931 32.5986 11.8001 32.9577C11.8001 32.9577 11.5312 33.2719 11.5312 32.7781L11.6657 24.0256C11.6209 23.9807 11.6657 23.3523 12.069 23.083Z" stroke="black" stroke-width="0.2305"/>
<path d="M11.621 23.1286C11.621 23.1286 11.2625 23.757 11.3073 23.8917L11.2625 25.7769C11.2625 25.7769 11.2177 26.9887 11.2625 27.1234C11.3073 27.258 11.2177 30.8488 11.2177 30.8488C11.2177 30.8488 11.1728 31.5221 11.2177 31.7465V33.2726C11.2177 33.2726 11.1728 33.9459 11.6658 33.7663C11.6658 33.7663 16.6402 33.6317 16.9539 33.7215C16.9539 33.7215 17.402 33.8112 17.2228 34.0357C17.2228 34.0357 17.2228 34.2152 16.9091 34.1703C16.9091 34.1703 14.5787 34.3947 12.4276 34.305C12.4276 34.305 10.9936 34.3947 10.904 34.2152C10.904 34.2152 10.6799 34.1703 10.6799 33.3624C10.6799 33.3624 10.6799 32.5993 10.6351 32.4647C10.6351 32.4647 10.6799 32.0607 9.96286 31.971C9.96286 31.971 8.97694 32.1505 8.93213 31.567C8.93213 31.567 9.06657 31.163 10.0525 31.2079C10.0525 31.2079 10.7695 31.3426 10.6351 30.7591L10.7247 26.5399C10.7247 26.5399 10.8143 25.8217 10.3214 25.7769C10.3214 25.7769 9.87323 25.732 9.73879 25.8217C9.73879 25.8217 8.93213 25.8217 8.97694 25.328C8.97694 25.328 9.24583 24.8343 10.0973 24.924C10.0973 24.924 10.7247 25.0587 10.7695 24.3405C10.7695 24.3405 10.7247 22.9042 11.0832 22.8145C11.0832 22.9042 11.8002 22.9042 11.621 23.1286Z" fill="white"/>
<path d="M12.4724 32.5088C12.4724 32.5088 12.8758 32.9128 13.5032 32.9128L17.3572 32.9576C17.3572 32.9576 17.8053 33.0025 17.7605 33.2269C17.7605 33.2269 17.7157 33.586 17.1779 33.4514L12.5173 33.4065L12.0243 33.4514C12.0243 33.4514 11.6658 33.4065 12.2035 32.7332L12.4724 32.5088Z" fill="white"/>
<path d="M12.4724 32.5088C12.4724 32.5088 12.8758 32.9128 13.5032 32.9128L17.3572 32.9576C17.3572 32.9576 17.8053 33.0025 17.7605 33.2269C17.7605 33.2269 17.7157 33.586 17.1779 33.4514L12.5173 33.4065L12.0243 33.4514C12.0243 33.4514 11.6658 33.4065 12.2035 32.7332L12.4724 32.5088Z" stroke="black" stroke-width="0.2305"/>
<path d="M24.3481 32.1498C24.3481 32.1498 24.7067 32.8231 24.8411 32.9129C24.8411 32.9129 25.1548 33.2719 25.0652 32.6436L25.11 24.4745C25.11 24.4745 25.0204 24.2052 25.11 23.7564L24.7515 23.128C24.7515 23.128 24.393 22.8587 24.393 23.3075L24.3481 32.0152V32.1498Z" fill="white"/>
<path d="M24.3481 32.1498C24.3481 32.1498 24.7067 32.8231 24.8411 32.9129C24.8411 32.9129 25.1548 33.2719 25.0652 32.6436L25.11 24.4745C25.11 24.4745 25.0204 24.2052 25.11 23.7564L24.7515 23.128C24.7515 23.128 24.393 22.8587 24.393 23.3075L24.3481 32.0152V32.1498Z" stroke="black" stroke-width="0.2305"/>
<path d="M18.0742 28.2452C18.0742 28.2452 18.119 28.9184 18.0294 29.5917C17.9845 29.9508 18.1638 31.6115 17.9845 32.4643C17.9845 32.4643 17.9397 32.7337 17.3571 32.5092C17.3571 32.5092 13.7272 32.599 13.6376 32.4643C13.6376 32.4643 12.6516 32.5092 12.562 31.9706C12.562 31.9706 12.6965 28.0656 12.6068 27.931C12.6068 27.931 12.562 25.8214 12.6068 25.597C12.6068 25.597 12.6965 23.622 12.6516 23.3976C12.6516 23.3976 12.6965 22.9488 12.6068 22.7244C12.6068 22.7244 12.6068 22.455 13.0998 22.5897C13.0998 22.5897 13.279 22.9039 14.2201 22.7692C14.2201 22.7692 14.8924 22.859 15.5646 22.8141C15.5646 22.8141 16.9986 22.6795 17.3571 22.8141C17.3571 22.8141 17.9397 22.6795 18.0742 23.3079L18.0294 25.0584L18.2086 25.6419L18.3879 25.5072L18.4775 25.0584L18.5223 23.1732C18.5223 23.1732 18.6568 22.8141 19.1049 22.7692C19.1049 22.7692 19.8219 22.6795 19.9116 22.7244C20.0012 22.7692 21.5697 22.859 21.973 22.7692C22.3764 22.6795 22.466 23.0385 23.7656 22.4102C23.7656 22.4102 24.1241 22.455 24.1241 22.6795C24.1241 22.6795 23.9897 25.1032 24.1241 25.5521C24.1241 25.5521 24.1241 29.9957 24.0345 30.3099L24.0793 31.7462C24.0793 31.7462 24.1241 32.3746 23.1382 32.4195C23.1382 32.4195 23.7656 32.5092 19.8667 32.3746C19.8667 32.3746 19.2393 32.3297 18.5671 32.6439C18.5671 32.6439 18.4327 32.599 18.4327 32.2399C18.4327 32.2399 18.5671 30.8934 18.4327 29.5917L18.3879 28.1554L18.0742 28.2452Z" fill="white"/>
<path d="M15.5199 26.2256C15.5199 26.2256 15.6095 28.3352 15.5199 28.6045L15.4751 29.0534C15.4751 29.0534 15.6095 29.3676 15.744 29.4573C15.744 29.4573 15.8784 29.8613 15.5647 29.8164C15.5647 29.8164 14.8477 29.7715 14.6684 29.7715C14.6684 29.7715 14.2651 29.7715 14.6684 29.2778C14.6684 29.2778 14.8029 29.0983 14.7581 28.5596C14.7581 28.5596 14.7581 26.1807 14.8029 26.0461C14.8029 26.0461 14.8477 25.7319 14.6684 25.6421L14.3099 25.687L13.9066 26.091C13.9066 26.091 13.817 26.4949 13.6377 26.0461V25.8217L13.9066 25.1484L14.0858 25.1035C14.0858 25.1035 14.3547 25.2831 14.5788 25.3279H15.9232L16.4162 25.1035C16.4162 25.1035 16.5954 25.1484 16.5506 25.3728C16.5506 25.3728 16.6403 26.0461 16.2817 26.091C16.2817 26.091 16.0577 26.0012 15.9232 25.687C15.9232 25.7768 15.5647 25.5972 15.5199 26.2256Z" fill="#1E1E1E"/>
<path d="M21.7937 25.4619C21.7937 25.4619 20.7182 25.3721 20.6734 26.5391C20.6734 26.5391 20.5389 27.3471 21.7489 27.8408C21.7489 27.8408 22.6452 28.2448 22.5556 28.7834C22.5556 28.7834 22.4211 29.7708 21.5249 29.2771C21.5249 29.2771 21.0767 29.0527 21.1215 28.7834C21.1215 28.7834 20.9871 28.4692 20.8078 28.5141C20.8078 28.5141 20.6286 28.559 20.7182 29.5015C20.7182 29.5015 20.7182 29.8606 21.1215 29.5015L21.3456 29.5464C21.3456 29.5464 22.1074 30.1748 22.7797 29.4118C22.7797 29.4118 23.4967 28.7385 22.9589 27.9755C22.9589 27.9755 22.6004 27.392 21.9282 27.1226C21.9282 27.1226 21.3008 26.8533 21.1663 26.3596C21.1663 26.3596 21.3456 25.5068 22.1074 25.9556C22.1074 25.9556 22.3763 26.3147 22.5556 26.3596C22.5556 26.3596 22.7797 26.3596 22.7348 25.8659L22.69 25.4619C22.69 25.4619 22.6452 25.1477 22.2419 25.4619C22.2419 25.4619 21.8834 25.5966 21.7937 25.4619Z" fill="#1E1E1E"/>
<path d="M18.3433 24.8788C18.5226 25.0134 18.5674 25.3276 18.5674 25.3276C19.15 26.8537 19.5981 29.0082 19.5981 29.0082C19.7325 29.2775 20.0014 29.5019 20.0014 29.5019C20.4944 29.6814 20.0014 29.8161 20.0014 29.8161C19.8222 29.9059 19.15 29.7712 19.15 29.7712C18.7914 29.7263 18.9707 29.5917 18.9707 29.5917C19.1051 29.457 19.0155 28.8735 19.0155 28.8735C18.9707 28.6491 18.7466 28.29 18.7466 28.29C18.6122 28.2451 18.4329 28.4696 18.4329 28.4696C18.4329 28.4696 18.1192 28.6042 18.0744 28.4696C18.0296 28.3349 17.8503 28.2451 17.8503 28.2451C17.4918 28.2451 17.3574 29.0979 17.3574 29.0979C17.5366 29.8161 17.3574 29.6814 17.3574 29.6814C17.1781 29.9059 16.6403 29.7263 16.6403 29.7263C16.3715 29.6814 16.5507 29.457 16.5507 29.457C16.8644 29.4121 16.954 29.0531 16.954 29.0531C17.0885 28.8735 17.9848 25.1481 17.9848 25.1481C18.0744 25.0583 18.1192 24.7441 18.3433 24.8788ZM17.8952 26.7639C17.8503 26.8986 17.6711 27.7065 17.6711 27.7065L17.8503 27.9758C17.8503 27.9758 18.2985 28.0207 18.4777 28.0207C18.657 28.0207 18.657 27.8861 18.657 27.7514C18.657 27.6167 18.3433 26.7639 18.3433 26.7639L18.2089 26.5844L17.8952 26.7639Z" fill="#1E1E1E"/>
<path d="M10.635 18.0113C10.635 18.0113 10.3213 18.9988 8.93209 17.9664L4.18177 17.8766C4.18177 17.8766 3.55437 18.0562 3.46474 17.4278C3.46474 17.4278 3.59918 16.1261 3.50955 15.9915C3.50955 15.9915 3.55437 15.6324 2.92697 15.6324C2.92697 15.6324 1.98586 15.7671 1.94105 14.9142C1.94105 14.9142 1.76179 14.0166 3.10622 14.0166C3.10622 14.0166 3.50955 14.1961 3.55437 13.6575C3.55437 13.6575 3.50955 9.97692 3.50955 9.66273C3.50955 9.66273 3.644 9.30365 2.97178 9.25876C2.97178 9.25876 2.03068 9.4383 1.94105 8.80992C1.94105 8.80992 1.89624 7.86734 2.52364 7.82245C2.52364 7.82245 3.28548 7.86734 3.41992 7.6878C3.41992 7.6878 3.59918 7.77757 3.55437 7.10429L3.59918 5.93729C3.59918 5.93729 3.68881 5.6231 4.18177 5.66798C4.18177 5.66798 5.07805 5.71287 5.16768 5.6231C5.16768 5.6231 5.34694 5.35379 5.43657 5.26402C5.43657 5.26402 5.88471 5.21913 5.97434 5.35379C5.97434 5.35379 6.64656 5.80264 9.24579 5.6231C9.24579 5.6231 9.64912 5.6231 9.73875 5.75775C9.73875 5.75775 10.2317 6.11683 10.5006 5.71287C10.5006 5.71287 10.9039 5.6231 12.2035 5.66798C12.2035 5.66798 13.5928 6.02706 14.5339 5.26402L14.8476 5.3089C14.8476 5.3089 15.2509 5.98217 15.5198 5.75775C15.5198 5.75775 16.3713 5.66798 16.5057 5.84752C16.5057 5.84752 16.7746 6.25148 16.6402 7.3736C16.6402 7.3736 16.4609 7.86734 17.3124 7.86734C17.3124 7.86734 18.2535 7.6878 18.119 8.58549C18.119 8.58549 18.3879 9.57296 16.8194 9.4383C16.8194 9.4383 16.6402 9.70761 16.6402 9.93204C16.6402 9.93204 16.5953 13.1637 16.5953 13.5228C16.5953 13.5228 16.5505 14.0166 17.2676 14.0166C17.2676 14.0166 18.1638 13.9717 18.2087 14.7796C18.2087 14.7796 18.3431 15.8568 16.9987 15.6773C16.9987 15.6773 16.5953 15.7222 16.5505 15.9915L16.4609 17.4278C16.4609 17.4278 16.5057 18.146 15.6991 17.9664C15.5646 17.9664 11.2624 18.0562 10.9039 17.9215C10.9039 17.9215 10.7247 17.8766 10.635 18.0113Z" fill="#1E1E1E"/>
<path d="M10.635 18.0113C10.635 18.0113 10.3213 18.9988 8.93209 17.9664L4.18177 17.8766C4.18177 17.8766 3.55437 18.0562 3.46474 17.4278C3.46474 17.4278 3.59918 16.1261 3.50955 15.9915C3.50955 15.9915 3.55437 15.6324 2.92697 15.6324C2.92697 15.6324 1.98586 15.7671 1.94105 14.9142C1.94105 14.9142 1.76179 14.0166 3.10622 14.0166C3.10622 14.0166 3.50955 14.1961 3.55437 13.6575C3.55437 13.6575 3.50955 9.97692 3.50955 9.66273C3.50955 9.66273 3.644 9.30365 2.97178 9.25876C2.97178 9.25876 2.03068 9.4383 1.94105 8.80992C1.94105 8.80992 1.89624 7.86734 2.52364 7.82245C2.52364 7.82245 3.28548 7.86734 3.41992 7.6878C3.41992 7.6878 3.59918 7.77757 3.55437 7.10429L3.59918 5.93729C3.59918 5.93729 3.68881 5.6231 4.18177 5.66798C4.18177 5.66798 5.07805 5.71287 5.16768 5.6231C5.16768 5.6231 5.34694 5.35379 5.43657 5.26402C5.43657 5.26402 5.88471 5.21913 5.97434 5.35379C5.97434 5.35379 6.64656 5.80264 9.24579 5.6231C9.24579 5.6231 9.64912 5.6231 9.73875 5.75775C9.73875 5.75775 10.2317 6.11683 10.5006 5.71287C10.5006 5.71287 10.9039 5.6231 12.2035 5.66798C12.2035 5.66798 13.5928 6.02706 14.5339 5.26402L14.8476 5.3089C14.8476 5.3089 15.2509 5.98217 15.5198 5.75775C15.5198 5.75775 16.3713 5.66798 16.5057 5.84752C16.5057 5.84752 16.7746 6.25148 16.6402 7.3736C16.6402 7.3736 16.4609 7.86734 17.3124 7.86734C17.3124 7.86734 18.2535 7.6878 18.119 8.58549C18.119 8.58549 18.3879 9.57296 16.8194 9.4383C16.8194 9.4383 16.6402 9.70761 16.6402 9.93204C16.6402 9.93204 16.5953 13.1637 16.5953 13.5228C16.5953 13.5228 16.5505 14.0166 17.2676 14.0166C17.2676 14.0166 18.1638 13.9717 18.2087 14.7796C18.2087 14.7796 18.3431 15.8568 16.9987 15.6773C16.9987 15.6773 16.5953 15.7222 16.5505 15.9915L16.4609 17.4278C16.4609 17.4278 16.5057 18.146 15.6991 17.9664C15.5646 17.9664 11.2624 18.0562 10.9039 17.9215C10.9039 17.9215 10.7247 17.8766 10.635 18.0113Z" stroke="black" stroke-width="0.2189"/>
<path d="M5.3021 6.29634C5.3021 6.29634 5.34691 6.87985 5.34691 7.0145C5.34691 7.14915 5.25728 15.2284 5.25728 15.2284C5.25728 15.2284 5.34691 15.8568 4.80914 16.171C4.80914 16.171 4.6747 16.2159 4.62988 15.8119L4.6747 7.28381C4.71951 7.28381 4.76433 6.25146 5.3021 6.29634Z" fill="white"/>
<path d="M5.3021 6.29634C5.3021 6.29634 5.34691 6.87985 5.34691 7.0145C5.34691 7.14915 5.25728 15.2284 5.25728 15.2284C5.25728 15.2284 5.34691 15.8568 4.80914 16.171C4.80914 16.171 4.6747 16.2159 4.62988 15.8119L4.6747 7.28381C4.71951 7.28381 4.76433 6.25146 5.3021 6.29634Z" stroke="black" stroke-width="0.2305"/>
<path d="M4.36109 16.2611C4.36109 16.2611 4.4059 8.27159 4.4059 8.09205C4.36109 7.95739 4.4059 8.2267 4.4059 8.2267C4.4059 8.2267 4.31627 6.83527 4.67479 6.25177C4.67479 6.25177 4.54034 5.75804 3.91294 6.38643V7.55343C3.91294 7.55343 3.91294 8.2267 3.33036 8.18182C3.33036 8.18182 2.65814 8.13693 2.34444 8.45113C2.34444 8.45113 2.16518 9.07951 2.8374 8.94486C2.8374 8.94486 3.86813 8.94486 3.91294 9.34882L3.86813 13.6578C3.86813 13.6578 4.0922 14.3759 3.28554 14.3759C3.28554 14.3759 2.34444 14.331 2.34444 14.9145C2.34444 14.9145 2.5237 15.4083 3.37517 15.2736C3.37517 15.2736 3.95776 15.4083 3.95776 15.9469V17.0241C3.95776 17.0241 3.91294 17.473 4.45072 17.473H8.84252C8.84252 17.473 9.06659 17.5179 9.06659 17.2037C9.06659 17.2037 9.02178 16.9792 8.70808 16.9792L5.0333 16.9344C5.0333 16.9344 4.4059 17.1139 4.36109 16.2611Z" fill="white"/>
<path d="M5.12291 16.3053C5.12291 16.3053 4.98847 16.7093 5.43661 16.6195H8.34954L9.1562 16.7991C9.1562 16.7991 9.96286 16.6195 9.1562 16.1258C9.1562 16.1258 6.55697 16.1707 6.3329 16.0809C6.3329 16.0809 5.79513 15.9463 5.66068 15.9014C5.66068 15.9463 5.3918 15.8116 5.12291 16.3053Z" fill="white"/>
<path d="M5.12291 16.3053C5.12291 16.3053 4.98847 16.7093 5.43661 16.6195H8.34954L9.1562 16.7991C9.1562 16.7991 9.96286 16.6195 9.1562 16.1258C9.1562 16.1258 6.55697 16.1707 6.3329 16.0809C6.3329 16.0809 5.79513 15.9463 5.66068 15.9014C5.66068 15.9463 5.3918 15.8116 5.12291 16.3053Z" stroke="black" stroke-width="0.2305"/>
<path d="M9.9629 16.7092C9.9629 16.7092 9.42512 16.7092 9.46994 17.4274C9.46994 17.4274 9.51475 17.966 10.0973 17.966C10.0973 17.966 10.5903 17.8762 10.5455 17.2927C10.5455 17.2927 10.2318 16.5745 9.9629 16.7092Z" fill="white"/>
<path d="M10.3662 16.396C10.3662 16.396 10.6351 16.1267 10.7695 16.1267C10.7695 16.1267 13.5928 16.396 14.0858 16.037C14.0858 16.037 14.4891 15.9472 14.6235 16.037C14.6235 16.037 15.0269 16.396 15.0269 16.5756C15.0269 16.5756 14.982 16.8449 14.4891 16.7102C14.4891 16.7102 11.2625 16.7551 11.128 16.7551C11.1728 16.7102 10.2765 16.9347 10.3662 16.396Z" fill="white"/>
<path d="M10.3662 16.396C10.3662 16.396 10.6351 16.1267 10.7695 16.1267C10.7695 16.1267 13.5928 16.396 14.0858 16.037C14.0858 16.037 14.4891 15.9472 14.6235 16.037C14.6235 16.037 15.0269 16.396 15.0269 16.5756C15.0269 16.5756 14.982 16.8449 14.4891 16.7102C14.4891 16.7102 11.2625 16.7551 11.128 16.7551C11.1728 16.7102 10.2765 16.9347 10.3662 16.396Z" stroke="black" stroke-width="0.2305"/>
<path d="M10.8145 17.2481C10.8145 17.2481 10.8145 17.0237 11.2178 17.0237L15.2063 16.9788C15.2063 16.9788 15.5648 17.1583 15.5648 16.485C15.5648 16.485 15.6992 13.388 15.744 9.97674C15.744 8.94439 15.7888 7.91204 15.744 6.92457C15.744 6.92457 15.6544 6.52061 15.5648 6.43084C15.5648 6.43084 15.5648 5.98199 16.0577 6.16153C16.0577 6.16153 16.4611 6.20642 16.3714 6.8348L16.4162 7.82227C16.4162 7.82227 16.3266 8.22623 17.0885 8.13646C17.0885 8.13646 17.8503 8.22623 17.8951 8.54043C17.8951 8.54043 18.1192 9.12393 17.2229 9.03416H16.5507C16.5507 9.03416 16.2818 9.2137 16.3714 9.52789L16.2818 13.6573C16.2818 13.6573 16.237 14.3754 16.9092 14.3306C16.9092 14.3306 17.6262 14.2857 17.7607 14.5101C17.7607 14.5101 18.2536 15.2283 17.1781 15.1834C17.1781 15.1834 16.5059 15.1385 16.3714 15.2731C16.3714 15.2731 16.2818 15.4078 16.1922 16.7543C16.1922 16.7543 16.237 17.5623 15.6544 17.4725C15.6544 17.4725 11.7107 17.5174 11.3522 17.4276C11.2626 17.4725 10.8593 17.5623 10.8145 17.2481Z" fill="white"/>
<path d="M5.70542 6.07204L5.61579 15.1837C5.61579 15.1837 5.57097 15.5876 6.288 15.6774C6.288 15.6774 7.09466 15.7672 7.31873 15.6774C7.31873 15.6774 7.8565 15.6325 9.24575 15.7223C9.24575 15.7223 9.60426 16.0814 9.60426 15.6325C9.60426 15.6325 9.82834 8.2714 9.73871 6.70043C9.73871 6.70043 9.69389 6.02716 9.24575 6.02716C9.24575 6.02716 7.09466 6.2067 6.9154 6.02716L6.06393 5.80273C6.01912 5.80273 5.70542 5.84762 5.70542 6.07204Z" fill="white"/>
<path d="M14.7133 6.3864L14.6685 15.3634C14.6685 15.3634 14.8925 16.1713 15.251 16.0815C15.251 16.0815 15.2959 15.902 15.3407 15.6327L15.4751 7.10456C15.4751 7.05967 15.2062 5.71313 14.7133 6.3864Z" fill="white"/>
<path d="M14.7133 6.3864L14.6685 15.3634C14.6685 15.3634 14.8925 16.1713 15.251 16.0815C15.251 16.0815 15.2959 15.902 15.3407 15.6327L15.4751 7.10456C15.4751 7.05967 15.2062 5.71313 14.7133 6.3864Z" stroke="black" stroke-width="0.2305"/>
<path d="M10.187 6.47554C10.187 6.47554 10.0973 10.7396 10.1421 10.9191L10.0973 14.5099L9.96289 15.7667C9.96289 15.7667 10.1421 16.036 10.2766 15.8565C10.2766 15.8565 11.1729 15.632 11.7555 15.7218C11.7555 15.7218 13.5929 15.9013 13.9514 15.5872C13.9514 15.5872 14.2203 15.7218 14.3099 15.273C14.3099 15.273 14.4443 7.32835 14.3547 7.1937C14.3547 7.1937 14.4891 6.07158 14.3995 5.93692C14.3995 5.93692 14.3547 5.66761 13.9066 5.89204C13.9066 5.89204 13.9514 6.11646 11.2625 6.02669C11.2625 6.02669 10.2318 6.02669 10.187 6.47554Z" fill="white"/>
<path d="M9.33547 9.07892L9.06658 9.61753C9.06658 9.61753 8.43918 12.3555 8.12548 12.939C8.12548 12.939 8.08067 13.5225 7.58771 13.0737C7.58771 13.0737 6.46735 9.57265 6.42254 9.48288L6.06402 9.21357C6.06402 9.21357 5.83995 8.89938 6.24328 8.85449L7.27401 8.89938C7.27401 8.89938 7.63252 9.16869 7.13957 9.48288C7.13957 9.48288 7.18438 9.93173 7.81178 11.6822C7.81178 11.6822 7.99104 12.3555 8.1703 11.8618L8.75288 9.84196L8.57363 9.25846C8.57363 9.25846 8.39437 8.98915 8.66325 8.94426C8.66325 8.94426 9.24584 8.85449 9.33547 9.07892Z" fill="#1E1E1E"/>
<path d="M10.9488 9.57302L10.904 12.5803L10.8144 12.8047C10.8144 12.8047 10.5455 13.1638 10.7248 13.2087C10.7248 13.2087 10.4559 13.3882 12.5173 13.3882C12.5173 13.3882 13.324 13.5229 13.0999 12.4905C13.0999 12.4905 13.0103 12.1314 12.7414 12.6701C12.7414 12.6701 12.6518 13.1189 11.6211 12.9843C11.6211 12.9843 11.397 12.8047 11.397 12.5803V11.3235C11.397 11.3235 11.3522 11.0093 11.8451 11.0542C11.8451 11.0542 12.3829 11.4133 12.4725 11.2338C12.4725 11.2338 12.6518 10.7849 12.4725 10.5156C12.4725 10.5156 12.2036 10.4707 12.2036 10.6054C12.2036 10.6054 12.0244 10.9644 11.5314 10.74C11.5314 10.74 11.3074 10.2912 11.4418 9.93209C11.4418 9.93209 11.397 9.21394 11.8451 9.25882C11.8451 9.25882 12.4277 9.39348 12.4725 9.52813C12.4725 9.52813 12.607 9.88721 12.7414 9.48325L12.607 8.98951C12.607 8.98951 12.5173 8.80998 12.3829 8.85486C12.3829 8.85486 11.4418 8.98951 11.3074 8.89974L10.6351 8.94463C10.6351 8.94463 10.5455 9.21394 10.8592 9.34859C10.8592 9.39348 10.9488 9.43836 10.9488 9.57302Z" fill="#1E1E1E"/>
</svg>
