<svg width="24" height="16" viewBox="0 0 24 16" fill="none" xmlns="http://www.w3.org/2000/svg">
<path d="M23.2324 9.05331C23.1474 8.93114 23.0389 8.82705 22.9134 8.74704C22.7879 8.66703 22.6478 8.6127 22.5011 8.58718L14.9284 7.25218V4.91443L17.4638 4.13443C17.6135 4.08833 17.7445 3.99544 17.8376 3.8694C17.9307 3.74336 17.9809 3.5908 17.9809 3.43412C17.9809 3.27744 17.9307 3.12488 17.8376 2.99884C17.7445 2.8728 17.6135 2.77991 17.4638 2.73381L9.83776 0.386309C9.46913 0.272272 9.07465 0.272272 8.70601 0.386309L1.08001 2.73381C0.930412 2.78001 0.799542 2.87292 0.706586 2.99891C0.61363 3.1249 0.563477 3.27736 0.563477 3.43393C0.563477 3.59051 0.61363 3.74297 0.706586 3.86896C0.799542 3.99495 0.930412 4.08786 1.08001 4.13406L3.61464 4.91406V8.09968C3.61464 8.76418 4.46814 9.18944 5.58452 9.45156V10.1464C5.3654 10.2228 5.17547 10.3654 5.04107 10.5546C4.90668 10.7437 4.83447 10.97 4.83447 11.2021C4.83447 11.4341 4.90668 11.6604 5.04107 11.8495C5.17547 12.0387 5.3654 12.1813 5.58452 12.2577V12.7024C5.58452 12.8019 5.62402 12.8973 5.69435 12.9676C5.76468 13.0379 5.86006 13.0774 5.95952 13.0774C6.05897 13.0774 6.15435 13.0379 6.22468 12.9676C6.29501 12.8973 6.33452 12.8019 6.33452 12.7024V12.2581C6.55363 12.1817 6.74356 12.0391 6.87796 11.8499C7.01235 11.6608 7.08456 11.4345 7.08456 11.2024C7.08456 10.9704 7.01235 10.7441 6.87796 10.555C6.74356 10.3658 6.55363 10.2232 6.33452 10.1468V9.59781C7.30703 9.7469 8.28952 9.82137 9.27339 9.82056C10.3475 9.82753 11.4201 9.73678 12.4778 9.54943L11.8901 12.8802C11.8383 13.176 11.906 13.4802 12.0782 13.7262C12.2505 13.9722 12.5132 14.1398 12.8089 14.1923L21.2505 15.6807C21.3163 15.6923 21.3829 15.6982 21.4496 15.6983C21.7155 15.6976 21.9727 15.6034 22.1762 15.4322C22.3797 15.2611 22.5164 15.0238 22.5626 14.7619L23.4199 9.89968C23.4462 9.75322 23.4432 9.60299 23.411 9.4577C23.3788 9.31242 23.3181 9.17497 23.2324 9.05331ZM5.95952 11.5771C5.88535 11.5771 5.81284 11.5551 5.75118 11.5139C5.68951 11.4727 5.64144 11.4141 5.61306 11.3456C5.58468 11.277 5.57725 11.2016 5.59172 11.1289C5.60619 11.0562 5.64191 10.9893 5.69435 10.9369C5.74679 10.8844 5.81361 10.8487 5.88636 10.8343C5.9591 10.8198 6.0345 10.8272 6.10302 10.8556C6.17154 10.884 6.23011 10.9321 6.27132 10.9937C6.31252 11.0554 6.33452 11.1279 6.33452 11.2021C6.33452 11.3015 6.29501 11.3969 6.22468 11.4672C6.15435 11.5376 6.05897 11.5771 5.95952 11.5771ZM8.92651 1.10331C9.1516 1.03432 9.39218 1.03432 9.61726 1.10331L17.2433 3.41743L9.61726 5.76456C9.39223 5.83389 9.15155 5.83389 8.92651 5.76456L6.34914 4.98231C6.36518 4.84479 6.42283 4.71545 6.51437 4.61158C6.60591 4.50771 6.72698 4.43426 6.86139 4.40106L9.35964 3.79843C9.45502 3.7739 9.53691 3.71284 9.58764 3.62843C9.63837 3.54402 9.65386 3.44304 9.63077 3.34731C9.60767 3.25157 9.54784 3.16877 9.4642 3.11678C9.38057 3.06478 9.27983 3.04778 9.18376 3.06943L6.68551 3.67206C6.4236 3.73517 6.18482 3.87092 5.99662 4.0637C5.80842 4.25648 5.67844 4.49845 5.62164 4.76181L1.30051 3.45043L8.92651 1.10331ZM4.36464 8.09931V5.14468L5.58452 5.52006V8.67306C4.83002 8.47806 4.40289 8.25343 4.36464 8.09931ZM9.27339 9.07056C8.28876 9.07724 7.30543 8.99819 6.33452 8.83431V5.75106L8.70601 6.48081C9.07466 6.59478 9.46912 6.59478 9.83776 6.48081L14.1788 5.14581V7.12018L14.0599 7.09918C13.7641 7.04709 13.4597 7.11462 13.2138 7.28691C12.9678 7.45921 12.8003 7.72216 12.7481 8.01793L12.618 8.75556C11.5172 8.97602 10.3964 9.08171 9.27376 9.07093L9.27339 9.07056ZM21.8246 14.6314C21.8069 14.7314 21.7502 14.8202 21.667 14.8783C21.5838 14.9365 21.481 14.9592 21.381 14.9416L12.939 13.4532C12.8392 13.4353 12.7505 13.3787 12.6923 13.2956C12.6341 13.2126 12.6112 13.1099 12.6285 13.0099L13.4861 8.14731C13.4948 8.09781 13.5132 8.05052 13.5402 8.00817C13.5672 7.96582 13.6024 7.92924 13.6436 7.90056C13.6846 7.87131 13.7309 7.8506 13.78 7.83965C13.8291 7.82869 13.8799 7.82773 13.9294 7.83681L22.371 9.32556C22.4205 9.33425 22.4678 9.35262 22.5102 9.37961C22.5526 9.40659 22.5893 9.44167 22.6181 9.48284C22.647 9.524 22.6674 9.57045 22.6783 9.61951C22.6892 9.66858 22.6903 9.71931 22.6815 9.76881L21.8246 14.6314ZM21.0191 13.5289L20.8886 14.2677C20.8829 14.3002 20.8659 14.3297 20.8406 14.351C20.8153 14.3722 20.7833 14.3839 20.7503 14.3839C20.7421 14.3839 20.7339 14.3831 20.7259 14.3817C20.7077 14.3785 20.6903 14.3718 20.6747 14.3619C20.6592 14.352 20.6457 14.3391 20.6351 14.324C20.6245 14.3089 20.617 14.2918 20.613 14.2738C20.609 14.2557 20.6087 14.2371 20.6119 14.2189L20.742 13.4802C20.7452 13.462 20.752 13.4446 20.7619 13.429C20.7718 13.4134 20.7847 13.3999 20.7998 13.3893C20.815 13.3787 20.832 13.3712 20.8501 13.3672C20.8681 13.3632 20.8868 13.3628 20.905 13.366C20.9231 13.3692 20.9405 13.376 20.9561 13.3859C20.9717 13.3958 20.9852 13.4087 20.9958 13.4238C21.0064 13.4389 21.0139 13.456 21.0179 13.4741C21.0219 13.4921 21.0223 13.5107 21.0191 13.5289ZM21.6701 9.83593L21.5396 10.5747C21.5371 10.5935 21.5308 10.6116 21.5212 10.6279C21.5115 10.6441 21.4986 10.6583 21.4833 10.6695C21.468 10.6807 21.4506 10.6887 21.4321 10.693C21.4137 10.6973 21.3945 10.6978 21.3759 10.6945C21.3572 10.6912 21.3394 10.6842 21.3235 10.6738C21.3076 10.6635 21.294 10.6501 21.2834 10.6343C21.2729 10.6186 21.2656 10.6008 21.2621 10.5822C21.2586 10.5636 21.2588 10.5445 21.2629 10.5259L21.3934 9.78718C21.3959 9.7684 21.4022 9.75031 21.4119 9.73402C21.4216 9.71772 21.4344 9.70355 21.4497 9.69236C21.465 9.68117 21.4824 9.67318 21.5009 9.66888C21.5194 9.66459 21.5385 9.66407 21.5572 9.66736C21.5758 9.67065 21.5936 9.67767 21.6095 9.68802C21.6254 9.69837 21.639 9.71182 21.6496 9.72756C21.6601 9.74331 21.6674 9.76103 21.6709 9.77965C21.6745 9.79827 21.6742 9.81742 21.6701 9.83593ZM21.3446 11.6828L21.2141 12.4216C21.2116 12.4403 21.2053 12.4584 21.1957 12.4747C21.186 12.491 21.1731 12.5052 21.1578 12.5164C21.1425 12.5276 21.1251 12.5356 21.1066 12.5399C21.0882 12.5442 21.069 12.5447 21.0504 12.5414C21.0317 12.5381 21.0139 12.5311 20.998 12.5207C20.9821 12.5104 20.9685 12.4969 20.9579 12.4812C20.9474 12.4654 20.9401 12.4477 20.9366 12.4291C20.9331 12.4105 20.9333 12.3913 20.9374 12.3728L21.0679 11.6341C21.0704 11.6153 21.0767 11.5972 21.0864 11.5809C21.0961 11.5646 21.1089 11.5504 21.1242 11.5392C21.1395 11.528 21.1569 11.5201 21.1754 11.5158C21.1939 11.5115 21.213 11.5109 21.2317 11.5142C21.2503 11.5175 21.2681 11.5245 21.284 11.5349C21.2999 11.5452 21.3135 11.5587 21.3241 11.5744C21.3346 11.5902 21.3419 11.6079 21.3454 11.6265C21.349 11.6451 21.3487 11.6643 21.3446 11.6828ZM14.0396 12.2982L13.9091 13.0369C13.9066 13.0557 13.9003 13.0738 13.8907 13.0901C13.881 13.1064 13.8681 13.1206 13.8528 13.1318C13.8375 13.143 13.8201 13.1509 13.8016 13.1552C13.7832 13.1595 13.764 13.1601 13.7454 13.1568C13.7267 13.1535 13.7089 13.1464 13.693 13.1361C13.6771 13.1258 13.6635 13.1123 13.6529 13.0966C13.6424 13.0808 13.6351 13.0631 13.6316 13.0445C13.6281 13.0258 13.6283 13.0067 13.6324 12.9882L13.7625 12.2494C13.765 12.2306 13.7713 12.2126 13.781 12.1963C13.7907 12.18 13.8036 12.1658 13.8189 12.1546C13.8342 12.1434 13.8516 12.1354 13.87 12.1311C13.8885 12.1268 13.9076 12.1263 13.9263 12.1296C13.945 12.1329 13.9628 12.1399 13.9787 12.1503C13.9945 12.1606 14.0082 12.1741 14.0187 12.1898C14.0293 12.2056 14.0365 12.2233 14.0401 12.2419C14.0436 12.2605 14.0437 12.2797 14.0396 12.2982ZM14.3651 10.4521L14.2346 11.1908C14.2321 11.2096 14.2258 11.2277 14.2162 11.244C14.2065 11.2603 14.1936 11.2744 14.1783 11.2856C14.163 11.2968 14.1456 11.3048 14.1271 11.3091C14.1087 11.3134 14.0895 11.3139 14.0709 11.3106C14.0522 11.3073 14.0344 11.3003 14.0185 11.29C14.0026 11.2796 13.989 11.2662 13.9784 11.2504C13.9679 11.2347 13.9606 11.217 13.9571 11.1983C13.9536 11.1797 13.9538 11.1606 13.9579 11.1421L14.088 10.4033C14.0912 10.3851 14.098 10.3677 14.1079 10.3521C14.1178 10.3366 14.1307 10.3231 14.1458 10.3125C14.161 10.3019 14.178 10.2943 14.1961 10.2903C14.2141 10.2863 14.2328 10.2859 14.251 10.2891C14.2691 10.2923 14.2865 10.2991 14.3021 10.309C14.3177 10.3189 14.3312 10.3318 14.3418 10.3469C14.3524 10.3621 14.3599 10.3791 14.3639 10.3972C14.3679 10.4152 14.3683 10.4339 14.3651 10.4521ZM14.6906 8.60518L14.5601 9.34393C14.5544 9.37648 14.5374 9.40597 14.5121 9.42723C14.4868 9.44849 14.4548 9.46016 14.4218 9.46018C14.4136 9.46014 14.4054 9.45938 14.3974 9.45793C14.3792 9.45477 14.3618 9.44804 14.3462 9.43813C14.3307 9.42823 14.3172 9.41535 14.3066 9.40023C14.296 9.38511 14.2885 9.36805 14.2845 9.35002C14.2805 9.332 14.2802 9.31336 14.2834 9.29519L14.4139 8.55643C14.4164 8.53765 14.4227 8.51956 14.4324 8.50327C14.4421 8.48697 14.4549 8.4728 14.4702 8.46161C14.4855 8.45042 14.5029 8.44243 14.5214 8.43813C14.5399 8.43384 14.559 8.43332 14.5777 8.43661C14.5963 8.4399 14.6141 8.44692 14.63 8.45727C14.6459 8.46762 14.6595 8.48107 14.6701 8.49681C14.6806 8.51256 14.6879 8.53028 14.6914 8.5489C14.695 8.56752 14.6947 8.58667 14.6906 8.60518ZM17.9963 9.45419C17.5482 9.37481 17.0865 9.45326 16.6898 9.67618C16.2931 9.89909 15.986 10.2527 15.8209 10.6767C15.6557 11.1006 15.6426 11.5688 15.784 12.0013C15.9253 12.4338 16.2122 12.804 16.5959 13.0486C16.9796 13.2933 17.4362 13.3973 17.8879 13.343C18.3397 13.2887 18.7587 13.0794 19.0734 12.7507C19.3881 12.4221 19.5792 11.9945 19.614 11.5408C19.6487 11.0871 19.5251 10.6354 19.2641 10.2627C18.9653 9.8361 18.5091 9.54537 17.9963 9.45419ZM18.8516 11.6007C18.8115 11.8284 18.7071 12.04 18.5508 12.2105C18.3946 12.381 18.1929 12.5033 17.9695 12.5632C17.7461 12.623 17.5103 12.6179 17.2897 12.5483C17.0692 12.4788 16.873 12.3477 16.7244 12.1705C16.5757 11.9934 16.4807 11.7775 16.4505 11.5482C16.4203 11.3189 16.4562 11.0857 16.5539 10.8761C16.6517 10.6665 16.8072 10.4892 17.0022 10.3649C17.1973 10.2406 17.4237 10.1746 17.655 10.1746C17.7259 10.1747 17.7967 10.1809 17.8665 10.1933C18.1836 10.2499 18.4653 10.4298 18.65 10.6937C18.8347 10.9575 18.9073 11.2838 18.852 11.6011L18.8516 11.6007Z" fill="black"/>
</svg>
