<svg width="22" height="22" viewBox="0 0 22 22" fill="none" xmlns="http://www.w3.org/2000/svg">
<path d="M18.8874 11.5313L20.2434 12.7388C20.4938 12.9478 20.6612 13.2395 20.7151 13.5611C20.769 13.8828 20.706 14.2131 20.5374 14.4923L18.9024 17.2853C18.7756 17.4991 18.5945 17.6756 18.3774 17.7968C18.1579 17.9183 17.9114 17.9828 17.6604 17.9843C17.5048 17.9853 17.3499 17.962 17.2014 17.9153L15.4659 17.3423C15.1619 17.5373 14.8459 17.7118 14.5179 17.8658L14.1534 19.6253C14.086 19.949 13.9058 20.2382 13.6449 20.4413C13.3808 20.6481 13.0533 20.7573 12.7179 20.7503H9.33244C8.99706 20.7573 8.66959 20.6481 8.40545 20.4413C8.14516 20.2379 7.9655 19.9488 7.89845 19.6253L7.53245 17.8658C7.20875 17.7097 6.89468 17.5344 6.59195 17.3408L4.85045 17.9153C4.70195 17.962 4.5471 17.9853 4.39145 17.9843C4.14103 17.9825 3.89506 17.9181 3.67595 17.7968C3.4591 17.676 3.278 17.5001 3.15095 17.2868L1.45745 14.4923C1.28139 14.2106 1.21412 13.8743 1.26824 13.5465C1.32236 13.2188 1.49416 12.922 1.75145 12.7118L3.10595 11.0003V10.4693L1.74995 9.26181C1.49954 9.05285 1.33223 8.76114 1.2783 8.43949C1.22437 8.11784 1.28739 7.78752 1.45595 7.50831L3.14945 4.71531C3.27629 4.50151 3.45741 4.32505 3.67445 4.20381C3.89356 4.08257 4.13953 4.01811 4.38995 4.01631C4.5442 4.00658 4.69902 4.02075 4.84895 4.05831L6.55595 4.65831C6.86095 4.46331 7.17695 4.28881 7.50395 4.13481L7.86995 2.37531C7.937 2.05186 8.11666 1.76271 8.37694 1.55931C8.64109 1.35253 8.96856 1.24337 9.30394 1.25031H12.6609C12.9963 1.24337 13.3238 1.35253 13.5879 1.55931C13.8504 1.76481 14.0304 2.05431 14.0949 2.37531L14.4609 4.13481C14.7859 4.28981 15.0994 4.46481 15.4014 4.65981L17.1444 4.08681C17.3379 4.02388 17.5423 4.00179 17.7447 4.02193C17.9471 4.04207 18.1432 4.104 18.3204 4.20381C18.5379 4.32681 18.7179 4.50381 18.8454 4.71381L20.5374 7.50831C20.7159 7.78764 20.7866 8.12236 20.7363 8.44999C20.6861 8.77761 20.5184 9.07577 20.2644 9.28881L18.8874 10.4618V11.5313Z" stroke="#545454"/>
<path d="M14.75 11C14.75 11.9946 14.3549 12.9484 13.6517 13.6517C12.9484 14.3549 11.9946 14.75 11 14.75C10.0054 14.75 9.05161 14.3549 8.34835 13.6517C7.64509 12.9484 7.25 11.9946 7.25 11C7.25 10.0054 7.64509 9.05161 8.34835 8.34835C9.05161 7.64509 10.0054 7.25 11 7.25C11.9946 7.25 12.9484 7.64509 13.6517 8.34835C14.3549 9.05161 14.75 10.0054 14.75 11Z" stroke="#545454"/>
</svg>
