<svg width="22" height="20" viewBox="0 0 22 20" fill="none" xmlns="http://www.w3.org/2000/svg">
<path fill-rule="evenodd" clip-rule="evenodd" d="M12.3171 15.2064L17.2711 12.5044C17.5469 12.3538 17.7771 12.1317 17.9375 11.8614C18.0979 11.5912 18.1825 11.2827 18.1825 10.9684C18.1825 10.6541 18.0979 10.3457 17.9375 10.0754C17.7771 9.8051 17.5469 9.583 17.2711 9.4324L12.3171 6.7304C11.9131 6.51001 11.4602 6.39453 11.0001 6.39453C10.5399 6.39453 10.087 6.51001 9.68305 6.7304L4.72905 9.4324C4.45321 9.583 4.22301 9.8051 4.06263 10.0754C3.90226 10.3457 3.81763 10.6541 3.81763 10.9684C3.81763 11.2827 3.90226 11.5912 4.06263 11.8614C4.22301 12.1317 4.45321 12.3538 4.72905 12.5044L9.68305 15.2064C10.087 15.4268 10.5399 15.5423 11.0001 15.5423C11.4602 15.5423 11.9131 15.4268 12.3171 15.2064ZM16.5521 11.1884L11.5991 13.8904C11.4152 13.9904 11.2093 14.0427 11.0001 14.0427C10.7908 14.0427 10.5849 13.9904 10.4011 13.8904L5.44805 11.1884C5.40861 11.1669 5.37569 11.1352 5.35276 11.0965C5.32982 11.0579 5.31772 11.0138 5.31772 10.9689C5.31772 10.924 5.32982 10.8799 5.35276 10.8413C5.37569 10.8026 5.40861 10.7709 5.44805 10.7494L10.4011 8.0474C10.5848 7.9471 10.7907 7.89454 11.0001 7.89454C11.2094 7.89454 11.4153 7.9471 11.5991 8.0474L16.5521 10.7494C16.5915 10.7709 16.6244 10.8026 16.6474 10.8413C16.6703 10.8799 16.6824 10.924 16.6824 10.9689C16.6824 11.0138 16.6703 11.0579 16.6474 11.0965C16.6244 11.1352 16.5915 11.1669 16.5521 11.1884Z" fill="#30323E"/>
<path fill-rule="evenodd" clip-rule="evenodd" d="M14.775 12.9458V15.7588C14.7749 15.8075 14.7605 15.8552 14.7337 15.8959C14.7069 15.9365 14.6688 15.9685 14.624 15.9878L11.099 17.5088C11.0677 17.5222 11.034 17.5291 11 17.5291C10.966 17.5291 10.9323 17.5222 10.901 17.5088L7.37601 15.9878C7.33126 15.9685 7.29313 15.9365 7.2663 15.8959C7.23947 15.8552 7.22512 15.8075 7.22501 15.7588V12.8378C7.22501 12.6389 7.14599 12.4481 7.00534 12.3075C6.86469 12.1668 6.67392 12.0878 6.47501 12.0878C6.2761 12.0878 6.08533 12.1668 5.94468 12.3075C5.80403 12.4481 5.72501 12.6389 5.72501 12.8378V15.7588C5.72501 16.4568 6.14101 17.0888 6.78201 17.3648L10.307 18.8858C10.749 19.0768 11.251 19.0768 11.693 18.8858L15.218 17.3648C15.5317 17.2295 15.799 17.0053 15.9868 16.72C16.1746 16.4346 16.2748 16.1005 16.275 15.7588V12.9458C16.275 12.7469 16.196 12.5561 16.0553 12.4155C15.9147 12.2748 15.7239 12.1958 15.525 12.1958C15.3261 12.1958 15.1353 12.2748 14.9947 12.4155C14.854 12.5561 14.775 12.7469 14.775 12.9458ZM1.43001 8.8938L10.283 2.6968C10.493 2.54938 10.7434 2.47028 11 2.47028C11.2566 2.47028 11.507 2.54938 11.717 2.6968L20.57 8.8938C20.733 9.00784 20.9346 9.05247 21.1305 9.01787C21.3264 8.98327 21.5005 8.87228 21.6145 8.7093C21.7286 8.54633 21.7732 8.34472 21.7386 8.14884C21.704 7.95296 21.593 7.77884 21.43 7.6648L12.577 1.4678C12.1148 1.14425 11.5642 0.970703 11 0.970703C10.4358 0.970703 9.88524 1.14425 9.42301 1.4678L0.57001 7.6648C0.407035 7.77884 0.296037 7.95296 0.261437 8.14884C0.226837 8.34472 0.271467 8.54633 0.38551 8.7093C0.499553 8.87228 0.673667 8.98327 0.869549 9.01787C1.06543 9.05247 1.26703 9.00784 1.43001 8.8938Z" fill="#30323E"/>
<path fill-rule="evenodd" clip-rule="evenodd" d="M16.25 4.4293V2.7793H17.25V6.1793C17.25 6.37821 17.329 6.56897 17.4697 6.70963C17.6103 6.85028 17.8011 6.9293 18 6.9293C18.1989 6.9293 18.3897 6.85028 18.5303 6.70963C18.671 6.56897 18.75 6.37821 18.75 6.1793V2.0293C18.75 1.83038 18.671 1.63962 18.5303 1.49897C18.3897 1.35831 18.1989 1.2793 18 1.2793H15.5C15.3011 1.2793 15.1103 1.35831 14.9697 1.49897C14.829 1.63962 14.75 1.83038 14.75 2.0293V4.4293C14.75 4.62821 14.829 4.81897 14.9697 4.95963C15.1103 5.10028 15.3011 5.1793 15.5 5.1793C15.6989 5.1793 15.8897 5.10028 16.0303 4.95963C16.171 4.81897 16.25 4.62821 16.25 4.4293Z" fill="#30323E"/>
</svg>
