<svg width="15" height="12" viewBox="0 0 15 12" fill="none" xmlns="http://www.w3.org/2000/svg">
<path d="M12.7616 2.48151L13.6352 1.4433C13.8881 1.16212 13.9571 0.945825 13.9801 0.837678C13.2904 1.22701 12.6466 1.35678 12.2328 1.35678H12.0719L11.9799 1.27027C11.4281 0.816049 10.7384 0.578125 10.0027 0.578125C8.39336 0.578125 7.12888 1.83263 7.12888 3.2818C7.12888 3.36832 7.12888 3.4981 7.15187 3.58461L7.22084 4.0172L6.73804 3.99557C3.79524 3.90905 1.38122 1.52982 0.990384 1.11886C0.346647 2.20033 0.714496 3.23854 1.10534 3.88742L1.88702 5.09867L0.645525 4.44979C0.668515 5.35822 1.03637 6.072 1.74907 6.5911L2.36982 7.02369L1.74907 7.26161C2.13991 8.36471 3.01356 8.81893 3.65729 8.99197L4.50795 9.20826L3.70328 9.72737C2.4158 10.5925 0.806459 10.5277 0.09375 10.4628C1.54216 11.4145 3.26645 11.6308 4.46197 11.6308C5.3586 11.6308 6.02533 11.5442 6.18626 11.4793C12.6236 10.0518 12.9225 4.64445 12.9225 3.56298V3.41158L13.0605 3.32506C13.8421 2.63292 14.164 2.26522 14.3479 2.04893C14.279 2.07055 14.187 2.11381 14.095 2.13544L12.7616 2.48151Z" fill="#252525"/>
</svg>
