<svg width="24" height="22" viewBox="0 0 24 22" fill="none" xmlns="http://www.w3.org/2000/svg">
<path d="M23.8447 4.76094L18.3869 0.767372C18.3425 0.734659 18.2914 0.712151 18.2372 0.701453C18.1831 0.690756 18.1273 0.692132 18.0738 0.705483L11.5172 2.36855C11.4484 2.38611 11.386 2.42286 11.3372 2.47452C11.2884 2.52618 11.2553 2.59063 11.2418 2.66036C11.2282 2.7301 11.2348 2.80225 11.2606 2.86842C11.2865 2.93458 11.3306 2.99204 11.3879 3.03411L13.124 4.30155L12.749 6.20268C12.5446 7.26387 14.2489 8.9438 16.5457 9.39C16.9485 9.46777 17.3578 9.50671 17.7681 9.50626C18.3971 9.51019 19.0226 9.41269 19.6205 9.21754C20.5392 8.91194 21.1523 8.40193 21.2592 7.85635L21.6342 5.96081L23.7172 5.43397C23.786 5.41642 23.8484 5.37967 23.8972 5.32801C23.946 5.27634 23.979 5.21189 23.9926 5.14216C24.0062 5.07242 23.9996 5.00027 23.9738 4.93411C23.9479 4.86794 23.9038 4.81048 23.8465 4.76842L23.8447 4.76094ZM20.528 7.71203C20.4849 7.93139 20.0781 8.27449 19.3862 8.50513C18.5126 8.7786 17.5844 8.82888 16.6863 8.65137C14.5771 8.24075 13.3996 6.81396 13.499 6.34525L13.8009 4.79097L16.8457 7.02584C16.9098 7.07309 16.9873 7.0987 17.067 7.09896C17.0987 7.09918 17.1303 7.09477 17.1607 7.08585L20.828 6.1578L20.528 7.71203ZM17.1532 6.3171L12.4753 2.89726L18.0869 1.47607L22.7591 4.89403L17.1532 6.3171ZM9.16797 9.57754C9.11157 9.61011 9.06462 9.6568 9.03174 9.71302C8.99886 9.76924 8.98119 9.83305 8.98047 9.89817V16.5878C8.9812 16.6529 8.99887 16.7167 9.03175 16.773C9.06462 16.8292 9.11157 16.8759 9.16797 16.9084C9.22435 16.9433 9.28918 16.9621 9.35547 16.9628C9.41606 16.9634 9.47589 16.9492 9.52981 16.9215L15.9232 13.5748C15.9837 13.543 16.0343 13.4953 16.0697 13.4368C16.105 13.3783 16.1236 13.3113 16.1236 13.243C16.1236 13.1747 16.105 13.1076 16.0697 13.0492C16.0343 12.9907 15.9837 12.943 15.9232 12.9112L9.53545 9.56443C9.47823 9.53488 9.41436 9.52057 9.34999 9.52286C9.28563 9.52516 9.22294 9.54399 9.16797 9.57754ZM9.73047 10.515L14.9408 13.243L9.73611 15.9691L9.73047 10.515Z" fill="black"/>
<path d="M22.8738 19.0551H20.9483C20.9816 18.9502 20.9987 18.8408 20.9989 18.7307V10.0555C20.9989 9.95608 20.9594 9.8607 20.8891 9.79037C20.8188 9.72004 20.7234 9.68054 20.6239 9.68054C20.5245 9.68054 20.4291 9.72004 20.3588 9.79037C20.2884 9.8607 20.2489 9.95608 20.2489 10.0555V18.7307C20.2482 18.774 20.2389 18.8168 20.2217 18.8565C20.2044 18.8963 20.1795 18.9322 20.1483 18.9624C20.1172 18.9925 20.0804 19.0162 20.0401 19.0321C19.9998 19.048 19.9567 19.0558 19.9134 19.055H3.33544C3.29211 19.0558 3.24906 19.048 3.20875 19.0321C3.16843 19.0162 3.13164 18.9925 3.10047 18.9624C3.06931 18.9323 3.04438 18.8964 3.02711 18.8566C3.00984 18.8169 3.00057 18.7741 2.99982 18.7308V7.38001C3.00056 7.33669 3.00982 7.29393 3.02708 7.25418C3.04434 7.21443 3.06925 7.17847 3.10041 7.14835C3.13157 7.11823 3.16835 7.09455 3.20866 7.07864C3.24898 7.06274 3.29202 7.05494 3.33535 7.05567H11.6244C11.7238 7.05567 11.8192 7.01616 11.8895 6.94584C11.9599 6.87551 11.9994 6.78013 11.9994 6.68067C11.9994 6.58121 11.9599 6.48583 11.8895 6.41551C11.8192 6.34518 11.7238 6.30567 11.6244 6.30567H3.33544C2.73942 6.30361 2.25398 6.784 2.24987 7.37997V18.7307C2.25009 18.8407 2.26714 18.9501 2.30048 19.055H0.375C0.275544 19.055 0.180161 19.0945 0.109835 19.1648C0.0395088 19.2352 0 19.3305 0 19.43L0 19.5237C0 20.3675 0.663723 21.3049 1.55428 21.3049H21.6945C22.5851 21.3049 23.2488 20.3675 23.2488 19.5237V19.43C23.2488 19.3306 23.2093 19.2352 23.1389 19.1649C23.0686 19.0946 22.9733 19.0551 22.8738 19.0551ZM21.6945 20.555H1.55428C1.22994 20.555 0.899955 20.21 0.789335 19.805H22.4595C22.3488 20.21 22.0189 20.555 21.6945 20.555Z" fill="black"/>
</svg>
