<svg width="20" height="20" viewBox="0 0 20 20" fill="none" xmlns="http://www.w3.org/2000/svg">
<path d="M10.7327 17.3833H5.67435C2.71602 17.3833 1.66602 15.3083 1.66602 13.375V6.625C1.66602 3.74167 2.79102 2.61667 5.67435 2.61667H10.7327C13.616 2.61667 14.741 3.74167 14.741 6.625V13.375C14.741 16.2583 13.616 17.3833 10.7327 17.3833ZM5.67435 3.88333C3.49935 3.88333 2.93268 4.45 2.93268 6.625V13.375C2.93268 14.4 3.29102 16.1167 5.67435 16.1167H10.7327C12.9077 16.1167 13.4743 15.55 13.4743 13.375V6.625C13.4743 4.45 12.9077 3.88333 10.7327 3.88333H5.67435V3.88333Z" fill="#252525"/>
<path d="M17.3158 15.0917C16.9574 15.0917 16.4991 14.975 15.9741 14.6083L13.7491 13.05C13.5824 12.9333 13.4824 12.7417 13.4824 12.5333V7.46667C13.4824 7.25834 13.5824 7.06667 13.7491 6.95L15.9741 5.39167C16.9658 4.7 17.6908 4.9 18.0324 5.075C18.3741 5.25834 18.9574 5.73334 18.9574 6.94167V13.05C18.9574 14.2583 18.3741 14.7417 18.0324 14.9167C17.8741 15.0083 17.6241 15.0917 17.3158 15.0917ZM14.7408 12.2L16.6991 13.5667C17.0741 13.825 17.3408 13.85 17.4491 13.7917C17.5658 13.7333 17.6908 13.5 17.6908 13.05V6.95C17.6908 6.49167 17.5574 6.26667 17.4491 6.20834C17.3408 6.15 17.0741 6.175 16.6991 6.43334L14.7408 7.8V12.2Z" fill="#252525"/>
<path d="M9.58398 9.79167C8.55065 9.79167 7.70898 8.95 7.70898 7.91667C7.70898 6.88333 8.55065 6.04167 9.58398 6.04167C10.6173 6.04167 11.459 6.88333 11.459 7.91667C11.459 8.95 10.6173 9.79167 9.58398 9.79167ZM9.58398 7.29167C9.24232 7.29167 8.95898 7.575 8.95898 7.91667C8.95898 8.25833 9.24232 8.54167 9.58398 8.54167C9.92565 8.54167 10.209 8.25833 10.209 7.91667C10.209 7.575 9.92565 7.29167 9.58398 7.29167Z" fill="#252525"/>
</svg>
