<svg width="24" height="24" viewBox="0 0 24 24" fill="none" xmlns="http://www.w3.org/2000/svg">
<path d="M8 5.75C7.59 5.75 7.25 5.41 7.25 5V2C7.25 1.59 7.59 1.25 8 1.25C8.41 1.25 8.75 1.59 8.75 2V5C8.75 5.41 8.41 5.75 8 5.75Z" fill="#252525"/>
<path d="M16 5.75C15.59 5.75 15.25 5.41 15.25 5V2C15.25 1.59 15.59 1.25 16 1.25C16.41 1.25 16.75 1.59 16.75 2V5C16.75 5.41 16.41 5.75 16 5.75Z" fill="#252525"/>
<path d="M15 22.75H9C3.38 22.75 2.25 20.1 2.25 15.82V9.65C2.25 4.91 3.85 2.98 7.96 2.75H16C16.01 2.75 16.03 2.75 16.04 2.75C20.15 2.98 21.75 4.91 21.75 9.65V15.82C21.75 20.1 20.62 22.75 15 22.75ZM8 4.25C5.2 4.41 3.75 5.29 3.75 9.65V15.82C3.75 19.65 4.48 21.25 9 21.25H15C19.52 21.25 20.25 19.65 20.25 15.82V9.65C20.25 5.3 18.81 4.41 15.98 4.25H8Z" fill="#252525"/>
<path d="M20.75 18.35H3.25C2.84 18.35 2.5 18.01 2.5 17.6C2.5 17.19 2.84 16.85 3.25 16.85H20.75C21.16 16.85 21.5 17.19 21.5 17.6C21.5 18.01 21.16 18.35 20.75 18.35Z" fill="#252525"/>
<path d="M13.5268 14.0006L15.6898 9.05304H12.7727V8.19945H16.7091V8.91215L14.5627 14.0006H13.5268Z" fill="#252525"/>
<path d="M9.71935 14.1C9.19449 14.1 8.74421 13.9757 8.36852 13.727C7.99283 13.4729 7.70277 13.1221 7.49835 12.6746C7.29946 12.2215 7.20001 11.6967 7.20001 11.1C7.20001 10.5033 7.29946 9.98119 7.49835 9.53368C7.70277 9.08064 7.99283 8.72981 8.36852 8.48119C8.74421 8.22705 9.19449 8.09998 9.71935 8.09998C10.2387 8.09998 10.6834 8.22705 11.0536 8.48119C11.4293 8.72981 11.7166 9.08064 11.9155 9.53368C12.1199 9.98119 12.2221 10.5033 12.2221 11.1C12.2221 11.6967 12.1199 12.2215 11.9155 12.6746C11.7166 13.1221 11.4293 13.4729 11.0536 13.727C10.6834 13.9757 10.2387 14.1 9.71935 14.1ZM9.71106 13.2049C10.0039 13.2049 10.2635 13.1221 10.4901 12.9563C10.7166 12.7851 10.8906 12.542 11.0122 12.227C11.1392 11.9121 11.2028 11.5364 11.2028 11.1C11.2028 10.6635 11.1392 10.2878 11.0122 9.9729C10.8906 9.65799 10.7166 9.41766 10.4901 9.25191C10.2635 9.08064 10.0039 8.995 9.71106 8.995C9.41824 8.995 9.15858 9.08064 8.93206 9.25191C8.70554 9.41766 8.52874 9.65799 8.40167 9.9729C8.28012 10.2878 8.21935 10.6635 8.21935 11.1C8.21935 11.5364 8.28012 11.9121 8.40167 12.227C8.52874 12.542 8.70554 12.7851 8.93206 12.9563C9.15858 13.1221 9.41824 13.2049 9.71106 13.2049Z" fill="#252525"/>
</svg>
